<svg width="18" height="18" viewBox="0 0 18 18" fill="none" xmlns="http://www.w3.org/2000/svg">
<path fill-rule="evenodd" clip-rule="evenodd" d="M5.4375 7.5C5.4375 6.55517 5.81283 5.64903 6.48093 4.98093C7.14903 4.31283 8.05517 3.9375 9 3.9375C9.94483 3.9375 10.851 4.31283 11.5191 4.98093C12.1872 5.64903 12.5625 6.55517 12.5625 7.5C12.5625 8.44483 12.1872 9.35097 11.5191 10.0191C10.851 10.6872 9.94483 11.0625 9 11.0625C8.05517 11.0625 7.14903 10.6872 6.48093 10.0191C5.81283 9.35097 5.4375 8.44483 5.4375 7.5ZM9 5.0625C8.35353 5.0625 7.73355 5.31931 7.27643 5.77643C6.81931 6.23355 6.5625 6.85353 6.5625 7.5C6.5625 8.14646 6.81931 8.76645 7.27643 9.22357C7.73355 9.68069 8.35353 9.9375 9 9.9375C9.64646 9.9375 10.2665 9.68069 10.7236 9.22357C11.1807 8.76645 11.4375 8.14646 11.4375 7.5C11.4375 6.85353 11.1807 6.23355 10.7236 5.77643C10.2665 5.31931 9.64646 5.0625 9 5.0625Z" fill="#060B27"/>
<path fill-rule="evenodd" clip-rule="evenodd" d="M2.64384 6.64275C2.77237 5.08798 3.4807 3.63835 4.62826 2.5815C5.77583 1.52466 7.27876 0.937842 8.83884 0.9375H9.16284C10.7229 0.937842 12.2258 1.52466 13.3734 2.5815C14.521 3.63835 15.2293 5.08798 15.3578 6.64275C15.5008 8.37475 14.9657 10.0946 13.8653 11.4397L10.2706 15.8355C10.1167 16.0236 9.92303 16.1752 9.70343 16.2793C9.48384 16.3834 9.24386 16.4374 9.00084 16.4374C8.75782 16.4374 8.51784 16.3834 8.29824 16.2793C8.07865 16.1752 7.88493 16.0236 7.73109 15.8355L4.13634 11.4397C3.03596 10.0946 2.50086 8.37475 2.64384 6.64275ZM8.83884 2.0625C7.5613 2.06304 6.33063 2.54373 5.39094 3.40924C4.45126 4.27474 3.8712 5.46181 3.76584 6.735C3.6468 8.17642 4.09209 9.60775 5.00784 10.7272L8.60259 15.1237C8.65091 15.1829 8.71178 15.2306 8.78079 15.2633C8.84979 15.296 8.92521 15.313 9.00159 15.313C9.07796 15.313 9.15338 15.296 9.22239 15.2633C9.2914 15.2306 9.35226 15.1829 9.40059 15.1237L12.9953 10.7272C13.9105 9.60753 14.3553 8.17622 14.2358 6.735C14.1305 5.46168 13.5503 4.2745 12.6105 3.40898C11.6706 2.54346 10.4398 2.06285 9.16209 2.0625H8.83884Z" fill="#060B27"/>
</svg>
