<svg width="18" height="18" viewBox="0 0 18 18" fill="none" xmlns="http://www.w3.org/2000/svg">
<g clip-path="url(#clip0_156_3043)">
<path d="M14.4551 5.29583H15.3913C15.5369 5.29583 15.655 5.17781 15.655 5.03215C15.655 4.8865 15.5369 4.76848 15.3913 4.76848H14.7188V3.92505C14.7188 3.7794 14.6007 3.66138 14.4551 3.66138C14.3095 3.66138 14.1914 3.7794 14.1914 3.92505V5.03215C14.1914 5.17777 14.3095 5.29583 14.4551 5.29583Z" fill="#E1080C"/>
<path d="M0.554668 6.88651C0.576711 6.88651 0.599141 6.88374 0.621465 6.8779C0.762371 6.84109 0.846746 6.69702 0.809937 6.55615C0.715086 6.19302 0.666992 5.8171 0.666992 5.43881C0.666992 3.20175 2.34008 1.31959 4.55879 1.06074C4.70342 1.0439 4.80703 0.912939 4.79012 0.768306C4.77328 0.623638 4.64214 0.519997 4.49769 0.536978C2.0132 0.826771 0.139648 2.93411 0.139648 5.43878C0.139648 5.86203 0.193508 6.28278 0.299715 6.68939C0.330687 6.80794 0.437598 6.88651 0.554668 6.88651Z" fill="#E1080C"/>
<path d="M1.65627 5.43874C1.65627 5.88519 1.74135 6.31986 1.90911 6.73066C1.96417 6.86686 2.12149 6.92972 2.2529 6.87505C2.38769 6.82 2.45235 6.66608 2.39729 6.53126C2.25547 6.18405 2.18358 5.8165 2.18358 5.4379C2.18115 4.66369 2.48673 3.93434 3.04406 3.38428C3.6034 2.83222 4.33967 2.53519 5.11455 2.54777C5.26031 2.54971 5.38012 2.43404 5.38248 2.28843C5.38483 2.14281 5.26875 2.02286 5.12313 2.0205C4.20387 2.00517 3.33459 2.35666 2.67362 3.00895C2.01469 3.65938 1.65338 4.5226 1.65627 5.43874Z" fill="#E1080C"/>
<path d="M9.0365 11.0642C9.33251 11.0642 9.6094 10.9375 9.81648 10.7073C10.0168 10.4846 10.1277 10.1898 10.1287 9.87748C10.13 9.45536 9.92019 9.25937 9.74395 9.1693C9.55354 9.07195 9.32464 9.05145 9.03956 9.05057C8.75493 9.04956 8.52543 9.06882 8.33446 9.16487C8.15766 9.25381 7.94662 9.44847 7.94532 9.87059C7.94328 10.5269 8.43132 11.0623 9.03326 11.0642H9.0365ZM8.47266 9.87225C8.47326 9.68539 8.53475 9.65445 8.57152 9.63593C8.6714 9.58565 8.85207 9.57788 9.01959 9.57788C9.02574 9.57788 9.03186 9.57788 9.03794 9.57792C9.21045 9.57845 9.40072 9.58607 9.50394 9.63884C9.54057 9.65755 9.60188 9.68891 9.60132 9.8758C9.60076 10.0584 9.5379 10.2284 9.42438 10.3547C9.3187 10.4722 9.18099 10.5369 9.03492 10.5369C8.72375 10.5359 8.4715 10.2377 8.47266 9.87225Z" fill="#E1080C"/>
<path d="M6.62793 9.60477C6.62811 9.54462 6.6517 9.4882 6.69438 9.4458C6.73685 9.40357 6.7932 9.38037 6.85381 9.38037C6.91393 9.38055 6.97039 9.40414 7.01275 9.44682C7.05515 9.48946 7.07839 9.54606 7.07821 9.60622C7.07776 9.75187 7.19542 9.87027 7.34188 9.87069C7.48711 9.87069 7.6051 9.75317 7.60556 9.60783C7.60619 9.40684 7.52849 9.21763 7.38681 9.07507C7.24513 8.93248 7.05642 8.85363 6.85543 8.85303C6.85462 8.85303 6.85377 8.85303 6.85297 8.85303C6.65289 8.85303 6.46463 8.93065 6.32263 9.07177C6.18008 9.21345 6.10122 9.40217 6.10059 9.60316C6.10013 9.74881 6.2178 9.86722 6.36426 9.86764C6.50949 9.86764 6.62747 9.75011 6.62793 9.60477Z" fill="#E1080C"/>
<path d="M10.998 9.61869C10.9982 9.55854 11.0218 9.50211 11.0645 9.45971C11.107 9.41749 11.1633 9.39429 11.2239 9.39429C11.284 9.39446 11.3405 9.41805 11.3829 9.46073C11.4253 9.50338 11.4485 9.55998 11.4484 9.62013C11.4479 9.76578 11.5656 9.88419 11.712 9.88461C11.8573 9.88461 11.9753 9.76708 11.9757 9.62175C11.9763 9.42076 11.8986 9.23151 11.757 9.08899C11.6153 8.9464 11.4265 8.86754 11.2256 8.86694C11.2248 8.86694 11.2239 8.86694 11.2231 8.86694C11.023 8.86694 10.8348 8.94457 10.6928 9.08565C10.5502 9.22733 10.4713 9.41605 10.4707 9.61707C10.4702 9.76269 10.5879 9.8811 10.7344 9.88155C10.8796 9.88152 10.9976 9.76399 10.998 9.61869Z" fill="#E1080C"/>
<path d="M16.1699 12.2517H16.0998L15.6598 11.4678C15.278 10.7874 15.0761 10.0153 15.0761 9.23509V8.34736C16.6405 8.05528 17.8284 6.67993 17.8284 5.03209C17.8284 3.17239 16.3154 1.65941 14.4557 1.65941C13.402 1.65941 12.4598 2.14527 11.8408 2.90457C11.3887 2.66931 10.9082 2.49286 10.4121 2.37937V1.34262C10.4121 0.602332 9.80978 0 9.06946 0C8.32913 0 7.7268 0.602332 7.7268 1.34265V2.38166C6.57762 2.64755 5.51467 3.24932 4.69338 4.12028C4.59347 4.22624 4.59835 4.39313 4.70432 4.49304C4.75526 4.54106 4.82026 4.56486 4.88516 4.56486C4.95526 4.56486 5.02515 4.53709 5.07704 4.48211C6.11208 3.38446 7.56726 2.75495 9.06949 2.75495C9.92888 2.75495 10.7764 2.9577 11.538 3.34223C11.2489 3.83941 11.0831 4.41675 11.0831 5.03216C11.08 6.92427 12.6577 8.4587 14.5488 8.4035V9.23516C14.5488 10.1056 14.774 10.9669 15.2 11.7259L15.4951 12.2518H13.5104C13.3647 12.2518 13.2467 12.3698 13.2467 12.5155C13.2467 12.6611 13.3647 12.7792 13.5104 12.7792H16.17C16.8115 12.7792 17.3334 13.3011 17.3334 13.9425C17.3334 14.584 16.8115 15.1059 16.17 15.1059H1.96902C1.32752 15.1059 0.805629 14.584 0.805629 13.9425C0.805629 13.3011 1.32752 12.7792 1.96902 12.7792H12.2798C12.4254 12.7792 12.5435 12.6611 12.5435 12.5155C12.5435 12.3698 12.4254 12.2518 12.2798 12.2518H2.64384L2.93898 11.7259C3.36497 10.9669 3.59014 10.1056 3.59014 9.23516V8.2343C3.59014 7.24458 3.85965 6.27075 4.36952 5.41814C4.44423 5.29312 4.40352 5.13127 4.27857 5.05652C4.15356 4.98175 3.9917 5.02253 3.91692 5.14747C3.35815 6.08186 3.0628 7.14927 3.0628 8.2343V9.23516C3.0628 10.0154 2.86097 10.7874 2.4791 11.4678L2.03912 12.2518H1.96905C1.03678 12.2518 0.27832 13.0103 0.27832 13.9425C0.27832 14.8748 1.03678 15.6333 1.96905 15.6333H6.58138C6.64642 16.9493 7.73753 18 9.06946 18C10.4014 18 11.4925 16.9493 11.5575 15.6332H16.1699C17.1021 15.6332 17.8606 14.8748 17.8606 13.9425C17.8606 13.0102 17.1022 12.2517 16.1699 12.2517ZM9.06946 2.22757C8.79559 2.22757 8.52327 2.24708 8.25415 2.28442V1.34265C8.25415 0.893074 8.61991 0.527344 9.06946 0.527344C9.519 0.527344 9.88476 0.893074 9.88476 1.34265V2.28357C9.61536 2.24673 9.34297 2.22757 9.06946 2.22757ZM11.6231 5.2958H12.1771C12.3227 5.2958 12.4408 5.17778 12.4408 5.03212C12.4408 4.88647 12.3227 4.76845 12.1771 4.76845H11.6231C11.7486 3.40963 12.8332 2.32499 14.1921 2.19948V2.75351C14.1921 2.89916 14.3101 3.01718 14.4557 3.01718C14.6014 3.01718 14.7194 2.89916 14.7194 2.75351V2.19948C16.0782 2.32499 17.1629 3.40963 17.2884 4.76845H16.7344C16.5887 4.76845 16.4707 4.88647 16.4707 5.03212C16.4707 5.17778 16.5887 5.2958 16.7344 5.2958H17.2884C17.1629 6.65462 16.0783 7.73926 14.7194 7.86477V7.31071C14.7194 7.16505 14.6014 7.04704 14.4557 7.04704C14.3101 7.04704 14.1921 7.16505 14.1921 7.31071V7.86477C12.8332 7.73926 11.7486 6.65462 11.6231 5.2958ZM9.06946 17.4727C8.02837 17.4727 7.17436 16.6583 7.10988 15.6332H11.029C10.9646 16.6583 10.1105 17.4727 9.06946 17.4727Z" fill="#E1080C"/>
</g>
<defs>
<clipPath id="clip0_156_3043">
<rect width="18" height="18" fill="white"/>
</clipPath>
</defs>
</svg>
