<svg width="363" height="242" viewBox="0 0 363 242" fill="none" xmlns="http://www.w3.org/2000/svg">
<path d="M106.419 59.1727L52.1123 95.4993L105.602 175.464L159.909 139.138L106.419 59.1727Z" fill="#F5F5F5"/>
<path d="M131.854 135.354L131.238 139.168L104.241 135.279L104.857 131.465L131.854 135.354Z" fill="#E0E0E0"/>
<path d="M118.254 121.749L122.128 122.307L117.833 148.887L113.959 148.329L118.254 121.749Z" fill="#E0E0E0"/>
<path d="M93.3865 87.9653C93.4252 88.0234 87.9826 91.7313 81.2323 96.2465C74.4795 100.763 68.9754 104.377 68.9367 104.319C68.898 104.261 74.3391 100.554 81.0924 96.0369C87.8427 91.5217 93.3477 87.9077 93.3865 87.9653Z" fill="#E0E0E0"/>
<path d="M113.356 82.9506C113.395 83.0087 104.345 89.1298 93.1448 96.6207C81.9407 104.114 72.8299 110.141 72.7911 110.083C72.7524 110.025 81.8008 103.905 93.0044 96.4111C104.204 88.9203 113.317 82.893 113.356 82.9506Z" fill="#E0E0E0"/>
<path d="M117.36 88.936C117.399 88.994 108.348 95.1152 97.1487 102.606C85.9446 110.1 76.8338 116.126 76.795 116.068C76.7563 116.01 85.8047 109.89 97.0083 102.396C108.209 94.9056 117.321 88.8784 117.36 88.936Z" fill="#E0E0E0"/>
<path d="M121.366 94.9216C121.405 94.9796 112.354 101.101 101.155 108.592C89.9504 116.085 80.8396 122.112 80.8009 122.054C80.7622 121.996 89.8106 115.876 101.014 108.382C112.214 100.891 121.327 94.8635 121.366 94.9216Z" fill="#E0E0E0"/>
<path d="M125.364 100.903C125.403 100.961 116.352 107.082 105.153 114.573C93.9485 122.067 84.8377 128.093 84.799 128.035C84.7602 127.977 93.8086 121.857 105.012 114.364C116.212 106.873 125.325 100.845 125.364 100.903Z" fill="#E0E0E0"/>
<path d="M288.019 112.759L242.41 143.267L287.332 210.424L332.941 179.916L288.019 112.759Z" fill="#F5F5F5"/>
<path d="M309.372 176.747L308.855 179.951L286.182 176.684L286.7 173.481L309.372 176.747Z" fill="#E0E0E0"/>
<path d="M297.952 165.321L301.205 165.79L297.598 188.113L294.345 187.644L297.952 165.321Z" fill="#E0E0E0"/>
<path d="M277.066 136.948C277.105 137.006 272.539 140.127 266.87 143.919C261.198 147.712 256.571 150.74 256.532 150.682C256.494 150.624 261.058 147.503 266.73 143.71C272.399 139.918 277.027 136.89 277.066 136.948Z" fill="#E0E0E0"/>
<path d="M293.844 132.736C293.883 132.794 286.287 137.942 276.881 144.234C267.472 150.527 259.815 155.581 259.777 155.523C259.738 155.464 267.332 150.318 276.741 144.024C286.147 137.733 293.805 132.679 293.844 132.736Z" fill="#E0E0E0"/>
<path d="M297.206 137.762C297.245 137.82 289.649 142.968 280.243 149.259C270.834 155.553 263.178 160.606 263.139 160.548C263.1 160.49 270.694 155.343 280.103 149.05C289.509 142.758 297.167 137.704 297.206 137.762Z" fill="#E0E0E0"/>
<path d="M300.566 142.791C300.605 142.849 293.01 147.997 283.604 154.288C274.194 160.582 266.538 165.635 266.499 165.577C266.46 165.519 274.054 160.372 283.464 154.079C292.869 147.788 300.528 142.733 300.566 142.791Z" fill="#E0E0E0"/>
<path d="M303.929 147.812C303.967 147.87 296.372 153.018 286.966 159.31C277.557 165.603 269.9 170.657 269.861 170.598C269.823 170.541 277.417 165.394 286.826 159.1C296.232 152.809 303.89 147.754 303.929 147.812Z" fill="#E0E0E0"/>
<path d="M215.86 62.1127L166.096 35.4983L126.907 108.774L176.671 135.388L215.86 62.1127Z" fill="#F5F5F5"/>
<path d="M168.155 112.468L164.997 113.55L156.983 91.395L160.141 90.3137L168.155 112.468Z" fill="#E0E0E0"/>
<path d="M172.997 96.5723L174.148 99.7517L152.145 107.287L150.995 104.108L172.997 96.5723Z" fill="#E0E0E0"/>
<path d="M188.63 63.8862C188.591 63.9593 183.544 61.3355 177.358 58.0274C171.17 54.7178 166.187 51.9769 166.226 51.9038C166.265 51.8312 171.311 54.454 177.499 57.7631C183.685 61.0717 188.669 63.8136 188.63 63.8862Z" fill="#E0E0E0"/>
<path d="M200.566 77.0641C200.527 77.1371 192.173 72.7453 181.911 67.2568C171.644 61.7658 163.355 57.2573 163.395 57.1842C163.434 57.1116 171.785 61.502 182.052 66.993C192.315 72.4815 200.605 76.991 200.566 77.0641Z" fill="#E0E0E0"/>
<path d="M197.633 82.5516C197.594 82.6247 189.241 78.2329 178.978 72.7438C168.711 67.2528 160.423 62.7444 160.462 62.6713C160.501 62.5987 168.853 66.9891 179.119 72.48C189.382 77.9686 197.672 82.4785 197.633 82.5516Z" fill="#E0E0E0"/>
<path d="M194.7 88.0362C194.66 88.1093 186.307 83.7175 176.044 78.2285C165.778 72.738 157.489 68.229 157.528 68.1559C157.567 68.0828 165.919 72.4737 176.186 77.9647C186.448 83.4537 194.739 87.9636 194.7 88.0362Z" fill="#E0E0E0"/>
<path d="M191.767 93.5228C191.728 93.5959 183.375 89.2041 173.112 83.715C162.845 78.2245 154.557 73.7156 154.596 73.6425C154.635 73.5699 162.986 77.9602 173.253 83.4512C183.516 88.9403 191.806 93.4502 191.767 93.5228Z" fill="#E0E0E0"/>
<path opacity="0.2" d="M192.028 0H190.778V21.2878H192.028V0Z" fill="black"/>
<path d="M162.255 47.0431H220.558C220.558 47.0431 215.175 21.2783 190.965 21.2783C169.43 21.2778 162.255 47.0431 162.255 47.0431Z" fill="#E8505B"/>
<path d="M192.029 0H190.779V21.2878H192.029V0Z" fill="#E8505B"/>
<path d="M321.22 212.875C321.22 212.944 258.663 213 181.512 213C104.335 213 41.791 212.944 41.791 212.875C41.791 212.805 104.335 212.749 181.512 212.749C258.663 212.749 321.22 212.805 321.22 212.875Z" fill="#263238"/>
<path d="M57.2502 182.564C58.8866 182.622 60.4228 183.51 61.5021 184.741C62.5814 185.973 63.2431 187.521 63.6666 189.103C64.4855 192.164 63.9821 195.776 63.1095 198.821C59.796 197.637 57.753 194.104 56.8291 192.245C55.3684 189.309 54.5122 183.116 57.2502 182.564Z" fill="#E8505B"/>
<path d="M67.8752 202.53C66.8298 201.029 66.8051 198.941 67.6318 197.309C68.458 195.677 70.046 194.501 71.7947 193.963C72.6034 193.715 73.5414 193.611 74.2447 194.081C74.9024 194.52 75.1865 195.382 75.1013 196.168C75.0166 196.954 74.6183 197.673 74.1484 198.309C72.5371 200.491 70.5774 202.306 67.8752 202.53Z" fill="#E8505B"/>
<path d="M68.2402 212.757C68.2242 212.759 68.1739 212.532 68.0921 212.121C68.0035 211.667 67.8888 211.081 67.7513 210.377C67.49 208.91 67.0752 206.824 67.3888 204.519C67.6904 202.223 68.6041 200.261 69.562 199.089C70.0334 198.496 70.485 198.077 70.8189 197.819C70.9806 197.683 71.1229 197.599 71.2134 197.536C71.3058 197.475 71.3567 197.446 71.3615 197.452C71.3978 197.493 70.5871 197.993 69.6912 199.188C68.7837 200.364 67.914 202.292 67.6168 204.549C67.308 206.808 67.6904 208.875 67.9115 210.349C68.0301 211.089 68.1255 211.69 68.1806 212.106C68.2353 212.523 68.2557 212.755 68.2402 212.757Z" fill="#263238"/>
<path d="M58.3165 187.224C58.3237 187.221 58.3697 187.308 58.45 187.475C58.5381 187.666 58.6514 187.91 58.7913 188.213C59.0841 188.855 59.4955 189.79 59.9945 190.949C60.993 193.267 62.3269 196.489 63.7198 200.079C65.1123 203.671 66.2991 206.95 67.1243 209.335C67.5376 210.528 67.8634 211.495 68.0802 212.167C68.1809 212.485 68.2622 212.741 68.3251 212.942C68.3788 213.12 68.403 213.214 68.3958 213.217C68.388 213.22 68.3493 213.13 68.2815 212.957C68.208 212.76 68.1131 212.508 67.996 212.196C67.7443 211.506 67.3968 210.554 66.9713 209.389C66.1069 207.02 64.8969 203.751 63.5054 200.162C62.1134 196.574 60.8037 193.345 59.8444 191.012C59.373 189.865 58.9878 188.927 58.7085 188.248C58.5846 187.939 58.4844 187.689 58.4065 187.494C58.3407 187.32 58.3092 187.228 58.3165 187.224Z" fill="#263238"/>
<path d="M64.3055 205.99C62.3516 202.666 58.7032 200.398 54.8569 200.12C53.8773 200.049 52.6992 200.214 52.2626 201.093C51.8251 201.974 52.4103 203.017 53.0777 203.74C55.8539 206.747 60.5507 207.795 64.3423 206.254" fill="#E8505B"/>
<path d="M56.3516 202.741C56.3526 202.725 56.5704 202.735 56.9648 202.764C57.1623 202.778 57.4038 202.795 57.6802 202.847C57.956 202.898 58.2769 202.928 58.6186 203.024C58.9628 203.108 59.3422 203.192 59.7352 203.334C60.136 203.452 60.5474 203.624 60.9796 203.807C61.8334 204.194 62.7389 204.702 63.6014 205.361C64.4576 206.029 65.1807 206.775 65.7688 207.506C66.0514 207.881 66.3215 208.236 66.532 208.597C66.7648 208.944 66.9376 209.293 67.0998 209.608C67.2735 209.917 67.3761 210.223 67.4899 210.48C67.6046 210.737 67.6762 210.968 67.7333 211.158C67.8509 211.536 67.9081 211.746 67.893 211.751C67.8442 211.768 67.6085 210.921 66.956 209.682C66.7866 209.376 66.608 209.037 66.3718 208.7C66.1579 208.349 65.8859 208.003 65.6037 207.638C65.0162 206.926 64.3023 206.199 63.4615 205.543C62.6145 204.896 61.7283 204.392 60.8925 204C60.4695 203.814 60.0668 203.639 59.6742 203.514C59.2899 203.367 58.9173 203.275 58.5799 203.181C57.2223 202.838 56.3463 202.791 56.3516 202.741Z" fill="#263238"/>
<path d="M276.05 51.0517C274.628 51.3793 273.934 53.0167 273.799 54.4711C273.664 55.9251 273.85 57.4608 273.239 58.7874C272.552 60.2806 270.91 61.3812 270.856 63.0244C270.822 64.0258 271.417 64.9676 271.389 65.9695C271.342 67.6146 269.664 68.858 269.576 70.5017C269.513 71.6851 270.301 72.821 270.111 73.9908C269.964 74.9012 269.255 75.6185 268.956 76.4907C268.358 78.2297 269.553 80.1439 271.109 81.1226C272.843 82.2135 275.064 82.4947 277.015 81.8713C278.966 81.2479 280.612 79.7306 281.392 77.8367C282.253 75.7463 282.065 73.3926 281.878 71.1401C281.295 64.1192 280.861 57.0862 280.578 50.0469" fill="#263238"/>
<path d="M271.921 75.829C271.89 75.8014 272.31 75.6765 272.571 75.0556C272.697 74.7521 272.762 74.3436 272.737 73.8741C272.72 73.4017 272.559 72.8873 272.384 72.3069C272.222 71.7319 272.01 71.0645 272.131 70.3225C272.253 69.569 272.792 68.9499 273.284 68.342C273.532 68.0337 273.781 67.7133 273.938 67.3488C274.103 66.9883 274.138 66.5754 274.013 66.1882C273.764 65.3974 272.989 64.8156 272.633 63.9028C272.457 63.4454 272.455 62.943 272.555 62.4905C272.651 62.0336 272.836 61.6188 273.022 61.2238C273.401 60.4359 273.818 59.7133 273.984 58.9461C274.324 57.4109 274.165 55.9453 274.396 54.7416C274.606 53.5355 275.115 52.629 275.62 52.1629C275.866 51.9218 276.104 51.7936 276.26 51.7069C276.425 51.6358 276.512 51.6029 276.516 51.6111C276.532 51.6382 276.157 51.7534 275.689 52.2321C275.223 52.704 274.755 53.5907 274.572 54.7711C274.476 55.3582 274.462 56.0184 274.437 56.727C274.412 57.4351 274.39 58.2041 274.21 58.9989C274.042 59.8043 273.613 60.5554 273.245 61.3293C272.881 62.0897 272.547 62.9812 272.869 63.8147C273.176 64.6384 273.956 65.2236 274.249 66.1137C274.392 66.5565 274.345 67.0473 274.158 67.4442C273.98 67.8478 273.717 68.1779 273.464 68.4877C272.958 69.0995 272.452 69.6812 272.336 70.3588C272.215 71.0326 272.402 71.6826 272.555 72.2581C272.717 72.8335 272.873 73.3756 272.877 73.8678C272.89 74.3557 272.808 74.7807 272.661 75.0948C272.514 75.4108 272.315 75.6064 272.164 75.7056C272.016 75.8077 271.921 75.829 271.921 75.829Z" fill="#455A64"/>
<path d="M268.116 87.2974L263.747 99.892L245.527 100.869L242.489 107.629L261.51 109.554C265.304 111.122 269.637 109.2 271.022 105.336L276.098 91.1669L268.116 87.2974Z" fill="#B78876"/>
<path d="M305.803 206.035C305.803 206.035 292.451 163.628 292.168 162.251C291.912 161.007 297.013 130.489 297.656 122.592L279.615 123.264C279.615 123.264 279.615 123.313 279.614 123.396L271.945 123.821L278.814 210.551H287.116L286.293 181.777C291.412 195.521 298.748 209.527 298.748 209.527L305.803 206.035Z" fill="#B78876"/>
<path d="M286.633 192.089C286.64 191.826 286.532 182.449 286.532 182.449C286.429 183.009 283.35 174.306 283.424 173.777C283.462 173.503 286.633 192.089 286.633 192.089Z" fill="#A36957"/>
<path d="M283.071 169.658C283.052 169.657 283.034 169.844 283.017 170.184C283 170.522 282.996 171.014 283.029 171.622C283.04 171.926 283.072 172.258 283.111 172.613C283.157 172.968 283.205 173.348 283.288 173.743C283.438 174.534 283.67 175.391 283.966 176.269C284.569 178.023 285.234 179.558 285.707 180.672C285.931 181.18 286.123 181.616 286.284 181.983C286.426 182.29 286.513 182.457 286.531 182.45C286.549 182.443 286.496 182.263 286.384 181.943C286.273 181.623 286.103 181.164 285.888 180.599C285.462 179.467 284.825 177.92 284.228 176.182C283.935 175.312 283.699 174.47 283.537 173.693C283.45 173.306 283.394 172.933 283.339 172.584C283.29 172.234 283.248 171.908 283.224 171.608C283.167 171.009 283.141 170.521 283.126 170.184C283.108 169.845 283.09 169.658 283.071 169.658Z" fill="#A36957"/>
<path d="M278.657 210.984L278.654 210.204L287.158 209.833L287.181 213.049L286.656 213.085C284.322 213.221 274.778 213.615 273.216 213.147C271.473 212.624 278.657 210.984 278.657 210.984Z" fill="#455A64"/>
<path d="M287.3 212.854C287.3 212.858 287.25 212.863 287.155 212.871C287.029 212.879 286.892 212.888 286.737 212.897C286.319 212.917 285.806 212.941 285.199 212.969C283.901 213.02 282.105 213.068 280.123 213.076C278.139 213.085 276.343 213.053 275.044 213.013C274.438 212.991 273.924 212.971 273.506 212.955C273.351 212.946 273.214 212.939 273.089 212.932C272.993 212.925 272.943 212.92 272.943 212.917C272.943 212.913 272.994 212.911 273.09 212.911C273.215 212.912 273.353 212.913 273.508 212.915C273.926 212.921 274.44 212.93 275.046 212.94C276.345 212.962 278.14 212.982 280.123 212.973C282.105 212.965 283.899 212.929 285.197 212.896C285.804 212.88 286.318 212.867 286.735 212.857C286.891 212.854 287.028 212.851 287.154 212.849C287.249 212.849 287.3 212.851 287.3 212.854Z" fill="#263238"/>
<path d="M275.894 213.126C275.862 213.129 275.837 212.763 275.604 212.393C275.377 212.019 275.06 211.832 275.078 211.806C275.084 211.78 275.447 211.939 275.692 212.339C275.94 212.736 275.92 213.132 275.894 213.126Z" fill="#263238"/>
<path d="M278.393 211.852C278.369 211.867 278.249 211.722 278.125 211.528C278.001 211.334 277.92 211.165 277.944 211.149C277.967 211.134 278.087 211.279 278.212 211.473C278.335 211.667 278.416 211.837 278.393 211.852Z" fill="#263238"/>
<path d="M279.075 211.488C279.056 211.509 278.923 211.421 278.776 211.29C278.63 211.159 278.527 211.037 278.545 211.016C278.564 210.994 278.698 211.083 278.844 211.214C278.991 211.344 279.094 211.467 279.075 211.488Z" fill="#263238"/>
<path d="M279.506 210.684C279.507 210.712 279.309 210.738 279.065 210.742C278.821 210.745 278.623 210.725 278.622 210.697C278.622 210.669 278.819 210.643 279.063 210.639C279.308 210.636 279.506 210.656 279.506 210.684Z" fill="#263238"/>
<path d="M279.655 210.121C279.665 210.146 279.45 210.244 279.163 210.266C278.877 210.29 278.649 210.226 278.654 210.2C278.659 210.171 278.883 210.186 279.155 210.164C279.427 210.143 279.646 210.093 279.655 210.121Z" fill="#263238"/>
<path d="M278.101 211.114C278.101 211.126 277.893 211.152 277.557 211.113C277.39 211.094 277.191 211.054 276.978 210.988C276.872 210.95 276.761 210.922 276.646 210.852C276.592 210.816 276.532 210.766 276.511 210.684C276.488 210.602 276.531 210.51 276.593 210.466C277.112 210.195 277.633 210.485 277.827 210.753C277.934 210.889 277.983 211.023 278.006 211.115C278.028 211.208 278.026 211.261 278.02 211.262C278.001 211.269 277.982 211.048 277.771 210.799C277.666 210.677 277.509 210.558 277.305 210.499C277.113 210.443 276.84 210.428 276.657 210.545C276.571 210.61 276.605 210.711 276.701 210.768C276.791 210.825 276.907 210.86 277.007 210.897C277.213 210.967 277.405 211.012 277.568 211.041C277.893 211.098 278.101 211.098 278.101 211.114Z" fill="#263238"/>
<path d="M277.961 211.141C277.953 211.147 277.873 211.008 277.897 210.764C277.91 210.644 277.953 210.501 278.044 210.366C278.14 210.245 278.263 210.078 278.496 210.087C278.622 210.103 278.684 210.246 278.664 210.337C278.655 210.433 278.613 210.514 278.573 210.581C278.493 210.717 278.402 210.827 278.317 210.911C278.147 211.078 278.013 211.142 278.007 211.132C277.997 211.119 278.115 211.034 278.264 210.861C278.338 210.775 278.419 210.666 278.491 210.534C278.565 210.419 278.615 210.212 278.479 210.188C278.343 210.176 278.204 210.312 278.121 210.421C278.036 210.539 277.989 210.665 277.969 210.775C277.928 210.995 277.98 211.137 277.961 211.141Z" fill="#263238"/>
<path d="M287.118 210.541C287.117 210.56 286.876 210.519 286.494 210.565C286.116 210.609 285.589 210.766 285.132 211.132C284.676 211.5 284.409 211.979 284.284 212.34C284.156 212.703 284.145 212.947 284.125 212.944C284.119 212.944 284.116 212.883 284.124 212.773C284.133 212.664 284.158 212.506 284.215 212.317C284.324 211.941 284.591 211.435 285.068 211.052C285.544 210.671 286.096 210.519 286.486 210.493C286.683 210.479 286.843 210.488 286.951 210.504C287.061 210.518 287.119 210.534 287.118 210.541Z" fill="#263238"/>
<path d="M283.047 212.179C283.05 212.206 282.499 212.294 281.811 212.297C281.124 212.301 280.571 212.219 280.574 212.193C280.577 212.163 281.129 212.199 281.811 212.194C282.492 212.191 283.044 212.149 283.047 212.179Z" fill="#263238"/>
<path d="M284.701 212.16C284.722 212.181 284.656 212.278 284.601 212.405C284.543 212.531 284.515 212.644 284.485 212.643C284.458 212.643 284.441 212.509 284.507 212.363C284.572 212.216 284.683 212.14 284.701 212.16Z" fill="#263238"/>
<path d="M285.323 211.384C285.343 211.404 285.289 211.492 285.202 211.581C285.115 211.67 285.028 211.726 285.007 211.706C284.987 211.686 285.041 211.598 285.129 211.509C285.215 211.42 285.302 211.364 285.323 211.384Z" fill="#263238"/>
<path d="M286.218 211.023C286.212 211.052 286.1 211.051 285.975 211.096C285.85 211.137 285.762 211.207 285.74 211.187C285.717 211.172 285.787 211.051 285.942 210.999C286.096 210.945 286.226 210.997 286.218 211.023Z" fill="#263238"/>
<path d="M286.854 210.852C286.864 210.878 286.816 210.922 286.746 210.949C286.675 210.976 286.61 210.977 286.6 210.951C286.59 210.925 286.638 210.881 286.708 210.853C286.779 210.826 286.843 210.825 286.854 210.852Z" fill="#263238"/>
<path d="M298.583 210.229L298.26 209.519L305.866 205.698L307.204 208.622L306.74 208.869C304.667 209.95 296.121 214.218 294.505 214.431C292.701 214.668 298.583 210.229 298.583 210.229Z" fill="#455A64"/>
<path d="M307.233 208.398C307.234 208.402 307.191 208.427 307.107 208.473C306.996 208.531 306.874 208.596 306.736 208.668C306.363 208.857 305.904 209.089 305.363 209.364C304.2 209.943 302.581 210.721 300.776 211.541C298.97 212.362 297.319 213.068 296.118 213.564C295.555 213.792 295.078 213.984 294.691 214.141C294.546 214.197 294.417 214.246 294.3 214.291C294.211 214.324 294.163 214.34 294.161 214.337C294.16 214.334 294.205 214.311 294.292 214.272C294.408 214.222 294.533 214.167 294.676 214.104C295.06 213.939 295.532 213.737 296.089 213.498C297.283 212.985 298.929 212.268 300.734 211.448C302.538 210.629 304.161 209.861 305.332 209.299C305.879 209.037 306.342 208.814 306.719 208.633C306.859 208.567 306.984 208.508 307.098 208.455C307.184 208.415 307.231 208.395 307.233 208.398Z" fill="#263238"/>
<path d="M296.947 213.315C296.92 213.331 296.746 213.007 296.382 212.765C296.022 212.517 295.656 212.476 295.661 212.445C295.656 212.419 296.052 212.415 296.439 212.68C296.829 212.941 296.972 213.31 296.947 213.315Z" fill="#263238"/>
<path d="M298.693 211.132C298.678 211.156 298.509 211.073 298.316 210.947C298.124 210.82 297.98 210.699 297.995 210.676C298.011 210.652 298.18 210.735 298.372 210.861C298.565 210.987 298.709 211.108 298.693 211.132Z" fill="#263238"/>
<path d="M299.174 210.518C299.165 210.545 299.007 210.519 298.82 210.46C298.633 210.401 298.489 210.331 298.497 210.304C298.506 210.277 298.664 210.303 298.851 210.362C299.038 210.421 299.182 210.491 299.174 210.518Z" fill="#263238"/>
<path d="M299.24 209.613C299.252 209.639 299.082 209.744 298.861 209.847C298.64 209.95 298.451 210.013 298.439 209.988C298.427 209.962 298.597 209.857 298.818 209.754C299.038 209.651 299.228 209.588 299.24 209.613Z" fill="#263238"/>
<path d="M299.142 209.037C299.161 209.056 299.005 209.233 298.752 209.371C298.5 209.51 298.267 209.545 298.261 209.519C298.253 209.49 298.464 209.413 298.703 209.281C298.943 209.15 299.122 209.015 299.142 209.037Z" fill="#263238"/>
<path d="M298.131 210.577C298.136 210.587 297.956 210.697 297.634 210.798C297.473 210.849 297.276 210.895 297.054 210.921C296.942 210.93 296.83 210.951 296.696 210.934C296.632 210.923 296.557 210.902 296.504 210.836C296.45 210.771 296.452 210.67 296.489 210.604C296.851 210.144 297.446 210.195 297.733 210.36C297.886 210.441 297.985 210.543 298.044 210.617C298.102 210.693 298.122 210.742 298.117 210.745C298.103 210.76 297.995 210.565 297.7 210.425C297.555 210.356 297.362 210.313 297.153 210.342C296.954 210.369 296.699 210.468 296.581 210.65C296.528 210.744 296.601 210.822 296.712 210.835C296.817 210.85 296.937 210.835 297.044 210.827C297.261 210.807 297.454 210.77 297.614 210.729C297.935 210.647 298.124 210.562 298.131 210.577Z" fill="#263238"/>
<path d="M298.015 210.661C298.01 210.67 297.88 210.576 297.802 210.343C297.764 210.228 297.746 210.08 297.773 209.92C297.81 209.77 297.854 209.568 298.07 209.48C298.192 209.443 298.475 209.687 298.495 209.779C298.525 209.87 298.352 209.823 298.342 209.9C298.325 210.057 298.287 210.194 298.245 210.305C298.158 210.527 298.062 210.641 298.052 210.634C298.038 210.626 298.111 210.501 298.176 210.282C298.208 210.173 298.237 210.04 298.248 209.891C298.269 209.755 298.23 209.546 298.096 209.58C297.967 209.624 297.896 209.805 297.865 209.938C297.836 210.081 297.845 210.216 297.871 210.324C297.925 210.542 298.03 210.65 298.015 210.661Z" fill="#263238"/>
<path d="M306.121 206.359C306.127 206.378 305.891 206.438 305.561 206.637C305.233 206.832 304.818 207.191 304.551 207.712C304.285 208.234 304.238 208.781 304.272 209.161C304.304 209.545 304.394 209.772 304.375 209.777C304.369 209.78 304.341 209.726 304.305 209.622C304.267 209.519 304.226 209.364 304.2 209.168C304.146 208.781 304.182 208.21 304.46 207.666C304.738 207.122 305.179 206.758 305.525 206.574C305.699 206.48 305.849 206.423 305.954 206.393C306.059 206.363 306.119 206.354 306.121 206.359Z" fill="#263238"/>
<path d="M303.08 209.524C303.094 209.546 302.627 209.853 302.001 210.137C301.376 210.423 300.838 210.574 300.83 210.549C300.821 210.521 301.339 210.327 301.959 210.044C302.579 209.762 303.065 209.497 303.08 209.524Z" fill="#263238"/>
<path d="M304.586 208.827C304.613 208.837 304.593 208.952 304.594 209.091C304.593 209.23 304.613 209.345 304.586 209.355C304.56 209.367 304.491 209.252 304.491 209.091C304.491 208.93 304.56 208.816 304.586 208.827Z" fill="#263238"/>
<path d="M304.832 207.862C304.858 207.872 304.845 207.975 304.802 208.092C304.759 208.209 304.702 208.295 304.676 208.286C304.649 208.276 304.663 208.174 304.706 208.056C304.749 207.94 304.805 207.853 304.832 207.862Z" fill="#263238"/>
<path d="M305.495 207.17C305.501 207.198 305.399 207.244 305.303 207.335C305.206 207.424 305.154 207.523 305.126 207.515C305.099 207.51 305.114 207.371 305.233 207.26C305.352 207.148 305.492 207.142 305.495 207.17Z" fill="#263238"/>
<path d="M306.011 206.755C306.031 206.775 306.005 206.834 305.952 206.888C305.899 206.942 305.84 206.97 305.819 206.95C305.799 206.93 305.826 206.87 305.878 206.816C305.931 206.763 305.99 206.735 306.011 206.755Z" fill="#263238"/>
<path d="M296.479 108.228L295.063 90.9506L302.337 91.0803C302.337 91.0803 302.674 88.533 301.602 82.9448C300.945 79.518 298.663 77.4165 296.103 76.1678L296.104 76.1218L295.882 76.0637C292.627 74.5401 289.219 74.3252 289.219 74.3252L280.291 74.4283C280.291 74.4283 273.471 73.5774 269.695 78.4397C268.241 80.3128 263.741 93.1315 263.741 93.1315L274.458 98.2924L273.438 91.1839C273.438 91.1839 273.64 96.338 274.298 97.971C274.665 98.8809 275.726 101.706 275.726 101.706L275.587 110.231L296.479 108.228Z" fill="#E8505B"/>
<path d="M291.553 88.4486L290.228 94.095H302.73L301.907 84.6289L291.553 88.4486Z" fill="#E8505B"/>
<path d="M302.732 94.0982C302.734 94.0609 302.102 93.9946 301.077 93.9346C300.052 93.8746 298.635 93.8238 297.068 93.831C295.5 93.8388 294.082 93.9065 293.059 93.9878C292.035 94.0687 291.405 94.1553 291.408 94.1916C291.411 94.2313 292.046 94.2134 293.069 94.1824C294.093 94.1509 295.507 94.1142 297.07 94.1064C298.631 94.0996 300.046 94.119 301.071 94.1292C302.095 94.1398 302.73 94.1369 302.732 94.0982Z" fill="#263238"/>
<path d="M291.017 84.5815C290.979 84.583 290.966 85.1319 290.976 86.0176C290.985 86.9038 291.017 88.1264 291.07 89.4767C291.122 90.8271 291.185 92.0492 291.244 92.9334C291.303 93.8172 291.36 94.3632 291.397 94.3617C291.436 94.3603 291.449 93.8114 291.439 92.9257C291.43 92.04 291.397 90.8164 291.345 89.4661C291.293 88.1157 291.23 86.8941 291.17 86.0098C291.111 85.1265 291.056 84.5801 291.017 84.5815Z" fill="#263238"/>
<g opacity="0.3">
<path d="M279.64 89.4744C279.64 89.4744 282.419 110.077 290.23 109.532C290.23 109.532 293.747 109.49 294.878 107.152V106.232L279.64 89.4744Z" fill="black"/>
</g>
<g opacity="0.3">
<path d="M291.018 85.8008L289.522 95.9009L290.49 97.6733L292.084 94.2079L291.41 94.1919L291.018 85.8008Z" fill="black"/>
</g>
<path d="M275.732 101.716C275.716 101.721 275.641 101.549 275.521 101.233C275.4 100.917 275.239 100.456 275.052 99.8807C274.679 98.7312 274.217 97.1215 273.856 95.3094C273.497 93.4958 273.321 91.8279 273.264 90.6189C273.235 90.0144 273.226 89.5246 273.235 89.1863C273.242 88.848 273.253 88.6611 273.271 88.6611C273.311 88.6606 273.338 89.407 273.442 90.6068C273.544 91.8067 273.746 93.4585 274.104 95.2605C274.462 97.0614 274.894 98.6698 275.223 99.8294C275.376 100.367 275.507 100.826 275.615 101.203C275.706 101.527 275.749 101.71 275.732 101.716Z" fill="#263238"/>
<path d="M278.89 107.635C278.823 107.656 278.63 107.211 278.459 106.643C278.287 106.074 278.201 105.597 278.268 105.577C278.335 105.557 278.528 106.001 278.7 106.57C278.871 107.138 278.957 107.615 278.89 107.635Z" fill="#263238"/>
<path d="M279.968 107.557C279.904 107.573 279.693 106.907 279.682 106.051C279.668 105.195 279.859 104.522 279.923 104.537C279.995 104.55 279.92 105.221 279.934 106.047C279.944 106.873 280.04 107.542 279.968 107.557Z" fill="#263238"/>
<path d="M274.677 98.5383C274.646 98.6008 272.152 97.4174 269.107 95.8957C266.061 94.3735 263.618 93.0899 263.65 93.0275C263.681 92.9651 266.174 94.1484 269.22 95.6701C272.264 97.1918 274.708 98.4759 274.677 98.5383Z" fill="#263238"/>
<path d="M279.081 76.1091C279.136 73.6606 279.15 71.0818 279.15 71.0818C279.15 71.0818 276.01 70.4768 275.462 66.3444C274.941 62.4037 276.4 53.1569 276.4 53.1569C280.988 51.4227 285.755 52.9948 288.898 56.7119L288.118 76.5917C288.027 78.8994 285.971 80.6597 283.501 80.544C281.005 80.4269 279.027 78.442 279.081 76.1091Z" fill="#B78876"/>
<path d="M276.155 60.546C276.138 60.8243 276.36 61.0683 276.65 61.0915C276.94 61.1147 277.19 60.9081 277.206 60.6298C277.223 60.3515 277.002 60.107 276.712 60.0838C276.421 60.0606 276.172 60.2677 276.155 60.546Z" fill="#263238"/>
<path d="M275.951 59.8496C276.015 59.9203 276.423 59.6347 276.99 59.6507C277.558 59.6585 277.967 59.9614 278.03 59.8937C278.061 59.8637 277.998 59.7378 277.82 59.6009C277.645 59.4649 277.343 59.3289 276.989 59.3211C276.636 59.3138 276.334 59.4363 276.16 59.5655C275.982 59.6952 275.92 59.8182 275.951 59.8496Z" fill="#263238"/>
<path d="M281.92 60.9028C281.903 61.1811 282.125 61.4255 282.415 61.4487C282.705 61.472 282.954 61.2653 282.971 60.987C282.988 60.7087 282.766 60.4643 282.476 60.4411C282.186 60.4173 281.937 60.6245 281.92 60.9028Z" fill="#263238"/>
<path d="M281.873 60.2156C281.937 60.2863 282.345 60.0007 282.912 60.0167C283.479 60.0249 283.889 60.3279 283.952 60.2596C283.983 60.2296 283.92 60.1038 283.742 59.9668C283.566 59.8308 283.265 59.6948 282.911 59.6871C282.557 59.6798 282.256 59.8023 282.082 59.9315C281.904 60.0612 281.842 60.1841 281.873 60.2156Z" fill="#263238"/>
<path d="M279.715 64.3739C279.718 64.3414 279.367 64.2717 278.797 64.1837C278.652 64.1648 278.515 64.1328 278.494 64.0331C278.462 63.9276 278.527 63.7727 278.601 63.6058C278.747 63.2582 278.899 62.8943 279.059 62.5124C279.695 60.9554 280.159 59.6737 280.097 59.6486C280.034 59.6234 279.467 60.8649 278.831 62.4219C278.677 62.8057 278.531 63.1721 278.391 63.522C278.332 63.6856 278.233 63.87 278.301 64.0893C278.338 64.1987 278.442 64.28 278.534 64.3076C278.627 64.3385 278.708 64.3419 278.78 64.3482C279.355 64.3947 279.712 64.4063 279.715 64.3739Z" fill="#263238"/>
<path d="M279.147 71.084C279.147 71.084 281.912 71.3337 284.697 69.7559C284.697 69.7559 283.287 72.5485 279.177 72.0568L279.147 71.084Z" fill="#A36957"/>
<path d="M283.697 58.572C283.581 58.7496 283.149 58.6707 282.665 58.5836C282.183 58.4863 281.752 58.4006 281.709 58.1925C281.661 57.9931 282.161 57.7167 282.807 57.8407C283.453 57.9636 283.816 58.404 283.697 58.572Z" fill="#263238"/>
<path d="M278.05 57.7433C278.006 57.9505 277.544 58.026 277.01 58.0531C276.476 58.0749 276.009 58.042 275.946 57.8401C275.883 57.6446 276.334 57.3261 276.975 57.2981C277.617 57.2671 278.095 57.5425 278.05 57.7433Z" fill="#263238"/>
<path d="M279.717 65.7332C279.598 65.6998 279.463 65.7681 279.403 65.877C279.331 66.0062 279.364 66.1843 279.478 66.2796C279.59 66.375 279.771 66.3774 279.887 66.285C280.003 66.193 280.041 66.0159 279.973 65.8847C279.905 65.7535 279.739 65.6819 279.597 65.7226" fill="#A36957"/>
<path d="M279.85 65.7903C279.875 65.7675 279.759 65.6281 279.511 65.6823C279.396 65.7075 279.246 65.8106 279.201 65.9868C279.155 66.1523 279.196 66.3667 279.372 66.5013C279.553 66.629 279.772 66.6029 279.916 66.5047C280.071 66.403 280.115 66.2172 280.09 66.101C280.04 65.8459 279.852 65.8053 279.846 65.8406C279.825 65.8726 279.912 65.9611 279.895 66.1121C279.887 66.1862 279.852 66.2549 279.78 66.2898C279.71 66.328 279.598 66.328 279.535 66.2791C279.468 66.2317 279.434 66.1262 279.448 66.0449C279.458 65.9635 279.512 65.903 279.578 65.8658C279.712 65.7893 279.832 65.8251 279.85 65.7903Z" fill="#263238"/>
<path d="M286.99 61.566C286.501 62.7005 285.306 63.5746 285.472 64.7991C285.579 65.5895 286.086 66.3266 285.987 67.1185C285.863 68.1126 284.83 68.8018 284.684 69.793C284.505 71.0089 285.687 71.9536 286.16 73.0881C286.848 74.74 285.968 76.5981 285.947 78.3874C285.915 81.1283 288.246 83.6887 290.978 83.9137C292.083 84.0047 293.327 83.6713 293.9 82.7221C294.373 81.939 294.278 80.9439 294.562 80.0742C294.984 78.779 296.218 77.8308 296.479 76.4935C296.953 74.0556 294.007 72.0383 294.201 69.5622C294.283 68.5042 294.937 67.5812 295.214 66.557C295.578 65.2154 295.245 63.7043 294.35 62.6405C293.623 61.7756 292.567 61.2069 291.948 60.2621C291.246 59.1905 291.222 57.832 290.957 56.5784C290.312 53.5239 288.018 50.8706 285.089 49.7903C282.16 48.71 278.692 49.2385 276.218 51.1421C276.218 51.1421 275.514 54.3321 278.789 54.8655C282.063 55.3989 283.581 54.7832 283.95 56.0958C283.95 56.0958 283.577 57.6287 284.93 59.0933C286.285 60.5588 287.557 60.2524 286.99 61.566Z" fill="#263238"/>
<path d="M292.217 83.6907C292.215 83.6994 292.113 83.6882 291.918 83.6597C291.723 83.6292 291.438 83.5648 291.085 83.4351C290.386 83.1796 289.395 82.623 288.551 81.5596C288.132 81.0325 287.74 80.3937 287.474 79.6425C287.203 78.8957 287.048 78.0492 287.034 77.1576C287.014 76.2656 287.14 75.3301 287.383 74.394C287.505 73.9255 287.663 73.4579 287.847 72.9938C288.028 72.5277 288.25 72.0785 288.378 71.6033C288.516 71.1294 288.497 70.6454 288.373 70.1837C288.247 69.7219 288.032 69.2878 287.823 68.8585C287.612 68.4297 287.397 68.0018 287.259 67.5469C287.118 67.0958 287.065 66.6093 287.157 66.1558C287.351 65.244 287.904 64.5693 288.231 63.8767C288.576 63.1908 288.685 62.4658 288.669 61.8153C288.61 60.4969 288.048 59.5221 287.59 58.9602C287.111 58.3978 286.749 58.1834 286.767 58.1597C286.767 58.1597 287.151 58.3412 287.664 58.8963C288.156 59.451 288.762 60.4393 288.847 61.8076C288.876 62.4818 288.772 63.2455 288.419 63.9682C288.085 64.6859 287.551 65.3655 287.386 66.1999C287.216 67.0406 287.614 67.9065 288.045 68.7491C288.256 69.1789 288.48 69.6232 288.616 70.1174C288.752 70.6082 288.772 71.1628 288.622 71.6681C288.485 72.1758 288.258 72.6308 288.081 73.0857C287.9 73.5407 287.744 73.9981 287.623 74.4564C287.382 75.3722 287.254 76.2845 287.268 77.1533C287.274 78.8981 287.873 80.4232 288.693 81.4483C289.497 82.4976 290.447 83.0639 291.123 83.3432C291.806 83.6205 292.222 83.6621 292.217 83.6907Z" fill="#455A64"/>
<path d="M291.729 59.2704C291.731 59.2864 291.476 59.3324 291.008 59.3779C290.543 59.4161 289.855 59.4703 289.015 59.3256C288.194 59.1756 287.157 58.7729 286.499 57.7995C286.176 57.3112 286.049 56.7202 285.839 56.1748C285.641 55.623 285.259 55.1453 284.736 54.8142C283.677 54.1429 282.431 54.0606 281.342 53.928C280.247 53.8046 279.218 53.5723 278.521 53.0496C277.818 52.5496 277.458 51.901 277.366 51.4335C277.313 51.1992 277.317 51.0114 277.328 50.8875C277.345 50.7631 277.359 50.6997 277.368 50.7012C277.399 50.7017 277.334 50.9674 277.461 51.4093C277.578 51.8468 277.942 52.445 278.623 52.9034C279.294 53.3792 280.278 53.5868 281.369 53.6976C282.449 53.8196 283.739 53.8869 284.873 54.6027C285.433 54.9522 285.866 55.5001 286.069 56.0862C286.284 56.6621 286.405 57.2289 286.694 57.6742C287.284 58.5749 288.261 58.9868 289.049 59.1514C289.857 59.3145 290.538 59.2893 291.002 59.2811C291.469 59.2646 291.727 59.252 291.729 59.2704Z" fill="#455A64"/>
<path d="M290.532 55.3275C290.534 55.3396 290.336 55.4016 289.965 55.4108C289.596 55.4209 289.044 55.3556 288.437 55.0667C288.134 54.9229 287.823 54.7167 287.537 54.4413C287.247 54.1674 287.009 53.8131 286.787 53.4394C286.35 52.7033 285.93 51.7953 285.025 51.4202C284.138 51.0398 283.162 51.1245 282.313 51.1821C281.456 51.2663 280.653 51.2915 279.999 51.1627C279.339 51.048 278.845 50.775 278.57 50.5224C278.432 50.3975 278.338 50.2857 278.286 50.2029C278.232 50.1216 278.207 50.0771 278.214 50.0718C278.234 50.0563 278.35 50.2271 278.633 50.4464C278.914 50.6647 279.391 50.8984 280.028 50.987C280.666 51.0887 281.433 51.0485 282.293 50.9507C283.146 50.8834 284.152 50.776 285.127 51.1898C285.609 51.3945 286.003 51.7571 286.282 52.1496C286.567 52.5421 286.772 52.9521 286.987 53.3223C287.201 53.6931 287.42 54.0314 287.685 54.2927C287.946 54.5575 288.234 54.7608 288.517 54.9074C289.084 55.2022 289.609 55.2932 289.967 55.3125C290.327 55.3338 290.529 55.3058 290.532 55.3275Z" fill="#455A64"/>
<path d="M293.663 82.6476C293.639 82.6365 293.793 82.3248 293.971 81.729C294.148 81.1351 294.325 80.2426 294.294 79.1348C294.256 78.0346 293.992 76.7036 293.262 75.4389C292.908 74.8049 292.37 74.2406 291.932 73.5441C291.714 73.1966 291.527 72.8069 291.444 72.3757C291.363 71.944 291.413 71.4856 291.551 71.0694C291.823 70.234 292.309 69.5303 292.413 68.7622C292.543 67.9916 292.154 67.2889 291.786 66.6635C291.599 66.3451 291.412 66.0305 291.267 65.7013C291.122 65.3722 291.03 65.0257 290.994 64.6907C290.92 64.018 290.999 63.3999 291.048 62.8453C291.188 61.7398 291.086 60.8313 290.819 60.2733C290.561 59.7084 290.223 59.5391 290.247 59.5158C290.25 59.5124 290.27 59.5216 290.306 59.5439C290.342 59.5671 290.398 59.5976 290.46 59.6542C290.59 59.7593 290.762 59.9456 290.907 60.2307C291.213 60.7955 291.345 61.7456 291.226 62.8607C291.186 63.4178 291.121 64.0281 291.2 64.6656C291.265 65.3088 291.596 65.9158 291.985 66.5454C292.173 66.8639 292.372 67.1964 292.512 67.5739C292.655 67.9481 292.72 68.3759 292.657 68.796C292.54 69.6426 292.041 70.3589 291.791 71.1459C291.661 71.5389 291.619 71.9425 291.69 72.3307C291.763 72.7189 291.934 73.0804 292.141 73.4144C292.556 74.0833 293.097 74.6592 293.462 75.3233C294.205 76.6373 294.455 78.0066 294.471 79.1309C294.48 80.263 294.272 81.1666 294.064 81.759C293.955 82.0547 293.864 82.2812 293.785 82.4274C293.713 82.5755 293.671 82.6515 293.663 82.6476Z" fill="#455A64"/>
<path d="M273.944 172.831C273.944 172.831 270.684 141.931 270.497 130.513C270.31 119.095 275.63 107.83 275.63 107.83L296.482 106.948C296.482 106.948 300.604 118.533 300.678 123.399C300.821 132.856 298.165 142.194 298.471 149.696L299.168 172.831" fill="#263238"/>
<path d="M299.866 134.842C299.871 134.85 299.753 134.939 299.526 135.1C299.468 135.141 299.405 135.185 299.336 135.234C299.271 135.289 299.207 135.359 299.134 135.429C298.988 135.569 298.817 135.729 298.669 135.949C297.996 136.774 297.505 138.247 297.038 140.085C296.781 140.998 296.52 142.022 295.982 143.025C295.838 143.269 295.709 143.529 295.519 143.757C295.429 143.873 295.346 143.997 295.247 144.109L294.926 144.43C294.491 144.858 293.939 145.181 293.358 145.436C292.19 145.948 290.873 146.191 289.669 146.794C288.458 147.384 287.549 148.528 286.992 149.845C286.405 151.156 286.049 152.533 285.559 153.819C285.078 155.094 284.423 156.336 283.383 157.12C282.351 157.933 281.075 158.118 279.971 158.19C278.848 158.255 277.808 158.222 276.876 158.364C275.947 158.493 275.124 158.787 274.542 159.245C273.958 159.704 273.617 160.279 273.457 160.772C273.291 161.27 273.321 161.691 273.376 161.958C273.43 162.23 273.506 162.36 273.489 162.367C273.489 162.367 273.398 162.245 273.327 161.971C273.254 161.7 273.206 161.264 273.363 160.743C273.515 160.228 273.854 159.625 274.453 159.135C275.056 158.645 275.902 158.331 276.849 158.188C277.799 158.033 278.85 158.055 279.957 157.981C281.05 157.902 282.272 157.71 283.242 156.935C284.224 156.188 284.857 154.994 285.329 153.731C285.811 152.461 286.164 151.082 286.763 149.742C287.325 148.402 288.288 147.185 289.558 146.575C290.809 145.953 292.128 145.718 293.266 145.223C293.833 144.978 294.359 144.673 294.775 144.268L295.083 143.964C295.179 143.858 295.259 143.739 295.347 143.628C295.53 143.412 295.657 143.161 295.799 142.926C296.329 141.958 296.599 140.945 296.867 140.038C297.354 138.21 297.88 136.713 298.592 135.889C298.749 135.669 298.929 135.511 299.084 135.374C299.161 135.306 299.228 135.238 299.297 135.185C299.369 135.139 299.436 135.097 299.497 135.058C299.736 134.908 299.862 134.834 299.866 134.842Z" fill="#FAFAFA"/>
<path d="M299.995 120.542C300.004 120.541 300.013 120.683 300.022 120.955C300.026 121.227 299.993 121.631 299.877 122.138C299.635 123.145 298.899 124.529 297.522 125.78C296.841 126.409 296.019 127.016 295.079 127.564C294.145 128.119 293.114 128.646 292.058 129.243C291.006 129.841 289.921 130.518 288.967 131.416C288.001 132.304 287.278 133.471 286.626 134.706C285.968 135.939 285.385 137.195 284.596 138.282C284.204 138.825 283.762 139.321 283.273 139.746C282.78 140.167 282.244 140.509 281.699 140.794C280.605 141.362 279.491 141.713 278.458 142.036C277.424 142.356 276.459 142.639 275.615 142.993C274.77 143.341 274.038 143.736 273.446 144.154C272.854 144.574 272.404 145.013 272.085 145.41C271.44 146.209 271.304 146.787 271.268 146.768C271.259 146.765 271.306 146.63 271.402 146.375C271.514 146.128 271.687 145.76 272.007 145.349C272.32 144.936 272.769 144.477 273.363 144.04C273.957 143.604 274.694 143.192 275.545 142.829C276.396 142.46 277.366 142.165 278.395 141.837C279.422 141.506 280.524 141.149 281.59 140.589C282.121 140.308 282.641 139.973 283.115 139.564C283.586 139.151 284.013 138.67 284.395 138.138C285.163 137.075 285.741 135.829 286.403 134.588C287.056 133.347 287.801 132.147 288.797 131.236C289.777 130.318 290.881 129.637 291.943 129.041C293.008 128.446 294.04 127.926 294.972 127.384C295.907 126.849 296.721 126.26 297.4 125.649C298.771 124.432 299.513 123.094 299.781 122.113C300.043 121.122 299.956 120.539 299.995 120.542Z" fill="#FAFAFA"/>
<path d="M270.6 132.149C270.596 132.15 270.582 132.119 270.558 132.055C270.537 131.991 270.493 131.897 270.464 131.767C270.405 131.508 270.368 131.1 270.513 130.607C270.782 129.621 271.852 128.395 273.578 127.781C274.436 127.486 275.41 127.308 276.425 127.042C277.428 126.772 278.52 126.394 279.336 125.555C279.742 125.141 280.084 124.648 280.369 124.107C280.647 123.56 280.876 122.974 281.092 122.368C281.526 121.161 281.89 119.849 282.627 118.657C283.358 117.455 284.55 116.62 285.784 116.202C287.014 115.75 288.255 115.55 289.407 115.284C290.561 115.033 291.641 114.707 292.557 114.211C293.46 113.698 294.179 113.015 294.689 112.291C295.733 110.84 296.006 109.353 296.044 108.37C296.066 107.372 295.908 106.828 295.941 106.823C295.941 106.823 296.134 107.358 296.141 108.372C296.134 109.37 295.885 110.892 294.834 112.394C294.321 113.143 293.589 113.855 292.659 114.394C291.72 114.913 290.618 115.251 289.459 115.51C288.302 115.783 287.068 115.989 285.87 116.433C284.665 116.848 283.546 117.638 282.841 118.791C282.13 119.939 281.764 121.237 281.325 122.451C281.106 123.061 280.871 123.657 280.583 124.218C280.287 124.776 279.928 125.289 279.5 125.72C278.634 126.599 277.492 126.981 276.478 127.245C275.449 127.505 274.48 127.671 273.634 127.95C271.956 128.523 270.891 129.698 270.607 130.636C270.454 131.106 270.473 131.501 270.515 131.757C270.568 132.012 270.611 132.145 270.6 132.149Z" fill="#FAFAFA"/>
<path d="M298.206 158.275C298.215 158.274 298.226 158.378 298.239 158.579C298.251 158.779 298.235 159.078 298.15 159.452C297.979 160.198 297.403 161.218 296.321 162.068C295.788 162.497 295.143 162.892 294.402 163.207C293.662 163.524 292.846 163.775 291.992 164.041C291.139 164.307 290.244 164.585 289.375 164.997C288.498 165.398 287.689 165.985 286.992 166.734C286.286 167.474 285.677 168.282 285.001 168.995C284.329 169.713 283.564 170.304 282.771 170.74C281.178 171.62 279.526 171.922 278.168 171.937C276.798 171.952 275.712 171.665 274.999 171.411C274.64 171.285 274.373 171.16 274.196 171.066C274.016 170.977 273.925 170.926 273.929 170.918C273.933 170.911 274.032 170.946 274.216 171.02C274.399 171.098 274.67 171.208 275.03 171.318C275.745 171.54 276.82 171.796 278.164 171.759C279.497 171.721 281.11 171.406 282.656 170.537C283.428 170.104 284.164 169.53 284.82 168.825C285.482 168.122 286.089 167.315 286.809 166.56C287.518 165.796 288.37 165.178 289.268 164.773C290.161 164.355 291.068 164.079 291.923 163.819C292.779 163.559 293.592 163.317 294.32 163.015C295.047 162.715 295.683 162.339 296.21 161.928C297.28 161.116 297.859 160.145 298.055 159.428C298.246 158.702 298.171 158.274 298.206 158.275Z" fill="#FAFAFA"/>
<path d="M295.823 94.1207L291.79 94.2161C291.526 95.5742 290.878 96.5035 290.878 96.5035C287.507 90.6509 284.893 82.8101 284.244 79.6588C284.338 79.3442 284.45 78.9957 284.59 78.6066C284.751 78.1575 284.613 77.3066 284.537 76.8347C284.424 76.1329 284.228 75.1891 284.169 74.752C283.989 73.4205 283.775 73.2115 283.31 73.362C282.679 73.5667 283.569 77.1014 283.051 77.1783C282.773 77.2195 282.433 76.0085 282.334 75.0148C282.235 74.0212 281.786 70.9647 281.457 70.761C280.976 70.4623 280.556 70.9347 280.678 71.924C280.801 72.9254 280.956 75.9122 280.431 75.9523C279.913 75.992 279.479 70.925 279.479 70.925C279.479 70.925 279.561 69.8225 278.953 69.8491C277.856 69.8965 278.714 75.2389 278.807 75.7452C278.873 76.0971 278.303 76.1619 278.253 75.7796C278.202 75.3861 277.937 70.7121 276.821 70.7493C275.963 70.7784 277.484 75.1518 277.003 76.1658C276.522 77.1793 276.188 72.7226 275.37 72.7841C275.065 72.8073 274.84 72.8668 275.4 75.389C275.7 76.7447 276.584 79.2368 277.356 81.3005C278.653 88.2943 284.343 110.668 293.265 106.572C298.258 104.28 300.283 94.1236 300.283 94.1236L295.823 94.1207Z" fill="#B78876"/>
<path d="M278.617 76.0868C278.617 76.0868 278.658 76.0941 278.733 76.0708C278.802 76.05 278.937 75.9648 278.915 75.7911C278.904 75.491 278.857 75.053 278.787 74.4872C278.735 73.9175 278.565 73.2341 278.565 72.4253C278.558 72.0202 278.568 71.5846 278.592 71.1229C278.607 70.892 278.611 70.6525 278.662 70.4259C278.7 70.2067 278.847 69.956 279.016 69.986L279.034 69.9894L279.042 69.9889C279.215 69.9811 279.349 70.1152 279.404 70.3204C279.465 70.5164 279.48 70.7478 279.468 70.9685L279.467 70.9777L279.468 70.984C279.581 72.2221 279.703 73.5777 279.985 75.0249C280.024 75.2059 280.064 75.3879 280.121 75.5713C280.149 75.6628 280.181 75.7553 280.221 75.8487C280.247 75.8966 280.264 75.9421 280.304 75.9919C280.338 76.034 280.382 76.1076 280.506 76.1188C280.707 76.1037 280.765 75.9518 280.81 75.8646C280.854 75.7645 280.881 75.6652 280.901 75.567C280.942 75.37 280.963 75.1735 280.979 74.976C281.032 74.1866 281.004 73.3812 280.946 72.5551C280.927 72.1374 280.825 71.7211 280.896 71.3426C280.929 71.1563 281.007 70.9685 281.134 70.8911C281.196 70.8533 281.266 70.8456 281.342 70.8649C281.38 70.8761 281.419 70.8916 281.457 70.9148C281.489 70.9453 281.482 70.9317 281.511 70.9859C281.673 71.3325 281.756 71.7836 281.847 72.2027C281.932 72.631 282.007 73.0676 282.075 73.509C282.143 73.9504 282.206 74.3972 282.258 74.8473C282.302 75.2969 282.367 75.7693 282.482 76.2238C282.54 76.4527 282.604 76.6812 282.7 76.9077C282.749 77.0214 282.8 77.1337 282.899 77.2499C282.935 77.2992 283.048 77.3917 283.189 77.3554C283.326 77.3099 283.364 77.2015 283.387 77.1381C283.465 76.8598 283.442 76.6284 283.438 76.385C283.428 76.1449 283.407 75.9072 283.388 75.6701C283.353 75.2626 283.314 74.8594 283.301 74.462C283.294 74.2641 283.294 74.0661 283.315 73.8798C283.327 73.7888 283.343 73.6949 283.374 73.6276C283.389 73.5932 283.407 73.5681 283.421 73.5555C283.428 73.5477 283.433 73.5511 283.439 73.5434L283.502 73.5255C283.823 73.3929 283.93 73.8396 284.015 74.1997C284.09 74.5753 284.137 74.963 284.212 75.3448C284.34 76.1071 284.503 76.8646 284.587 77.593C284.622 77.9536 284.648 78.3287 284.545 78.6346C284.43 78.9845 284.317 79.3306 284.205 79.6728L284.195 79.7037L284.202 79.7362C284.792 82.3386 285.609 84.6672 286.368 86.7343C287.134 88.7996 287.9 90.5845 288.576 92.0438C289.25 93.505 289.855 94.6303 290.273 95.3984C290.485 95.7624 290.652 96.0499 290.777 96.2638C290.894 96.4589 290.957 96.5581 290.964 96.5547C290.97 96.5508 290.919 96.4443 290.815 96.2425C290.7 96.0242 290.545 95.7299 290.349 95.3582C289.955 94.579 289.374 93.445 288.722 91.978C288.068 90.5124 287.323 88.7245 286.574 86.6588C285.833 84.5941 285.03 82.2593 284.456 79.6839L284.453 79.7473C284.565 79.4095 284.678 79.0682 284.793 78.7232C284.923 78.3282 284.885 77.9425 284.852 77.5649C284.766 76.808 284.607 76.0723 284.481 75.3066C284.406 74.9281 284.36 74.5395 284.283 74.1426C284.237 73.9446 284.194 73.7452 284.085 73.5434C284.033 73.4456 283.951 73.3343 283.818 73.2743C283.683 73.2157 283.544 73.2322 283.436 73.2588L283.355 73.282C283.318 73.2985 283.273 73.3178 283.245 73.3445C283.183 73.3982 283.148 73.4597 283.122 73.5168C283.072 73.6329 283.057 73.7399 283.042 73.8473C283.018 74.0598 283.019 74.2665 283.025 74.4717C283.039 74.8821 283.079 75.2882 283.113 75.6943C283.133 75.9305 283.153 76.1657 283.163 76.3975C283.171 76.6236 283.179 76.8733 283.127 77.048C283.115 77.0989 283.091 77.0892 283.119 77.1139L283.12 77.1163C283.118 77.0998 283.124 77.141 283.123 77.1342L283.122 77.1293C283.121 77.1231 283.122 77.1172 283.123 77.1124C283.126 77.108 283.136 77.0911 283.13 77.0901C283.127 77.0887 283.115 77.0824 283.101 77.0635C283.048 77.002 282.995 76.9014 282.953 76.8012C282.867 76.5984 282.803 76.3782 282.748 76.1589C282.636 75.7151 282.574 75.2747 282.529 74.8173C282.475 74.3618 282.412 73.9132 282.342 73.4688C282.272 73.0245 282.196 72.5851 282.108 72.1514C282.009 71.7148 281.944 71.2952 281.741 70.8591C281.728 70.8151 281.642 70.7173 281.589 70.6888C281.534 70.6563 281.473 70.6312 281.409 70.6128C281.278 70.5769 281.119 70.5934 280.999 70.6694C280.759 70.8281 280.685 71.0803 280.641 71.2991C280.602 71.5246 280.608 71.7473 280.633 71.9622C280.657 72.1688 280.677 72.3711 280.694 72.5759C280.755 73.3909 280.785 74.1929 280.738 74.9596C280.724 75.1507 280.704 75.34 280.668 75.5186C280.65 75.6081 280.625 75.6948 280.594 75.7693C280.578 75.8061 280.559 75.8404 280.541 75.8598C280.524 75.9 280.508 75.8506 280.51 75.916C280.534 75.8661 280.511 75.8937 280.492 75.8521C280.471 75.8293 280.454 75.7858 280.434 75.7519C280.4 75.673 280.37 75.5897 280.343 75.5036C280.289 75.3318 280.248 75.1537 280.209 74.978C279.922 73.5565 279.787 72.1974 279.662 70.968V70.9835C279.673 70.7347 279.656 70.4971 279.583 70.2638C279.547 70.1491 279.492 70.032 279.394 69.9415C279.298 69.848 279.159 69.8064 279.035 69.8103L279.062 69.8132C278.868 69.7788 278.726 69.8964 278.645 70.0131C278.562 70.1331 278.525 70.2633 278.496 70.3892C278.443 70.6433 278.444 70.8848 278.431 71.1166C278.415 71.5822 278.411 72.0202 278.424 72.4297C278.44 73.2554 278.626 73.9388 278.691 74.5017C278.776 75.0641 278.838 75.5007 278.866 75.795C278.896 75.9348 278.783 76.0249 278.724 76.0486C278.656 76.0766 278.616 76.081 278.617 76.0868Z" fill="#A36957"/>
<path d="M247.098 100.786C247.098 100.786 245.759 100.722 244.295 101.107C241.795 101.765 237.48 104.379 237.302 107.61H240.436C240.436 107.61 238.681 111.346 239.197 111C240.534 110.103 243.198 107.396 243.198 107.396L247.098 100.786Z" fill="#B78876"/>
<path d="M289.851 44.5505C289.781 44.5568 289.497 41.9655 289.215 38.7638C288.933 35.5607 288.762 32.9602 288.831 32.9544C288.9 32.9481 289.185 35.5389 289.466 38.742C289.748 41.9432 289.92 44.5442 289.851 44.5505Z" fill="#263238"/>
<path d="M303.593 33.1115C303.65 33.1517 301.532 36.2251 298.865 39.9746C296.196 43.7256 293.987 46.7327 293.93 46.6925C293.873 46.6523 295.99 43.5794 298.659 39.8284C301.327 36.0789 303.536 33.0713 303.593 33.1115Z" fill="#263238"/>
<path d="M309.308 47.0377C309.322 47.1059 306.851 47.6712 303.79 48.3004C300.727 48.9296 298.234 49.3846 298.22 49.3164C298.206 49.2481 300.677 48.6828 303.739 48.0536C306.801 47.4249 309.294 46.9699 309.308 47.0377Z" fill="#263238"/>
<path d="M144.701 113.519L127.586 201.51L125.346 213.029L239.6 212.465C244.728 212.44 249.272 207.887 250.922 201.123L271.182 118.05C272.434 112.915 269.686 107.574 265.793 107.578L150.155 107.7C147.601 107.703 145.369 110.085 144.701 113.519Z" fill="#E8505B"/>
<g opacity="0.5">
<path d="M144.701 113.519L127.586 201.51L125.346 213.029L239.6 212.465C244.728 212.44 249.272 207.887 250.922 201.123L271.182 118.05C272.434 112.915 269.686 107.574 265.793 107.578L150.155 107.7C147.601 107.703 145.369 110.085 144.701 113.519Z" fill="black"/>
</g>
<path d="M228.637 195.549L216.54 98.0674C216.044 94.0729 212.862 91.0934 209.105 91.106L182.579 91.1926C180.616 91.1989 178.734 92.0338 177.339 93.5163L164.743 106.906L90.9688 107.291C86.4603 107.315 82.9968 111.58 83.5946 116.373L94.8263 206.471C95.3234 210.46 98.4994 213.436 102.251 213.428L230.824 213.174C245.144 213.47 246.511 209.241 246.511 209.241C230.1 212.878 228.638 195.56 228.637 195.549Z" fill="#E8505B"/>
<g opacity="0.5">
<path d="M173.196 176.038L168.859 180.695L135.462 150.651L139.799 145.994L173.196 176.038Z" fill="white"/>
<path d="M167.041 144.962L171.833 149.273L141.615 181.728L136.822 177.417L167.041 144.962Z" fill="white"/>
</g>
<path d="M247.001 50.2316C246.692 50.099 246.47 49.7985 246.454 49.4398L246.261 44.9464C246.248 44.6637 246.369 44.3917 246.587 44.2116C246.805 44.0311 247.095 43.9638 247.37 44.0287C248.092 44.1991 248.889 44.0418 249.555 43.597C250.169 43.1875 250.581 42.5844 250.685 41.9422C250.79 41.3023 250.592 40.5942 250.142 39.9989C249.66 39.3615 248.949 38.9322 248.235 38.8504C246.777 38.6824 245.204 39.799 244.799 41.2888C244.668 41.7699 244.172 42.0545 243.691 41.9233C243.201 41.7887 242.925 41.296 243.056 40.8149C243.692 38.4733 246.108 36.7871 248.442 37.0557C249.652 37.1951 250.798 37.8708 251.582 38.9094C252.329 39.8968 252.651 41.1078 252.468 42.2326C252.283 43.3676 251.587 44.412 250.558 45.0988C249.814 45.5949 248.962 45.8689 248.109 45.8984L248.259 49.3619C248.28 49.8604 247.893 50.2815 247.395 50.3028C247.255 50.3091 247.122 50.2829 247.001 50.2316Z" fill="#E8505B"/>
<path d="M248.321 52.0711C248.349 52.4782 248.041 52.831 247.634 52.8586C247.227 52.8867 246.875 52.5793 246.847 52.1723C246.818 51.7653 247.126 51.4124 247.533 51.3843C247.94 51.3563 248.293 51.6641 248.321 52.0711Z" fill="#E8505B"/>
<path d="M231.451 43.8968C231.457 43.8968 231.472 43.7971 231.495 43.602C231.517 43.3915 231.549 43.105 231.589 42.7367C231.611 42.3538 231.709 41.8911 231.824 41.3456C231.888 41.0746 231.92 40.7731 232.02 40.4681C232.114 40.1613 232.214 39.8356 232.32 39.491C232.788 38.1319 233.511 36.5018 234.727 34.8804C235.934 33.2624 237.631 31.6637 239.81 30.4527C240.883 29.8129 242.11 29.3671 243.396 28.9736C244.702 28.6644 246.087 28.3991 247.534 28.4335C248.257 28.3948 248.987 28.5008 249.73 28.5632C250.101 28.5985 250.467 28.6978 250.84 28.7626C251.213 28.8313 251.588 28.9044 251.954 29.0312C253.448 29.4146 254.899 30.1193 256.283 30.9929C259.059 32.7396 261.398 35.5817 262.68 39.0268C263.323 40.7503 263.631 42.6399 263.629 44.5483C263.667 46.4606 263.297 48.4028 262.616 50.2314L262.398 50.7841L262.369 50.8572L262.399 50.9255C263.613 53.7215 264.803 56.4639 265.957 59.121L266.161 58.8897C263.661 57.9294 261.237 56.9982 258.912 56.1047L258.823 56.0704L258.752 56.1386C256.741 58.0872 254.339 59.4042 251.908 60.0905C249.468 60.7782 247.012 60.8136 244.777 60.4162C242.537 60.0198 240.521 59.1631 238.84 58.062C237.153 56.9609 235.801 55.6222 234.759 54.2617C233.724 52.8861 233.042 51.4758 232.527 50.2159C232.074 48.9285 231.797 47.7857 231.662 46.84C231.605 46.3676 231.554 45.9475 231.51 45.5811C231.5 45.2191 231.493 44.9113 231.486 44.6562C231.478 44.4186 231.472 44.2308 231.467 44.0894C231.461 43.9621 231.456 43.8968 231.451 43.8968C231.447 43.8968 231.443 43.9612 231.439 44.089C231.437 44.2308 231.435 44.4181 231.432 44.6572C231.432 44.9132 231.431 45.2234 231.431 45.5874C231.468 45.9567 231.511 46.3802 231.559 46.8565C231.678 47.8114 231.942 48.9682 232.386 50.2745C232.891 51.5527 233.568 52.9868 234.605 54.3885C235.65 55.7751 237.011 57.1419 238.715 58.2697C240.415 59.3974 242.458 60.2787 244.731 60.6921C246.999 61.1054 249.497 61.0798 251.981 60.3876C254.458 59.6975 256.909 58.3621 258.963 56.3796L258.803 56.4135C261.127 57.3104 263.549 58.2455 266.048 59.2096L266.413 59.3504L266.252 58.9782C265.1 56.3201 263.911 53.5773 262.699 50.7807L262.699 50.9216L262.923 50.3567C263.619 48.488 263.996 46.5012 263.956 44.5468C263.958 42.5963 263.64 40.6646 262.981 38.9043C261.667 35.3852 259.275 32.4933 256.442 30.7209C255.031 29.8342 253.551 29.1227 252.03 28.7365C251.657 28.6092 251.276 28.5361 250.896 28.4674C250.517 28.4025 250.145 28.3033 249.767 28.2684C249.011 28.2079 248.27 28.1039 247.535 28.146C246.064 28.1179 244.658 28.3928 243.334 28.7147C242.029 29.1208 240.786 29.5811 239.701 30.2364C237.499 31.4788 235.79 33.1123 234.582 34.7613C233.366 36.4132 232.653 38.0699 232.199 39.4474C232.098 39.7964 232.001 40.1269 231.911 40.4372C231.816 40.746 231.787 41.0504 231.728 41.3243C231.623 41.8761 231.535 42.3427 231.524 42.7284C231.497 43.0987 231.477 43.3881 231.461 43.5996C231.449 43.7961 231.446 43.8963 231.451 43.8968Z" fill="#263238"/>
<path d="M36.8035 195.202C36.8035 195.202 34.1739 177.123 34.3928 166.604C34.6118 156.085 34.38 144.252 34.38 144.252H35.5917C35.5917 144.252 34.7711 165.131 35.6642 177.723C36.5567 190.306 38.9077 195.203 38.9077 195.203L36.8035 195.202Z" fill="#263238"/>
<path d="M44.6383 123.909C44.3948 123.291 44.0951 122.648 43.5341 122.293C42.7653 121.805 41.7575 122.008 40.8995 122.312C37.2381 123.607 33.9924 130.433 32.5127 134.023L37.3735 150.401C46.1475 142.263 47.6668 131.584 44.6383 123.909Z" fill="#455A64"/>
<path d="M43.2495 122.956C43.2556 122.959 43.2311 123.033 43.1788 123.17C43.1164 123.327 43.0372 123.525 42.9409 123.767C42.7275 124.282 42.4289 125.032 42.0712 125.962C41.3548 127.822 40.4433 130.422 39.6283 133.352C38.8165 136.283 38.2572 138.981 37.9123 140.944C37.7391 141.926 37.6087 142.722 37.5257 143.274C37.4834 143.531 37.4494 143.741 37.4221 143.908C37.3965 144.053 37.3792 144.128 37.3725 144.127C37.3658 144.127 37.3692 144.049 37.382 143.903C37.3992 143.735 37.4215 143.523 37.4483 143.263C37.5073 142.708 37.6165 141.907 37.7725 140.921C38.0823 138.949 38.621 136.238 39.4349 133.299C40.2522 130.362 41.1876 127.761 41.9392 125.911C42.3141 124.986 42.6333 124.243 42.869 123.737C42.9799 123.501 43.0701 123.308 43.142 123.155C43.2066 123.022 43.2434 122.954 43.2495 122.956Z" fill="#263238"/>
<path d="M35.2134 154.332C30.6573 151.815 27.972 147.079 27.7213 141.879C27.5463 138.245 28.6628 134.678 29.928 131.267C30.0378 130.971 30.1681 130.652 30.4428 130.496C30.825 130.28 31.303 130.472 31.6846 130.69C34.9955 132.575 37.0011 136.169 38.0686 139.826C38.7789 142.26 39.1466 144.826 38.8179 147.34C38.4897 149.853 37.0529 152.588 35.2134 154.332Z" fill="#455A64"/>
<path d="M35.2104 154.328C35.2032 154.328 35.1976 154.252 35.1926 154.108C35.1893 153.942 35.1854 153.734 35.1804 153.48C35.1787 152.934 35.157 152.145 35.1118 151.171C35.0244 149.223 34.7687 146.538 34.2661 143.605C33.7603 140.671 33.1474 138.044 32.6956 136.146C32.4728 135.216 32.29 134.455 32.1563 133.897C32.0995 133.649 32.0533 133.446 32.0159 133.284C31.9859 133.143 31.9736 133.069 31.9803 133.067C31.987 133.065 32.0126 133.137 32.0549 133.274C32.1017 133.433 32.1597 133.633 32.2316 133.878C32.3814 134.403 32.5881 135.166 32.8327 136.112C33.3202 138.003 33.9564 140.629 34.4634 143.571C34.9675 146.513 35.2015 149.211 35.2533 151.166C35.2801 152.143 35.2806 152.935 35.2578 153.481C35.2472 153.736 35.2389 153.944 35.2322 154.11C35.2249 154.252 35.2171 154.328 35.2104 154.328Z" fill="#263238"/>
<g opacity="0.3">
<path d="M35.2153 154.333C30.6592 151.816 27.9739 147.08 27.7232 141.88C27.5483 138.245 28.6647 134.679 29.93 131.268C30.0397 130.972 30.1701 130.652 30.4447 130.497C30.8269 130.28 31.3049 130.473 31.6865 130.69C34.9975 132.576 37.0031 136.17 38.0705 139.827C38.7808 142.261 39.1485 144.827 38.8198 147.34C38.4917 149.854 37.0549 152.589 35.2153 154.333Z" fill="black"/>
</g>
<path d="M40.3535 181.992C44.8377 182.977 48.5297 186.139 52.8557 187.678C55.7182 188.695 58.955 189.055 61.2397 191.057C60.6915 189.672 59.3912 188.75 58.1283 187.961C54.5705 185.739 50.761 183.92 46.7965 182.552C44.7614 181.849 42.553 181.262 40.4789 181.84" fill="#455A64"/>
<path d="M33.8704 185.987C28.2547 185.896 22.342 181.115 16.752 180.829C22.6017 178.941 30.9773 180.484 33.8704 185.987Z" fill="#455A64"/>
<path d="M36.0645 172.515C38.9163 171.487 42.0473 171.438 45.0424 171.904C48.0374 172.369 50.9305 173.329 53.8069 174.286C53.5189 172.338 51.9405 170.872 50.4586 169.575C49.3433 168.599 48.219 167.618 46.9393 166.87C45.6596 166.123 44.1994 165.617 42.7186 165.68C40.9325 165.755 39.2316 166.677 38.06 168.027C36.8884 169.379 36.2583 170.738 36.0645 172.515Z" fill="#455A64"/>
<path d="M24.5368 166.314C21.0019 163.296 15.6475 163.59 11 163.695C18.1433 167.111 25.841 171.793 31.9932 176.777C32.1821 173.492 29.002 170.126 24.5368 166.314Z" fill="#455A64"/>
<g opacity="0.3">
<path d="M24.5368 166.31C21.0019 163.292 15.6475 163.587 11 163.692C18.1433 167.108 25.841 171.79 31.9932 176.774C32.1821 173.489 29.002 170.123 24.5368 166.31Z" fill="black"/>
</g>
<path d="M37.6547 162.15C39.4325 160.965 41.2308 159.835 43.091 158.99C44.9518 158.144 46.6878 156.797 48.4845 155.825C50.8149 154.563 52.8333 152.809 54.9721 151.245C57.1108 149.68 59.4602 148.268 62.0775 147.854C59.9432 147.414 57.7131 147.654 55.6111 148.228C53.5085 148.802 51.5118 149.701 49.5246 150.596C46.7669 151.838 43.9612 153.111 41.7072 155.127C39.4542 157.144 37.4168 159.134 37.6547 162.15Z" fill="#455A64"/>
<path d="M52.7552 185.985C52.7519 185.991 52.6906 185.965 52.5775 185.908C52.4449 185.84 52.2833 185.756 52.0872 185.654C51.6644 185.429 51.0571 185.095 50.2928 184.712C49.9145 184.512 49.495 184.303 49.0398 184.09C48.5897 183.866 48.0999 183.645 47.5818 183.421C46.545 182.978 45.3868 182.516 44.1238 182.216C42.8647 181.907 41.6101 181.84 40.5215 182.125C39.9722 182.258 39.4552 182.389 38.995 182.581C38.5332 182.768 38.1215 182.987 37.7627 183.213C37.0429 183.666 36.5404 184.147 36.2145 184.493C35.8891 184.841 35.7309 185.054 35.7164 185.044C35.7108 185.04 35.7454 184.983 35.8172 184.878C35.8874 184.773 36.0011 184.624 36.1565 184.44C36.4679 184.075 36.9632 183.571 37.6858 183.094C38.0463 182.856 38.4624 182.625 38.9315 182.427C39.4 182.224 39.9287 182.084 40.4781 181.945C41.5906 181.641 42.8948 181.706 44.1689 182.021C45.4514 182.326 46.6158 182.797 47.6548 183.252C48.174 183.482 48.6632 183.709 49.1117 183.941C49.5657 184.161 49.9824 184.378 50.3574 184.586C51.1156 184.988 51.7134 185.341 52.1245 185.587C52.3128 185.702 52.4688 185.796 52.5964 185.874C52.7039 185.941 52.7585 185.979 52.7552 185.985Z" fill="#263238"/>
<path d="M29.6809 183.203C29.6859 183.19 29.8107 183.227 30.0325 183.306C30.2559 183.382 30.5701 183.516 30.9472 183.704C31.7027 184.076 32.6971 184.712 33.6303 185.606C34.5612 186.503 35.2359 187.472 35.6393 188.211C35.842 188.581 35.9891 188.89 36.0732 189.11C36.1607 189.329 36.2031 189.452 36.1902 189.457C36.1579 189.472 35.9485 188.996 35.5167 188.283C35.0872 187.57 34.4064 186.633 33.4916 185.751C32.574 184.873 31.6108 184.23 30.8809 183.829C30.1517 183.426 29.6681 183.236 29.6809 183.203Z" fill="#263238"/>
<path d="M17.2569 166.034C17.2591 166.028 17.3416 166.052 17.4964 166.105C17.6703 166.167 17.8937 166.247 18.1706 166.345C18.4697 166.455 18.8252 166.586 19.2335 166.737C19.6475 166.891 20.0976 167.118 20.6063 167.342C22.628 168.26 25.3189 169.804 27.9173 172C29.1986 173.115 30.3574 174.249 31.3263 175.357C32.2917 176.467 33.109 177.511 33.7458 178.423C34.387 179.331 34.8734 180.088 35.2066 180.611C35.3642 180.859 35.4918 181.058 35.591 181.213C35.6779 181.352 35.7213 181.426 35.7158 181.43C35.7102 181.434 35.6562 181.367 35.5581 181.236C35.46 181.105 35.3174 180.91 35.1419 180.654C34.7887 180.143 34.2851 179.4 33.631 178.505C32.9814 177.608 32.1564 176.577 31.1881 175.479C30.2165 174.384 29.0605 173.261 27.7869 172.152C25.2041 169.97 22.5439 168.417 20.5455 167.469C20.0425 167.238 19.5984 167.003 19.1901 166.839C18.7878 166.677 18.438 166.536 18.1427 166.417C17.8719 166.304 17.653 166.213 17.4831 166.142C17.3326 166.078 17.2547 166.04 17.2569 166.034Z" fill="#263238"/>
<path d="M44.4886 169.357C44.4847 169.371 44.3254 169.35 44.0407 169.299C43.8864 169.271 43.7148 169.239 43.5248 169.204C43.3243 169.165 43.0897 169.165 42.8351 169.138C41.8251 169.064 40.3543 169.148 38.9754 169.899C38.2802 170.252 37.6963 170.726 37.2194 171.203C36.7347 171.675 36.3676 172.168 36.0901 172.598C35.5269 173.461 35.3525 174.083 35.3185 174.072C35.3074 174.069 35.3392 173.91 35.4327 173.634C35.5358 173.362 35.6951 172.967 35.9704 172.523C36.2367 172.076 36.5999 171.564 37.0885 171.073C37.5698 170.578 38.166 170.085 38.8824 169.722C40.3042 168.947 41.8262 168.886 42.8479 168.997C43.1064 169.033 43.3432 169.044 43.5443 169.094C43.7343 169.142 43.9048 169.185 44.0586 169.224C44.3393 169.297 44.492 169.344 44.4886 169.357Z" fill="#263238"/>
<path d="M50.1376 151.851C50.1409 151.857 50.0674 151.903 49.9253 151.982C49.7637 152.07 49.5559 152.183 49.2986 152.323C48.7537 152.616 47.9698 153.049 47.0172 153.611C46.0695 154.179 44.9525 154.878 43.7642 155.727C42.5792 156.578 41.3068 157.568 40.1318 158.77C39.5524 159.375 39.0187 160.006 38.646 160.694C38.2783 161.4 37.9267 162.083 37.6031 162.738C36.9535 164.048 36.4248 165.254 36.0431 166.29C35.6621 167.327 35.4247 168.19 35.2843 168.791C35.1406 169.392 35.0888 169.731 35.0687 169.728C35.062 169.727 35.0698 169.642 35.091 169.48C35.1111 169.317 35.1456 169.079 35.2075 168.775C35.3256 168.165 35.5434 167.291 35.9094 166.242C36.2766 165.194 36.7947 163.975 37.437 162.657C37.7568 161.997 38.1056 161.312 38.471 160.604C38.8577 159.885 39.3997 159.245 39.9869 158.631C41.1758 157.415 42.4594 156.425 43.6561 155.577C44.8561 154.732 45.9848 154.043 46.9447 153.488C47.9091 152.941 48.7052 152.526 49.2618 152.254C49.5264 152.128 49.7398 152.026 49.9058 151.947C50.0557 151.877 50.1348 151.845 50.1376 151.851Z" fill="#263238"/>
<path d="M34.3897 168.852C34.3757 168.854 34.3367 168.685 34.2782 168.378C34.2125 168.032 34.1306 167.597 34.0326 167.081C33.8186 165.988 33.4916 164.482 32.9707 162.867C32.4542 161.249 31.8258 159.841 31.3668 158.826C31.1489 158.348 30.9656 157.945 30.8191 157.624C30.6915 157.339 30.6269 157.179 30.6392 157.172C30.6514 157.166 30.74 157.315 30.8893 157.59C31.0386 157.864 31.2481 158.264 31.4949 158.766C31.9874 159.767 32.6409 161.175 33.1612 162.805C33.686 164.433 33.993 165.952 34.1718 167.055C34.2599 167.607 34.3228 168.055 34.3551 168.366C34.3908 168.677 34.4036 168.85 34.3897 168.852Z" fill="#263238"/>
<path d="M33.9822 156.075C33.8413 153.954 33.1499 151.892 32.156 150.013C29.43 144.859 24.3074 141.039 18.5908 139.897C22.777 146.136 26.9631 152.376 31.1499 158.615L32.7716 161.956C33.8775 160.14 34.1232 158.197 33.9822 156.075Z" fill="#455A64"/>
<path d="M51.9987 192.964H22.7959V198.14H51.9987V192.964Z" fill="#E8505B"/>
<path d="M24.9736 197.114L27.46 213.175H46.8471L49.8143 197.114H24.9736Z" fill="#E8505B"/>
<path d="M51.9795 198.145C51.9795 198.202 45.3922 198.247 37.2689 198.247C29.1423 198.247 22.5566 198.202 22.5566 198.145C22.5566 198.088 29.1423 198.042 37.2689 198.042C45.3922 198.042 51.9795 198.088 51.9795 198.145Z" fill="#263238"/>
<path d="M327.803 195.202C327.803 195.202 325.174 177.123 325.393 166.604C325.612 156.085 325.38 144.252 325.38 144.252H326.592C326.592 144.252 325.771 165.131 326.664 177.723C327.557 190.306 329.908 195.203 329.908 195.203L327.803 195.202Z" fill="#263238"/>
<path d="M335.638 123.909C335.395 123.291 335.095 122.648 334.534 122.293C333.765 121.805 332.757 122.008 331.899 122.312C328.238 123.607 324.992 130.433 323.513 134.023L328.374 150.401C337.148 142.263 338.667 131.584 335.638 123.909Z" fill="#455A64"/>
<path d="M334.25 122.956C334.256 122.959 334.231 123.033 334.179 123.17C334.116 123.327 334.037 123.525 333.941 123.767C333.727 124.282 333.429 125.032 333.071 125.962C332.355 127.822 331.443 130.422 330.628 133.352C329.817 136.283 329.257 138.981 328.912 140.944C328.739 141.926 328.609 142.722 328.526 143.274C328.483 143.531 328.449 143.741 328.422 143.908C328.396 144.053 328.379 144.128 328.373 144.127C328.366 144.127 328.369 144.049 328.382 143.903C328.399 143.735 328.422 143.523 328.448 143.263C328.507 142.708 328.617 141.907 328.773 140.921C329.082 138.949 329.621 136.238 330.435 133.299C331.252 130.362 332.188 127.761 332.939 125.911C333.314 124.986 333.633 124.243 333.869 123.737C333.98 123.501 334.07 123.308 334.142 123.155C334.207 123.022 334.243 122.954 334.25 122.956Z" fill="#263238"/>
<path d="M326.213 154.332C321.657 151.815 318.972 147.079 318.721 141.879C318.546 138.245 319.663 134.678 320.928 131.267C321.038 130.971 321.168 130.652 321.443 130.496C321.825 130.28 322.303 130.472 322.685 130.69C325.996 132.575 328.001 136.169 329.069 139.826C329.779 142.26 330.147 144.826 329.818 147.34C329.49 149.853 328.053 152.588 326.213 154.332Z" fill="#455A64"/>
<path d="M326.21 154.328C326.203 154.328 326.198 154.252 326.193 154.108C326.189 153.942 326.185 153.734 326.18 153.48C326.179 152.934 326.157 152.145 326.112 151.171C326.024 149.223 325.769 146.538 325.266 143.605C324.76 140.671 324.147 138.044 323.696 136.146C323.473 135.216 323.29 134.455 323.156 133.897C323.1 133.649 323.053 133.446 323.016 133.284C322.986 133.143 322.974 133.069 322.98 133.067C322.987 133.065 323.013 133.137 323.055 133.274C323.102 133.433 323.16 133.633 323.232 133.878C323.381 134.403 323.588 135.166 323.833 136.112C324.32 138.003 324.956 140.629 325.463 143.571C325.968 146.513 326.202 149.211 326.253 151.166C326.28 152.143 326.281 152.935 326.258 153.481C326.247 153.736 326.239 153.944 326.232 154.11C326.225 154.252 326.217 154.328 326.21 154.328Z" fill="#263238"/>
<g opacity="0.3">
<path d="M326.215 154.333C321.659 151.816 318.974 147.08 318.723 141.88C318.548 138.245 319.665 134.679 320.93 131.268C321.04 130.972 321.17 130.652 321.445 130.497C321.827 130.28 322.305 130.473 322.687 130.69C325.997 132.576 328.003 136.17 329.071 139.827C329.781 142.261 330.149 144.827 329.82 147.34C329.492 149.854 328.055 152.589 326.215 154.333Z" fill="black"/>
</g>
<path d="M331.354 181.992C335.838 182.977 339.53 186.139 343.856 187.678C346.718 188.695 349.955 189.055 352.24 191.057C351.692 189.672 350.391 188.75 349.128 187.961C345.571 185.739 341.761 183.92 337.797 182.552C335.761 181.849 333.553 181.262 331.479 181.84" fill="#455A64"/>
<path d="M324.87 185.987C319.255 185.896 313.342 181.115 307.752 180.829C313.602 178.941 321.977 180.484 324.87 185.987Z" fill="#455A64"/>
<path d="M327.064 172.515C329.916 171.487 333.047 171.438 336.042 171.904C339.037 172.369 341.931 173.329 344.807 174.286C344.519 172.338 342.941 170.872 341.459 169.575C340.343 168.599 339.219 167.618 337.939 166.87C336.66 166.123 335.199 165.617 333.719 165.68C331.933 165.755 330.232 166.677 329.06 168.027C327.888 169.379 327.258 170.738 327.064 172.515Z" fill="#455A64"/>
<path d="M315.537 166.314C312.002 163.296 306.647 163.59 302 163.695C309.143 167.111 316.841 171.793 322.993 176.777C323.182 173.492 320.002 170.126 315.537 166.314Z" fill="#455A64"/>
<g opacity="0.3">
<path d="M315.537 166.31C312.002 163.292 306.647 163.587 302 163.692C309.143 167.108 316.841 171.79 322.993 176.774C323.182 173.489 320.002 170.123 315.537 166.31Z" fill="black"/>
</g>
<path d="M328.655 162.15C330.432 160.965 332.231 159.835 334.091 158.99C335.952 158.144 337.688 156.797 339.484 155.825C341.815 154.563 343.833 152.809 345.972 151.245C348.111 149.68 350.46 148.268 353.077 147.854C350.943 147.414 348.713 147.654 346.611 148.228C344.509 148.802 342.512 149.701 340.525 150.596C337.767 151.838 334.961 153.111 332.707 155.127C330.454 157.144 328.417 159.134 328.655 162.15Z" fill="#455A64"/>
<path d="M343.755 185.985C343.752 185.991 343.691 185.965 343.577 185.908C343.445 185.84 343.283 185.756 343.087 185.654C342.664 185.429 342.057 185.095 341.293 184.712C340.914 184.512 340.495 184.303 340.04 184.09C339.59 183.866 339.1 183.645 338.582 183.421C337.545 182.978 336.387 182.516 335.124 182.216C333.865 181.907 332.61 181.84 331.522 182.125C330.972 182.258 330.455 182.389 329.995 182.581C329.533 182.768 329.121 182.987 328.763 183.213C328.043 183.666 327.54 184.147 327.214 184.493C326.889 184.841 326.731 185.054 326.716 185.044C326.711 185.04 326.745 184.983 326.817 184.878C326.887 184.773 327.001 184.624 327.157 184.44C327.468 184.075 327.963 183.571 328.686 183.094C329.046 182.856 329.462 182.625 329.932 182.427C330.4 182.224 330.929 182.084 331.478 181.945C332.591 181.641 333.895 181.706 335.169 182.021C336.451 182.326 337.616 182.797 338.655 183.252C339.174 183.482 339.663 183.709 340.112 183.941C340.566 184.161 340.982 184.378 341.357 184.586C342.116 184.988 342.713 185.341 343.125 185.587C343.313 185.702 343.469 185.796 343.596 185.874C343.704 185.941 343.759 185.979 343.755 185.985Z" fill="#263238"/>
<path d="M320.681 183.203C320.686 183.19 320.811 183.227 321.032 183.306C321.256 183.382 321.57 183.516 321.947 183.704C322.703 184.076 323.697 184.712 324.63 185.606C325.561 186.503 326.236 187.472 326.639 188.211C326.842 188.581 326.989 188.89 327.073 189.11C327.161 189.329 327.203 189.452 327.19 189.457C327.158 189.472 326.948 188.996 326.517 188.283C326.087 187.57 325.406 186.633 324.492 185.751C323.574 184.873 322.611 184.23 321.881 183.829C321.152 183.426 320.668 183.236 320.681 183.203Z" fill="#263238"/>
<path d="M308.257 166.034C308.259 166.028 308.342 166.052 308.496 166.105C308.67 166.167 308.894 166.247 309.171 166.345C309.47 166.455 309.825 166.586 310.234 166.737C310.647 166.891 311.098 167.118 311.606 167.342C313.628 168.26 316.319 169.804 318.917 172C320.199 173.115 321.357 174.249 322.326 175.357C323.292 176.467 324.109 177.511 324.746 178.423C325.387 179.331 325.873 180.088 326.207 180.611C326.364 180.859 326.492 181.058 326.591 181.213C326.678 181.352 326.721 181.426 326.716 181.43C326.71 181.434 326.656 181.367 326.558 181.236C326.46 181.105 326.317 180.91 326.142 180.654C325.789 180.143 325.285 179.4 324.631 178.505C323.981 177.608 323.156 176.577 322.188 175.479C321.216 174.384 320.06 173.261 318.787 172.152C316.204 169.97 313.544 168.417 311.546 167.469C311.042 167.238 310.598 167.003 310.19 166.839C309.788 166.677 309.438 166.536 309.143 166.417C308.872 166.304 308.653 166.213 308.483 166.142C308.333 166.078 308.255 166.04 308.257 166.034Z" fill="#263238"/>
<path d="M335.489 169.357C335.485 169.371 335.325 169.35 335.041 169.299C334.886 169.271 334.715 169.239 334.525 169.204C334.324 169.165 334.09 169.165 333.835 169.138C332.825 169.064 331.354 169.148 329.975 169.899C329.28 170.252 328.696 170.726 328.219 171.203C327.735 171.675 327.368 172.168 327.09 172.598C326.527 173.461 326.353 174.083 326.319 174.072C326.307 174.069 326.339 173.91 326.433 173.634C326.536 173.362 326.695 172.967 326.97 172.523C327.237 172.076 327.6 171.564 328.088 171.073C328.57 170.578 329.166 170.085 329.882 169.722C331.304 168.947 332.826 168.886 333.848 168.997C334.106 169.033 334.343 169.044 334.544 169.094C334.734 169.142 334.905 169.185 335.059 169.224C335.339 169.297 335.492 169.344 335.489 169.357Z" fill="#263238"/>
<path d="M341.138 151.851C341.141 151.857 341.067 151.903 340.925 151.982C340.764 152.07 340.556 152.183 340.299 152.323C339.754 152.616 338.97 153.049 338.017 153.611C337.07 154.179 335.953 154.878 334.764 155.727C333.579 156.578 332.307 157.568 331.132 158.77C330.552 159.375 330.019 160.006 329.646 160.694C329.278 161.4 328.927 162.083 328.603 162.738C327.953 164.048 327.425 165.254 327.043 166.29C326.662 167.327 326.425 168.19 326.284 168.791C326.141 169.392 326.089 169.731 326.069 169.728C326.062 169.727 326.07 169.642 326.091 169.48C326.111 169.317 326.146 169.079 326.207 168.775C326.326 168.165 326.543 167.291 326.909 166.242C327.277 165.194 327.795 163.975 328.437 162.657C328.757 161.997 329.106 161.312 329.471 160.604C329.858 159.885 330.4 159.245 330.987 158.631C332.176 157.415 333.459 156.425 334.656 155.577C335.856 154.732 336.985 154.043 337.945 153.488C338.909 152.941 339.705 152.526 340.262 152.254C340.526 152.128 340.74 152.026 340.906 151.947C341.056 151.877 341.135 151.845 341.138 151.851Z" fill="#263238"/>
<path d="M325.39 168.852C325.376 168.854 325.337 168.685 325.278 168.378C325.212 168.032 325.131 167.597 325.033 167.081C324.819 165.988 324.492 164.482 323.971 162.867C323.454 161.249 322.826 159.841 322.367 158.826C322.149 158.348 321.966 157.945 321.819 157.624C321.692 157.339 321.627 157.179 321.639 157.172C321.651 157.166 321.74 157.315 321.889 157.59C322.039 157.864 322.248 158.264 322.495 158.766C322.987 159.767 323.641 161.175 324.161 162.805C324.686 164.433 324.993 165.952 325.172 167.055C325.26 167.607 325.323 168.055 325.355 168.366C325.391 168.677 325.404 168.85 325.39 168.852Z" fill="#263238"/>
<path d="M324.982 156.075C324.841 153.954 324.15 151.892 323.156 150.013C320.43 144.859 315.307 141.039 309.591 139.897C313.777 146.136 317.963 152.376 322.15 158.615L323.772 161.956C324.877 160.14 325.123 158.197 324.982 156.075Z" fill="#455A64"/>
<path d="M342.999 192.964H313.796V198.14H342.999V192.964Z" fill="#E8505B"/>
<path d="M315.974 197.114L318.46 213.175H337.847L340.814 197.114H315.974Z" fill="#E8505B"/>
<path d="M342.98 198.145C342.98 198.202 336.392 198.247 328.269 198.247C320.142 198.247 313.557 198.202 313.557 198.145C313.557 198.088 320.142 198.042 328.269 198.042C336.392 198.042 342.98 198.088 342.98 198.145Z" fill="#263238"/>
</svg>
