<svg width="262" height="243" viewBox="0 0 262 243" fill="none" xmlns="http://www.w3.org/2000/svg">
<path d="M222.728 208.502C222.682 208.505 222.636 208.497 222.591 208.481L218.723 206.996C218.616 206.954 218.534 206.859 218.507 206.744C218.481 206.634 216.055 195.584 224.812 181.911C231.06 172.155 239.928 166.336 244.998 168.668C247.071 169.62 248.409 171.346 248.668 173.402C248.958 175.683 247.925 178.034 245.907 179.69C245.457 180.06 244.762 180.553 243.882 181.178C238.439 185.042 225.693 194.089 223.047 208.216C223.028 208.319 222.967 208.407 222.879 208.458C222.833 208.485 222.78 208.5 222.728 208.502ZM219.141 206.397L222.451 207.668C225.315 193.492 238.03 184.465 243.49 180.59C244.358 179.973 245.045 179.486 245.477 179.131C247.306 177.631 248.242 175.522 247.986 173.49C247.754 171.661 246.595 170.179 244.72 169.318C239.948 167.126 231.454 172.831 225.385 182.307C217.419 194.748 218.872 204.921 219.141 206.397Z" fill="#E8505B"/>
<path d="M220.529 207.659C220.513 207.659 220.498 207.66 220.482 207.657C220.292 207.641 220.151 207.468 220.167 207.272C221.479 190.578 234.192 175.737 242.023 173.246C242.205 173.188 242.398 173.294 242.455 173.482C242.511 173.67 242.411 173.87 242.229 173.927C234.485 176.39 222.098 191.502 220.853 207.334C220.84 207.513 220.698 207.65 220.529 207.659Z" fill="#E8505B"/>
<path d="M218.857 207.019C218.808 207.021 218.757 207.013 218.708 206.991L216.097 205.858C215.992 205.813 215.915 205.716 215.892 205.602C215.859 205.438 212.646 189.003 218.21 167.94C221.045 157.209 228.236 147.223 235.31 144.193C238.712 142.738 241.905 142.855 244.804 144.546C246.442 145.501 247.404 146.752 247.665 148.263C248.385 152.441 243.725 158.038 238.792 163.965C235.339 168.11 231.77 172.397 229.952 176.328C229.87 176.505 229.664 176.578 229.492 176.493C229.32 176.407 229.248 176.195 229.329 176.018C231.187 172.003 234.786 167.679 238.267 163.498C243.092 157.702 247.649 152.229 246.986 148.384C246.761 147.076 245.937 146.022 244.467 145.164C241.765 143.588 238.774 143.481 235.577 144.851C228.682 147.803 221.658 157.594 218.875 168.131C213.67 187.838 216.199 203.426 216.532 205.277L218.971 206.335C219.146 206.411 219.23 206.62 219.157 206.801C219.105 206.932 218.986 207.013 218.857 207.019Z" fill="#E8505B"/>
<path d="M219.167 196.809C219.159 196.809 219.15 196.809 219.142 196.809C218.952 196.805 218.801 196.641 218.804 196.444C219.259 170.449 235.169 151.321 239.629 148.226C239.786 148.118 240.001 148.16 240.108 148.324C240.214 148.487 240.174 148.708 240.016 148.818C235.621 151.868 219.944 170.747 219.493 196.462C219.49 196.65 219.346 196.8 219.167 196.809Z" fill="#E8505B"/>
<path d="M129.821 188.719C108.314 201.137 108.314 221.27 129.821 233.687C151.329 246.105 186.2 246.105 207.708 233.687C229.216 221.27 229.216 201.137 207.708 188.719C186.2 176.301 151.329 176.301 129.821 188.719Z" fill="#E0E0E0"/>
<path d="M146.091 228.301C146.091 228.301 130.144 222.555 124.945 214.127C125.424 204.788 126.327 188.019 126.463 188.131L156.518 191.243L150.167 217.592L146.091 228.301Z" fill="#37474F"/>
<path d="M146.088 224.579V228.302C157.257 232.879 178.065 232.97 191.568 228.561C200.735 225.568 208.7 220.477 211.43 217.357L210.403 191.245H129.096C129.104 195.229 131.552 206.942 134.37 211.823C137.189 216.705 146.088 224.579 146.088 224.579Z" fill="#455A64"/>
<path d="M136.109 91.0103C128.179 90.9883 123.422 92.4648 116.498 92.4943C98.7259 92.5704 88.9035 93.6047 88.9035 93.6047C88.9035 93.6047 65.8496 100.127 67.4703 105.791C69.5954 113.218 83.7994 118.236 102.356 120.933C121.528 123.719 133.393 125.221 133.393 125.221L136.109 91.0103Z" fill="#E8505B"/>
<path d="M140.78 42.2673C141.409 39.734 142.062 37.2053 142.695 34.6709C142.96 33.6066 143.228 32.5325 143.258 31.436C143.289 30.3394 143.065 29.2042 142.425 28.3129C141.969 27.677 141.038 27.1834 140.435 27.6833C140.256 27.832 140.143 28.0448 140.036 28.2518C138.031 32.0949 136.026 35.9381 134.021 39.7813C133.37 41.0295 132.717 42.2817 131.901 43.4296C131.108 44.5469 130.13 45.5956 129.638 46.8951C129.124 48.2505 127.263 51.6867 126.631 52.9089C125.273 55.5322 123.038 58.5007 118.37 61.7074C111.065 66.725 99.6783 70.4632 82.1494 79.5713C76.4002 82.5583 72.0168 89.1879 69.2535 94.9976C64.4677 105.059 67.8542 110.137 75.3105 110.055C81.2713 109.989 89.4252 108.415 97.9083 102.228C111.933 91.999 120.746 80.2285 128.049 75.5569C129.859 74.2245 133.048 73.4537 134.182 72.4909C136.406 70.6027 137.415 68.5826 137.951 65.7166C138.489 62.8426 138.303 59.8971 138.435 56.9908C138.542 54.6166 138.478 52.3843 138.972 50.043C139.521 47.4382 140.138 44.8501 140.78 42.2673Z" fill="#FFA8A7"/>
<path d="M133.484 40.8012L133.483 40.8C133.665 40.4604 133.843 40.1203 134.021 39.7795C136.026 35.9364 138.031 32.0932 140.035 28.25C140.143 28.0431 140.256 27.8309 140.435 27.6816C141.037 27.1817 141.969 27.6752 142.425 28.3117C143.064 29.203 143.289 30.3382 143.258 31.4348C143.228 32.5314 142.96 33.6055 142.694 34.6697C142.061 37.2042 141.409 39.7328 140.78 42.2661C140.138 44.8496 139.521 47.4376 138.971 50.0407C138.477 52.382 138.541 54.6143 138.434 56.9885C138.303 59.8948 138.488 62.8403 137.95 65.7143C137.414 68.5803 136.406 70.6004 134.181 72.4886C133.602 72.9804 132.485 73.4231 131.291 73.9155C128.933 69.1666 130.175 61.3436 131.19 54.322C132.041 48.4391 130.049 45.8937 133.484 40.8012Z" fill="#F28F8F"/>
<path d="M126.468 126.835C126.625 101.518 137.684 94.3334 142.061 92.4083L159.958 88.4314C165.459 88.9191 188.982 95.4196 195.457 96.8724C199.626 97.8076 206.46 100.219 208.844 113.462C210.78 124.22 211.061 128.564 209.796 148.12C208.98 160.734 208.343 176.855 211.061 199.743C182.818 209.038 151.595 212.829 130.127 197.088C130.542 193.522 127.749 163.967 127.378 155.239C127.008 146.511 126.425 133.689 126.468 126.835Z" fill="#FAFAFA"/>
<path d="M152.229 91.5998C149.887 92.8336 139.249 103.098 137.873 120.182C135.345 151.591 135.4 179.381 135.4 206.556C131.658 204.738 125.532 200.406 123.725 195.505C124.324 184.802 124.286 162.764 124.476 155.235C124.746 144.513 125.069 127.116 125.703 120.224C126.547 111.053 128.544 97.4135 136.109 91.0083C144.219 90.1896 151.909 89.5571 151.909 89.5571L152.229 91.5998Z" fill="#E8505B"/>
<path d="M175.198 80.8265C176.223 74.6922 182.307 68.2783 185.041 62.9252C187.678 57.7635 189.245 53.7606 188.932 48.9154C188.747 46.0454 186.928 42.1602 184.798 41.3496C187.232 30.675 179.214 25.7451 174.96 24.7437C173.329 24.3597 170.635 23.767 169.074 23.1184C166.761 22.1579 166.234 20.2997 164.366 18.7224C161.151 16.0063 155.747 15.9585 153.699 20.0876C151.557 17.3312 148.661 17.4102 145.317 18.2692C142.128 19.0885 140.621 21.7976 140.954 24.7379C136.475 22.2455 132.377 25.4153 131.973 28.0472C131.675 29.9878 132.092 31.624 130.827 33.3663C129.401 35.3282 126.697 35.3017 125.872 33.722C125.417 36.4802 126.499 38.5782 129.488 38.4179C128.462 39.9134 128.198 41.8719 128.723 43.6811C129.435 46.1336 131.908 47.5709 133.898 47.609C134.219 49.1206 134.287 50.5066 135.241 51.8084C136.158 53.0601 137.347 54.3008 138.768 54.973C143.299 57.1189 148.307 57.8073 153.185 58.8035C155.115 59.1979 157.045 59.5928 158.975 59.9871C159.311 60.0563 161.059 60.1572 161.268 60.4564C161.268 60.4576 175.198 80.8265 175.198 80.8265Z" fill="#263238"/>
<path d="M182.605 72.8764C178.301 75.4622 176.323 72.6625 176.323 72.6625L176.81 95.0539C176.81 95.0539 167.589 106.967 151.07 107.788C149.879 104.178 149.891 97.8155 150.81 95.8351L150.615 86.8395C150.615 86.8395 146.203 86.93 143.32 86.5333C138.512 85.8876 134.439 82.0934 133.054 76.8914C131.606 71.4547 131.189 62.5622 132.354 56.0376C132.651 54.3709 132.779 52.6707 132.6 50.9872C132.125 46.5167 132.924 43.912 134.069 40.1535C139.349 35.8774 154.312 34.9526 165.739 41.8583C163.309 47.6819 164.861 53.5937 169.806 56.1679C169.58 58.0019 169.365 62.6343 172.378 62.5403C174.548 62.4723 174.686 59.7488 176.907 57.3446C179.174 54.8897 184.33 54.2821 186.353 57.8133C189.183 62.7531 187.319 70.0433 182.605 72.8764Z" fill="#FFA8A7"/>
<path d="M150.614 86.8386C158.237 85.9185 164.03 85.0739 167.988 79.5374C170.47 76.0655 172.559 70.4858 172.559 70.4858C172.559 70.4858 171.797 77.2417 169.32 81.8234C167.411 85.3552 162.704 88.3059 150.751 89.3673L150.614 86.8386Z" fill="#F28F8F"/>
<path d="M153.519 56.6577C153.541 58.012 154.616 59.0895 155.919 59.0647C157.223 59.04 158.261 57.9215 158.24 56.5672C158.217 55.2123 157.143 54.1348 155.839 54.1596C154.535 54.1861 153.496 55.3034 153.519 56.6577Z" fill="#263238"/>
<path d="M159.389 50.4782L154.802 46.981C153.853 48.3064 154.111 50.1646 155.377 51.1303C156.643 52.0965 158.439 51.8042 159.389 50.4782Z" fill="#263238"/>
<path d="M140.691 46.364L136.203 50.0561C137.184 51.3435 138.984 51.5615 140.223 50.5416C141.463 49.5228 141.673 47.6526 140.691 46.364Z" fill="#263238"/>
<path d="M136.109 56.1488C136.131 57.5025 137.205 58.5807 138.509 58.5553C139.812 58.5299 140.851 57.4126 140.829 56.0583C140.806 54.7046 139.732 53.6265 138.429 53.6513C137.125 53.6761 136.086 54.794 136.109 56.1488Z" fill="#263238"/>
<path d="M140.137 63.7026L147.61 66.9975L149.876 52.3524C147.101 51.3682 143.547 58.1056 140.137 63.7026Z" fill="#F28F8F"/>
<path d="M147.476 75.0249C148.698 75.8344 149.446 74.6098 151.583 73.7214C153.72 72.833 155.738 73.8886 155.453 72.1123C155.152 70.2362 151.849 69.1506 149.712 70.0396C147.575 70.9281 146.087 74.1048 147.476 75.0249Z" fill="#B16668"/>
<path d="M151.416 73.5459C151.208 73.633 151.022 73.7396 150.839 73.8475C150.701 72.4378 151.685 71.1539 153.101 70.9486C153.849 70.8403 154.383 70.9533 154.935 71.3839C155.047 71.5407 155.164 71.7829 155.21 71.9616C155.66 73.7033 153.553 72.6569 151.416 73.5459Z" fill="#F28F8F"/>
<path d="M206.746 99.046L194.244 91.0126L176.703 90.0198C176.703 90.0198 172.093 100.46 171.799 136.205C171.48 175.083 172.523 216.358 172.523 216.358C172.523 216.358 202.206 216.296 213.341 199.637C213.341 199.637 212.092 187.793 211.445 168.207C211.063 156.636 210.545 148.88 211.798 138.977C214.13 120.551 212.25 108.838 206.746 99.046Z" fill="#E8505B"/>
<path d="M173.223 108.13L173.326 91.3324C173.326 91.3324 176.157 88.068 176.618 86.1828L176.554 83.2154C176.554 83.2154 178.071 83.1825 178.273 85.2874C178.475 87.3923 178.628 90.8262 178.628 90.8262L173.223 108.13Z" fill="#E8505B"/>
<path d="M141.367 106.036L143.349 91.9802C143.349 91.9802 146.815 88.2385 148.94 86.845L150.617 86.8381L150.746 92.792C150.746 92.792 145.357 97.8839 141.367 106.036Z" fill="#E8505B"/>
<path d="M143.453 45.7156C143.3 45.4337 143.104 45.18 142.867 44.9644C142.421 44.5597 141.813 44.2685 141.2 44.3233C140.92 44.3481 141.091 44.7511 141.289 44.7816C141.431 44.8035 141.566 44.8416 141.703 44.8802C141.72 44.8848 141.722 44.8848 141.727 44.886C141.732 44.8883 141.734 44.8894 141.751 44.8964C141.781 44.9085 141.811 44.92 141.841 44.9327C141.866 44.943 141.891 44.9546 141.916 44.9661C141.925 44.9701 141.937 44.9771 141.946 44.9817C142.045 45.037 142.141 45.0941 142.235 45.1569C142.245 45.1633 142.245 45.1633 142.249 45.1662C142.252 45.1685 142.252 45.1696 142.262 45.1771C142.286 45.1973 142.311 45.2169 142.335 45.2377C142.378 45.2757 142.421 45.3149 142.462 45.3558C142.475 45.3691 142.489 45.3829 142.501 45.3962C142.503 45.3991 142.539 45.4383 142.541 45.4412C142.579 45.4856 142.614 45.5311 142.648 45.5784C142.679 45.6216 142.708 45.666 142.737 45.711C142.742 45.7196 142.761 45.7513 142.764 45.7583C142.777 45.7813 142.789 45.8044 142.8 45.828C142.826 45.8799 142.85 45.9324 142.872 45.986C142.884 46.0148 142.895 46.0448 142.906 46.0742C142.908 46.0805 142.934 46.1561 142.923 46.1238C142.913 46.0909 142.936 46.1665 142.938 46.1734C142.946 46.2033 142.954 46.2333 142.961 46.2633C142.991 46.3948 143.015 46.5279 143.069 46.6525C143.102 46.7291 143.164 46.7966 143.238 46.8473C143.297 46.9136 143.416 46.999 143.498 46.9246C143.846 46.6058 143.636 46.054 143.453 45.7156Z" fill="#F28F8F"/>
<path d="M154.352 45.0681C154.043 45.1638 153.785 45.4042 153.567 45.6372C153.371 45.8464 153.197 46.0747 153.047 46.3186C152.894 46.5648 152.763 46.8208 152.667 47.0946C152.618 47.237 152.565 47.3887 152.544 47.5386C152.535 47.6078 152.537 47.6798 152.535 47.7496C152.535 47.7951 152.528 47.8464 152.533 47.8926C152.542 47.9848 152.593 48.0661 152.616 48.1543C152.651 48.2852 152.893 48.4979 153 48.314C153.055 48.2189 153.123 48.1405 153.162 48.0384C153.192 47.9583 153.224 47.8793 153.257 47.8003C153.309 47.6746 153.344 47.542 153.392 47.414C153.483 47.1725 153.592 46.9321 153.723 46.7089C153.849 46.4956 153.996 46.2944 154.159 46.1082C154.346 45.8954 154.617 45.7029 154.742 45.4492C154.851 45.2278 154.547 45.0082 154.352 45.0681Z" fill="#F28F8F"/>
<path d="M194.243 91.0087C209.15 90.8305 214.309 92.5918 225.57 95.6699C230.906 97.1286 246.817 100.931 246.817 100.931L261.4 117.106L257.734 125.65C252.64 128.459 238.822 126.66 223.71 128.343C217.684 129.014 213.998 131.315 212.153 135.608C211.518 137.085 201.376 138.325 196.583 126.352C192.259 115.553 191.364 101.965 194.243 91.0087Z" fill="#E8505B"/>
<path d="M200.764 65.3441C200.209 62.2631 200.666 57.9206 200.287 54.9503C199.908 51.9806 198.256 47.3989 197.958 43.6641C197.66 39.9351 197.154 39.5633 195.729 39.874C194.562 40.1288 193.028 42.654 193.591 46.6148C194.009 49.5592 196.395 63.3078 200.764 65.3441Z" fill="#F28F8F"/>
<path d="M192.341 42.2999C193.326 44.3547 195.067 46.3403 195.953 48.4441C196.878 50.6424 196.791 51.694 197.588 55.9978C198.209 59.3469 198.194 62.3587 202.149 66.3725C209.23 73.5573 234.549 83.5803 249.76 95.9268C255.561 100.635 258.778 104.94 260.795 112.079C263.453 121.483 259.727 126.693 254.032 126.334C247.172 125.901 235.15 122.414 226.489 113.954C212.169 99.9677 198.598 86.1026 191.034 79.5671C189.188 77.7481 186.696 75.6063 185.561 74.3206C183.434 71.9136 182.58 68.3575 182.262 65.1653C181.736 59.8779 179.61 55.8462 179.791 53.4438C179.399 51.1803 178.089 47.6542 176.881 44.0532C176.191 41.9938 175.445 40.2112 176.319 39.1642C176.538 38.9024 177.012 38.6413 177.012 38.6413C177.012 38.6413 176.939 38.3709 176.916 38.2561C176.766 37.4894 176.58 36.7208 176.587 35.9396C176.594 35.1584 176.668 34.4089 177.195 33.8318C177.487 33.5113 177.845 33.3787 177.845 33.3787C177.845 33.3787 177.773 33.1705 177.685 32.8932C177.447 32.1432 177.339 31.3406 177.442 30.56C177.546 29.7794 177.919 29.0086 178.566 28.56C179.213 28.1115 180.151 28.055 180.772 28.5375C181.007 28.7197 181.185 28.9624 181.361 29.2017C181.798 29.8001 182.236 30.398 182.673 30.9964C183.595 30.2896 184.195 30.7497 185.015 31.4565C186.014 32.3184 186.862 33.3424 187.78 34.2907C188.202 34.7272 188.625 35.1677 188.967 35.6698C189.269 36.1137 189.503 36.5992 189.735 37.0829C190.578 38.8373 191.505 40.5571 192.341 42.2999Z" fill="#FFA8A7"/>
<path d="M185.561 74.3234C182.946 71.6552 182.254 67.7059 181.869 64.1499C181.535 60.5258 179.736 57.1144 179.79 53.4465C179.808 54.3621 180.035 55.2447 180.3 56.113C181.113 58.7345 182.008 61.3358 182.398 64.0749C182.75 67.6644 183.302 71.3813 185.561 74.3234Z" fill="#B16668"/>
<path d="M182.673 30.999C183.763 32.3717 186.257 35.372 187.262 36.735C188.708 38.7263 189.225 41.2769 190.095 43.5502L190.85 45.8782C190.984 46.265 191.046 46.6807 191.278 46.9886C191.505 47.3074 191.899 47.4833 192.203 47.7565C191.868 47.5282 191.459 47.4089 191.17 47.0774C190.658 46.4144 190.067 44.4703 189.709 43.6885C188.969 41.7981 188.295 39.8742 187.499 38.0137C186.038 35.677 184.07 33.3859 182.673 30.999Z" fill="#B16668"/>
<path d="M177.846 33.3797C178.22 33.2448 178.642 33.1231 179.062 33.2638C179.489 33.3901 179.752 33.8161 179.962 34.1234C180.426 34.7772 180.924 35.4189 181.408 36.0681C182.377 37.3676 183.358 38.7322 183.918 40.267C184.963 42.8983 186.103 45.5267 186.729 48.3009C186.805 48.6982 186.895 49.1087 186.832 49.5146C186.787 48.708 186.459 47.9516 186.189 47.1963C184.636 43.4834 183.465 39.5964 181.071 36.305C180.629 35.6276 180.17 34.9628 179.742 34.2658C179.539 33.8957 179.376 33.5561 179.011 33.3958C178.66 33.239 178.238 33.2972 177.846 33.3797Z" fill="#B16668"/>
<path d="M177.012 38.6424C178.319 38.2135 178.957 39.9834 179.517 40.8482C181.038 43.4155 181.86 46.3039 182.752 49.1243C182.91 49.7199 182.93 50.3345 182.816 50.9191C182.876 49.7095 182.245 48.685 181.833 47.5677C181.388 46.4706 180.982 45.3596 180.563 44.2573C180.182 43.114 179.621 42.1051 179.151 41.0327C178.659 40.1633 178.273 38.4498 177.012 38.6424Z" fill="#B16668"/>
<path d="M110.45 184.975C107.038 179.99 96.622 178.433 90.8976 182.465C85.341 179.281 78.5281 177.399 71.1594 177.399C52.474 177.399 37.3262 189.46 37.3262 204.338C37.3262 219.216 52.474 231.277 71.1594 231.277C89.8449 231.277 104.993 219.216 104.993 204.338C104.993 198.907 102.967 193.854 99.4938 189.623C100.623 185.578 105.282 183.864 110.45 184.975Z" fill="#F5F5F5"/>
<path d="M66.0778 196.099C65.8847 196.099 65.7377 196.048 65.6356 195.946C65.5336 195.844 65.4592 195.766 65.4142 195.709L60.655 188.637V195.64C60.655 195.765 60.61 195.872 60.5195 195.963C60.4284 196.054 60.3206 196.099 60.196 196.099H58.8193C58.6942 196.099 58.5869 196.054 58.4958 195.963C58.4053 195.873 58.3604 195.765 58.3604 195.64V184.66C58.3604 184.535 58.4053 184.427 58.4958 184.336C58.5864 184.246 58.6942 184.201 58.8193 184.201H60.0087C60.2012 184.201 60.3488 184.252 60.4509 184.354C60.5529 184.456 60.6267 184.535 60.6717 184.592L65.431 191.663V184.66C65.431 184.535 65.4765 184.427 65.567 184.336C65.6575 184.246 65.7653 184.201 65.8904 184.201H67.2672C67.3917 184.201 67.499 184.246 67.5895 184.336C67.68 184.427 67.7256 184.535 67.7256 184.66V195.64C67.7256 195.765 67.68 195.872 67.5895 195.963C67.499 196.054 67.3912 196.099 67.2672 196.099H66.0778V196.099Z" fill="white"/>
<path d="M73.6906 187.092C74.3138 187.092 74.8777 187.188 75.3821 187.381C75.886 187.573 76.323 187.84 76.6914 188.18C77.0598 188.52 77.3539 188.916 77.5753 189.37C77.7961 189.823 77.9235 190.311 77.9575 190.831C77.969 190.933 77.9742 191.064 77.9742 191.223C77.9742 191.381 77.9742 191.54 77.9742 191.698C77.9742 191.857 77.9742 192.013 77.9742 192.165C77.9742 192.319 77.9685 192.445 77.9575 192.548C77.912 193.069 77.7817 193.556 77.5666 194.01C77.351 194.463 77.0593 194.857 76.6909 195.191C76.3225 195.525 75.886 195.789 75.3816 195.981C74.8771 196.174 74.3138 196.27 73.69 196.27C73.0668 196.27 72.5029 196.174 71.999 195.981C71.4946 195.789 71.0581 195.525 70.6903 195.191C70.3219 194.857 70.0296 194.463 69.8146 194.01C69.5995 193.556 69.4686 193.069 69.4237 192.548C69.4121 192.445 69.4041 192.319 69.3983 192.165C69.392 192.013 69.3896 191.857 69.3896 191.698C69.3896 191.54 69.392 191.381 69.3983 191.223C69.4041 191.064 69.4121 190.933 69.4237 190.831C69.4577 190.311 69.5851 189.823 69.8059 189.37C70.0273 188.917 70.3219 188.52 70.6897 188.18C71.0581 187.84 71.494 187.573 71.9985 187.381C72.5035 187.188 73.0674 187.092 73.6906 187.092ZM75.7471 190.916C75.7131 190.565 75.6312 190.273 75.5009 190.041C75.37 189.808 75.2086 189.624 75.016 189.488C74.8235 189.352 74.6136 189.259 74.387 189.208C74.1599 189.157 73.9281 189.131 73.69 189.131C73.4525 189.131 73.2201 189.157 72.9936 189.208C72.767 189.259 72.5571 189.352 72.3646 189.488C72.1714 189.624 72.01 189.808 71.8797 190.041C71.7494 190.273 71.6675 190.565 71.6329 190.916C71.6214 191.007 71.6133 191.12 71.6076 191.256C71.6018 191.392 71.5989 191.533 71.5989 191.681C71.5989 191.829 71.6018 191.973 71.6076 192.115C71.6133 192.256 71.6214 192.367 71.6329 192.445C71.6675 192.797 71.7494 193.089 71.8797 193.321C72.01 193.554 72.1714 193.738 72.3646 193.874C72.5571 194.01 72.7664 194.103 72.9936 194.154C73.2201 194.205 73.4525 194.23 73.69 194.23C73.9281 194.23 74.1599 194.205 74.387 194.154C74.6136 194.103 74.8235 194.01 75.016 193.874C75.2086 193.738 75.37 193.554 75.5009 193.321C75.6312 193.089 75.7131 192.797 75.7471 192.445C75.7586 192.367 75.7638 192.256 75.7638 192.115C75.7638 191.973 75.7638 191.829 75.7638 191.681C75.7638 191.533 75.7638 191.392 75.7638 191.256C75.7644 191.12 75.7586 191.007 75.7471 190.916Z" fill="white"/>
<path d="M79.4015 194.179C79.424 194.02 79.4949 193.87 79.6136 193.729C79.733 193.587 79.9054 193.516 80.1319 193.516H81.6107C81.7128 193.516 81.7998 193.553 81.8742 193.626C81.9474 193.7 81.9843 193.787 81.9843 193.889C81.9843 193.935 81.978 193.974 81.9676 194.009L80.8457 196.83C80.8007 196.943 80.724 197.062 80.6168 197.187C80.5084 197.312 80.3412 197.374 80.1152 197.374H79.3507C79.2481 197.374 79.1605 197.338 79.0872 197.264C79.0129 197.19 78.9766 197.102 78.9766 197V196.966L79.4015 194.179Z" fill="white"/>
<path d="M57.3227 209.478C57.3227 209.603 57.2778 209.711 57.1872 209.801C57.0967 209.892 56.9883 209.937 56.8644 209.937H55.5729C55.4478 209.937 55.3406 209.892 55.2495 209.801C55.159 209.711 55.114 209.603 55.114 209.478V205.161C55.114 204.481 54.9555 203.937 54.6378 203.53C54.3207 203.122 53.833 202.918 53.1763 202.918C52.5756 202.918 52.1028 203.122 51.7569 203.53C51.411 203.937 51.2391 204.481 51.2391 205.161V209.478C51.2391 209.603 51.1936 209.711 51.1031 209.801C51.0126 209.892 50.9048 209.937 50.7802 209.937H49.4882C49.3631 209.937 49.2559 209.892 49.1654 209.801C49.0743 209.711 49.0293 209.603 49.0293 209.478V201.558C49.0293 201.433 49.0743 201.326 49.1654 201.235C49.2553 201.144 49.3631 201.099 49.4882 201.099H50.7802C50.9048 201.099 51.012 201.144 51.1031 201.235C51.1936 201.325 51.2391 201.433 51.2391 201.558V201.949C51.5338 201.654 51.8785 201.41 52.2758 201.218C52.6724 201.025 53.1429 200.929 53.6865 200.929C54.3772 200.929 54.9555 201.036 55.4202 201.252C55.8849 201.467 56.2584 201.756 56.5421 202.119C56.8252 202.482 57.0264 202.904 57.1452 203.385C57.2645 203.867 57.3239 204.374 57.3239 204.906V209.478H57.3227Z" fill="white"/>
<path d="M63.0509 200.929C63.6742 200.929 64.238 201.025 64.7425 201.218C65.2464 201.41 65.6834 201.677 66.0512 202.017C66.4196 202.357 66.7136 202.753 66.935 203.207C67.1558 203.66 67.2833 204.148 67.3173 204.668C67.3288 204.77 67.334 204.901 67.334 205.06C67.334 205.218 67.334 205.377 67.334 205.535C67.334 205.694 67.334 205.85 67.334 206.002C67.334 206.156 67.3282 206.283 67.3173 206.385C67.2717 206.906 67.1414 207.394 66.9264 207.847C66.7108 208.3 66.419 208.694 66.0506 209.028C65.6822 209.362 65.2458 209.626 64.7419 209.819C64.2374 210.011 63.6736 210.107 63.0504 210.107C62.4271 210.107 61.8633 210.011 61.3594 209.819C60.8549 209.626 60.4185 209.362 60.0507 209.028C59.6823 208.694 59.39 208.3 59.1749 207.847C58.9599 207.394 58.829 206.906 58.784 206.385C58.7725 206.283 58.7644 206.156 58.7586 206.002C58.7523 205.85 58.75 205.694 58.75 205.535C58.75 205.377 58.7523 205.218 58.7586 205.06C58.7644 204.901 58.7725 204.77 58.784 204.668C58.818 204.148 58.9454 203.66 59.1663 203.207C59.3876 202.754 59.6822 202.357 60.0501 202.017C60.4185 201.677 60.8543 201.41 61.3588 201.218C61.8639 201.025 62.4277 200.929 63.0509 200.929ZM65.1074 204.753C65.0734 204.403 64.9915 204.11 64.8612 203.878C64.7304 203.646 64.5689 203.461 64.3764 203.325C64.1838 203.19 63.974 203.096 63.7474 203.045C63.5208 202.994 63.2885 202.968 63.0504 202.968C62.8128 202.968 62.5799 202.994 62.3539 203.045C62.1268 203.096 61.9175 203.19 61.7249 203.325C61.5318 203.461 61.3703 203.646 61.24 203.878C61.1098 204.11 61.0279 204.402 60.9933 204.753C60.9818 204.844 60.9737 204.957 60.9679 205.093C60.9622 205.229 60.9593 205.371 60.9593 205.518C60.9593 205.666 60.9622 205.81 60.9679 205.952C60.9737 206.094 60.9818 206.204 60.9933 206.283C61.0279 206.634 61.1098 206.926 61.24 207.158C61.3703 207.391 61.5318 207.575 61.7249 207.711C61.9175 207.847 62.1268 207.94 62.3539 207.991C62.5805 208.042 62.8128 208.068 63.0504 208.068C63.2885 208.068 63.5202 208.042 63.7474 207.991C63.974 207.94 64.1838 207.847 64.3764 207.711C64.5689 207.575 64.7304 207.391 64.8612 207.158C64.9915 206.927 65.0734 206.634 65.1074 206.283C65.119 206.204 65.1242 206.094 65.1242 205.952C65.1242 205.81 65.1242 205.666 65.1242 205.518C65.1242 205.371 65.1242 205.229 65.1242 205.093C65.1242 204.957 65.119 204.844 65.1074 204.753Z" fill="white"/>
<path d="M68.7624 208.016C68.7849 207.857 68.8558 207.707 68.9746 207.566C69.0939 207.424 69.2663 207.353 69.4929 207.353H70.9717C71.0737 207.353 71.1608 207.39 71.2352 207.463C71.3084 207.538 71.3453 207.625 71.3453 207.727C71.3453 207.772 71.3389 207.811 71.3285 207.846L70.2066 210.668C70.1616 210.781 70.085 210.899 69.9772 211.024C69.8688 211.149 69.7021 211.211 69.4756 211.211H68.7111C68.6085 211.211 68.5208 211.175 68.4476 211.101C68.3732 211.027 68.3369 210.94 68.3369 210.838V210.804L68.7624 208.016Z" fill="white"/>
<path d="M84.6876 209.478C84.6876 209.603 84.6426 209.711 84.5521 209.801C84.4616 209.892 84.3532 209.937 84.2286 209.937H82.9372C82.8121 209.937 82.7049 209.892 82.6138 209.801C82.5233 209.711 82.4783 209.603 82.4783 209.478V205.161C82.4783 204.481 82.3197 203.937 82.0021 203.53C81.685 203.122 81.1972 202.918 80.5406 202.918C79.9398 202.918 79.4671 203.122 79.1211 203.53C78.7752 203.937 78.6034 204.481 78.6034 205.161V209.478C78.6034 209.603 78.5579 209.711 78.4673 209.801C78.3768 209.892 78.269 209.937 78.1445 209.937H76.8525C76.7274 209.937 76.6201 209.892 76.5296 209.801C76.4385 209.711 76.3936 209.603 76.3936 209.478V201.558C76.3936 201.433 76.4385 201.326 76.5296 201.235C76.6196 201.144 76.7274 201.099 76.8525 201.099H78.1445C78.269 201.099 78.3763 201.144 78.4673 201.235C78.5579 201.325 78.6034 201.433 78.6034 201.558V201.949C78.898 201.654 79.2428 201.41 79.64 201.218C80.0367 201.025 80.5071 200.929 81.0508 200.929C81.7415 200.929 82.3197 201.036 82.7844 201.252C83.2491 201.467 83.6227 201.756 83.9064 202.119C84.1894 202.482 84.3906 202.904 84.5094 203.385C84.6288 203.867 84.6881 204.374 84.6881 204.906L84.6876 209.478Z" fill="white"/>
<path d="M90.4158 200.929C91.039 200.929 91.6029 201.025 92.1073 201.218C92.6112 201.41 93.0482 201.677 93.4166 202.017C93.785 202.357 94.0791 202.753 94.3005 203.207C94.5213 203.66 94.6487 204.148 94.6827 204.668C94.6942 204.77 94.6994 204.901 94.6994 205.06C94.6994 205.218 94.6994 205.377 94.6994 205.535C94.6994 205.694 94.6994 205.85 94.6994 206.002C94.6994 206.156 94.6937 206.283 94.6827 206.385C94.6371 206.906 94.5069 207.394 94.2918 207.847C94.0762 208.3 93.7845 208.694 93.4161 209.028C93.0477 209.362 92.6112 209.626 92.1067 209.819C91.6023 210.011 91.039 210.107 90.4152 210.107C89.7914 210.107 89.2281 210.011 88.7242 209.819C88.2198 209.626 87.7833 209.362 87.4149 209.028C87.0465 208.694 86.7548 208.3 86.5392 207.847C86.3241 207.394 86.1932 206.906 86.1483 206.385C86.1367 206.283 86.1287 206.156 86.1229 206.002C86.1166 205.85 86.1143 205.694 86.1143 205.535C86.1143 205.377 86.1166 205.218 86.1229 205.06C86.1287 204.901 86.1373 204.77 86.1483 204.668C86.1823 204.148 86.3097 203.66 86.5305 203.207C86.7519 202.754 87.0459 202.357 87.4143 202.017C87.7827 201.677 88.2192 201.41 88.7236 201.218C89.2287 201.025 89.7925 200.929 90.4158 200.929ZM92.4723 204.753C92.4383 204.403 92.3564 204.11 92.2261 203.878C92.0952 203.646 91.9338 203.461 91.7412 203.325C91.5487 203.19 91.3388 203.096 91.1122 203.045C90.8851 202.994 90.6533 202.968 90.4152 202.968C90.1777 202.968 89.9453 202.994 89.7187 203.045C89.4916 203.096 89.2823 203.19 89.0898 203.325C88.8966 203.461 88.7352 203.646 88.6049 203.878C88.4746 204.11 88.3927 204.402 88.3581 204.753C88.3466 204.844 88.3385 204.957 88.3328 205.093C88.327 205.229 88.3241 205.371 88.3241 205.518C88.3241 205.666 88.327 205.81 88.3328 205.952C88.3385 206.094 88.3466 206.204 88.3581 206.283C88.3927 206.634 88.4746 206.926 88.6049 207.158C88.7346 207.391 88.8966 207.575 89.0898 207.711C89.2823 207.847 89.4916 207.94 89.7187 207.991C89.9453 208.042 90.1777 208.068 90.4152 208.068C90.6533 208.068 90.8851 208.042 91.1122 207.991C91.3388 207.94 91.5487 207.847 91.7412 207.711C91.9338 207.575 92.0952 207.391 92.2261 207.158C92.3564 206.927 92.4383 206.634 92.4723 206.283C92.4838 206.204 92.489 206.094 92.489 205.952C92.489 205.81 92.489 205.666 92.489 205.518C92.489 205.371 92.489 205.229 92.489 205.093C92.489 204.957 92.4838 204.844 92.4723 204.753Z" fill="white"/>
<path d="M68.9223 223.314C68.9223 223.439 68.8774 223.546 68.7869 223.637C68.6963 223.728 68.588 223.773 68.4634 223.773H67.172C67.0469 223.773 66.9396 223.728 66.8486 223.637C66.758 223.547 66.7131 223.439 66.7131 223.314V218.997C66.7131 218.317 66.5545 217.773 66.2368 217.365C65.9198 216.957 65.4326 216.754 64.7753 216.754C64.1746 216.754 63.7018 216.957 63.3559 217.365C63.01 217.773 62.8382 218.317 62.8382 218.997V223.314C62.8382 223.439 62.7926 223.546 62.7021 223.637C62.6116 223.728 62.5038 223.773 62.3798 223.773H61.0878C60.9627 223.773 60.8555 223.728 60.765 223.637C60.6739 223.547 60.6289 223.439 60.6289 223.314V215.394C60.6289 215.269 60.6739 215.161 60.765 215.07C60.8549 214.98 60.9627 214.935 61.0878 214.935H62.3798C62.5044 214.935 62.6116 214.98 62.7021 215.07C62.7926 215.161 62.8382 215.269 62.8382 215.394V215.785C63.1328 215.49 63.4776 215.246 63.8748 215.053C64.2714 214.861 64.7419 214.765 65.2856 214.765C65.9763 214.765 66.5545 214.872 67.0192 215.088C67.4839 215.303 67.8575 215.592 68.1411 215.955C68.4242 216.317 68.6254 216.739 68.7442 217.221C68.8635 217.703 68.9229 218.209 68.9229 218.742L68.9223 223.314Z" fill="white"/>
<path d="M74.6519 214.765C75.2752 214.765 75.839 214.861 76.3435 215.053C76.8474 215.246 77.2844 215.512 77.6528 215.853C78.0212 216.193 78.3152 216.589 78.5366 217.043C78.7574 217.496 78.8848 217.983 78.9188 218.504C78.9304 218.606 78.9356 218.736 78.9356 218.896C78.9356 219.054 78.9356 219.213 78.9356 219.371C78.9356 219.53 78.9356 219.686 78.9356 219.838C78.9356 219.991 78.9298 220.118 78.9188 220.22C78.8733 220.742 78.743 221.229 78.528 221.682C78.3123 222.136 78.0206 222.529 77.6528 222.864C77.2844 223.198 76.8479 223.462 76.3435 223.654C75.839 223.847 75.2752 223.943 74.6519 223.943C74.0287 223.943 73.4648 223.847 72.961 223.654C72.4565 223.462 72.0201 223.198 71.6516 222.864C71.2832 222.529 70.9915 222.136 70.7765 221.682C70.5614 221.229 70.4306 220.742 70.3856 220.22C70.3741 220.118 70.366 219.991 70.3602 219.838C70.3539 219.685 70.3516 219.53 70.3516 219.371C70.3516 219.213 70.3539 219.054 70.3602 218.896C70.366 218.737 70.3741 218.606 70.3856 218.504C70.4196 217.983 70.547 217.496 70.7678 217.043C70.9892 216.589 71.2838 216.193 71.6516 215.853C72.0201 215.512 72.4565 215.246 72.961 215.053C73.4648 214.861 74.0287 214.765 74.6519 214.765ZM76.7084 218.589C76.6744 218.238 76.5925 217.946 76.4622 217.714C76.3314 217.481 76.1699 217.297 75.9774 217.161C75.7848 217.025 75.5749 216.932 75.3484 216.881C75.1218 216.83 74.8895 216.804 74.6513 216.804C74.4138 216.804 74.1809 216.83 73.9549 216.881C73.7283 216.932 73.5185 217.025 73.3259 217.161C73.1328 217.297 72.9713 217.481 72.841 217.714C72.7107 217.945 72.6289 218.238 72.5943 218.589C72.5827 218.68 72.5747 218.793 72.5689 218.929C72.5631 219.065 72.5603 219.206 72.5603 219.354C72.5603 219.501 72.5631 219.646 72.5689 219.787C72.5747 219.929 72.5827 220.04 72.5943 220.118C72.6283 220.469 72.7107 220.762 72.841 220.994C72.9713 221.226 73.1328 221.411 73.3259 221.546C73.5185 221.682 73.7277 221.776 73.9549 221.827C74.1815 221.878 74.4138 221.903 74.6513 221.903C74.8895 221.903 75.1212 221.878 75.3484 221.827C75.5749 221.776 75.7848 221.682 75.9774 221.546C76.1699 221.411 76.3314 221.226 76.4622 220.994C76.5925 220.762 76.6744 220.47 76.7084 220.118C76.7199 220.039 76.7251 219.929 76.7251 219.787C76.7251 219.646 76.7251 219.501 76.7251 219.354C76.7251 219.206 76.7251 219.065 76.7251 218.929C76.7257 218.793 76.7199 218.68 76.7084 218.589Z" fill="white"/>
<path d="M82.2999 221.36C82.4244 221.36 82.5317 221.405 82.6228 221.496C82.7133 221.586 82.7588 221.694 82.7588 221.819V223.315C82.7588 223.44 82.7133 223.547 82.6228 223.638C82.5323 223.729 82.4244 223.774 82.2999 223.774H80.8378C80.7133 223.774 80.6061 223.729 80.515 223.638C80.4239 223.548 80.3789 223.44 80.3789 223.315V221.819C80.3789 221.694 80.4239 221.587 80.515 221.496C80.6055 221.405 80.7133 221.36 80.8378 221.36H82.2999ZM82.6735 219.881C82.6735 220.006 82.628 220.113 82.5374 220.204C82.4469 220.295 82.3391 220.34 82.2152 220.34H80.9232C80.7986 220.34 80.6914 220.295 80.6003 220.204C80.5092 220.113 80.4642 220.006 80.4642 219.881V212.334C80.4642 212.209 80.5092 212.102 80.6003 212.011C80.6908 211.92 80.7986 211.875 80.9232 211.875H82.2152C82.3397 211.875 82.4469 211.92 82.5374 212.011C82.628 212.101 82.6735 212.209 82.6735 212.334V219.881Z" fill="white"/>
<path d="M7.94809 147.608C6.49753 145.871 3.77399 145.232 0.8181 145.877C3.28739 142.219 10.761 141.046 14.9893 143.901C17.9999 142.853 21.3173 142.27 24.8042 142.27C38.5032 142.27 49.6078 151.233 49.6078 162.29C49.6078 173.348 38.5026 182.31 24.8036 182.31C11.1046 182.31 0 173.347 0 162.29C0.000576533 156.487 3.06197 151.265 7.94809 147.608Z" fill="#F5F5F5"/>
<path d="M30.8866 152.905L24.8048 158.987L18.7229 152.905C17.8109 151.993 16.3315 151.993 15.4194 152.905C14.5073 153.817 14.5073 155.296 15.4194 156.208L21.5013 162.29L15.4194 168.372C14.5073 169.284 14.5073 170.763 15.4194 171.676C16.3315 172.588 17.8109 172.588 18.7229 171.676L24.8048 165.593L30.8866 171.675C31.7987 172.587 33.2775 172.588 34.1902 171.675C35.1023 170.763 35.1023 169.284 34.1902 168.371L28.1083 162.29L34.1902 156.208C35.1023 155.296 35.1023 153.817 34.1902 152.904C33.2775 151.992 31.7987 151.993 30.8866 152.905Z" fill="white"/>
<path d="M102.873 137.738C104.108 136.258 106.428 135.715 108.945 136.264C106.842 133.149 100.477 132.15 96.8763 134.581C94.3125 133.688 91.4875 133.192 88.5177 133.192C76.8516 133.192 67.3936 140.826 67.3936 150.242C67.3936 159.658 76.851 167.292 88.5177 167.292C100.184 167.292 109.641 159.658 109.641 150.242C109.641 145.3 107.034 140.852 102.873 137.738Z" fill="#EBEBEB"/>
<path d="M70.7592 149.135C70.7834 148.677 70.871 148.246 71.0226 147.842C71.1737 147.437 71.3962 147.086 71.6903 146.787C71.9849 146.489 72.3521 146.252 72.7938 146.077C73.2348 145.901 73.7577 145.814 74.3625 145.814C74.9592 145.814 75.4781 145.899 75.9191 146.071C76.3608 146.243 76.728 146.48 77.0226 146.782C77.3167 147.084 77.5409 147.436 77.6966 147.836C77.8511 148.236 77.9416 148.669 77.9664 149.135C77.9745 149.29 77.9808 149.461 77.9849 149.65C77.9889 149.838 77.9906 150.032 77.9906 150.232C77.9906 150.433 77.9889 150.627 77.9849 150.815C77.9802 151.003 77.9739 151.174 77.9664 151.329C77.9416 151.787 77.854 152.218 77.7029 152.622C77.5513 153.027 77.3293 153.378 77.0347 153.676C76.7407 153.975 76.3711 154.21 75.9255 154.382C75.4798 154.553 74.9592 154.639 74.3625 154.639C73.7577 154.639 73.2348 154.553 72.7938 154.382C72.3521 154.21 71.9849 153.975 71.6903 153.676C71.3962 153.378 71.1737 153.027 71.0226 152.622C70.871 152.218 70.7834 151.787 70.7592 151.329C70.7505 151.174 70.7448 151.003 70.7407 150.815C70.7361 150.627 70.7344 150.433 70.7344 150.232C70.7344 150.032 70.7361 149.838 70.7407 149.65C70.7448 149.462 70.7511 149.29 70.7592 149.135ZM76.3118 149.196C76.2789 148.608 76.0886 148.153 75.7416 147.83C75.3939 147.507 74.935 147.346 74.3625 147.346C73.79 147.346 73.3311 147.507 72.9834 147.83C72.6358 148.153 72.4461 148.608 72.4138 149.196C72.3971 149.507 72.389 149.852 72.389 150.232C72.389 150.612 72.3971 150.958 72.4138 151.268C72.4467 151.856 72.6364 152.31 72.9834 152.628C73.3311 152.947 73.79 153.106 74.3625 153.106C74.935 153.106 75.3939 152.947 75.7416 152.628C76.0892 152.31 76.2795 151.856 76.3118 151.268C76.3279 150.958 76.336 150.612 76.336 150.232C76.336 149.852 76.3279 149.507 76.3118 149.196Z" fill="white"/>
<path d="M85.1493 154.185C85.1493 154.275 85.1165 154.353 85.0513 154.418C84.9862 154.483 84.9083 154.516 84.819 154.516H83.8873C83.7974 154.516 83.7195 154.483 83.6544 154.418C83.5892 154.353 83.5564 154.275 83.5564 154.185V151.072C83.5564 150.582 83.4422 150.19 83.2133 149.895C82.9844 149.601 82.6328 149.454 82.1588 149.454C81.7259 149.454 81.3846 149.601 81.1355 149.895C80.8864 150.19 80.7619 150.582 80.7619 151.072V154.185C80.7619 154.275 80.729 154.353 80.6639 154.418C80.5987 154.483 80.5209 154.516 80.4316 154.516H79.4999C79.4099 154.516 79.3321 154.483 79.267 154.418C79.2018 154.353 79.1689 154.275 79.1689 154.185V146.144C79.1689 146.055 79.2018 145.977 79.267 145.912C79.3321 145.847 79.4099 145.814 79.4999 145.814H80.4316C80.5209 145.814 80.5987 145.847 80.6639 145.912C80.729 145.977 80.7619 146.055 80.7619 146.144V148.755C80.9746 148.542 81.2237 148.367 81.5097 148.228C81.7956 148.089 82.1352 148.02 82.5272 148.02C83.026 148.02 83.4428 148.098 83.7778 148.252C84.1127 148.408 84.3825 148.616 84.5866 148.877C84.7913 149.139 84.9354 149.444 85.0219 149.791C85.1072 150.138 85.1505 150.504 85.1505 150.888V154.185H85.1493Z" fill="white"/>
<path d="M94.9433 154.184C94.9433 154.274 94.9104 154.352 94.8453 154.417C94.7801 154.483 94.7023 154.515 94.6129 154.515H93.6812C93.5913 154.515 93.5135 154.483 93.4483 154.417C93.3832 154.352 93.3503 154.274 93.3503 154.184V151.071C93.3503 150.581 93.2362 150.189 93.0073 149.895C92.7778 149.6 92.4267 149.453 91.9528 149.453C91.5198 149.453 91.1785 149.6 90.9294 149.895C90.6804 150.189 90.5559 150.581 90.5559 151.071V154.184C90.5559 154.274 90.523 154.352 90.4578 154.417C90.3927 154.483 90.3149 154.515 90.2255 154.515H89.2938C89.2039 154.515 89.126 154.483 89.0609 154.417C88.9958 154.352 88.9629 154.274 88.9629 154.184V148.473C88.9629 148.383 88.9958 148.306 89.0609 148.24C89.126 148.175 89.2039 148.142 89.2938 148.142H90.2255C90.3149 148.142 90.3927 148.175 90.4578 148.24C90.523 148.306 90.5559 148.383 90.5559 148.473V148.755C90.7686 148.542 91.0177 148.367 91.3036 148.228C91.5896 148.089 91.9292 148.019 92.3212 148.019C92.8199 148.019 93.2367 148.097 93.5717 148.252C93.9067 148.408 94.1765 148.616 94.3806 148.877C94.5847 149.139 94.7294 149.443 94.8159 149.79C94.9012 150.137 94.9444 150.503 94.9444 150.887V154.184H94.9433Z" fill="white"/>
<path d="M99.0729 148.019C99.522 148.019 99.9284 148.089 100.292 148.228C100.656 148.367 100.97 148.558 101.236 148.804C101.502 149.049 101.714 149.335 101.873 149.662C102.032 149.988 102.124 150.34 102.149 150.715C102.157 150.789 102.161 150.883 102.161 150.997C102.161 151.112 102.161 151.226 102.161 151.34C102.161 151.455 102.161 151.568 102.161 151.678C102.161 151.788 102.157 151.88 102.149 151.954C102.116 152.33 102.022 152.681 101.867 153.008C101.712 153.335 101.502 153.619 101.236 153.86C100.97 154.101 100.656 154.291 100.292 154.43C99.9284 154.568 99.522 154.638 99.0729 154.638C98.6232 154.638 98.2167 154.568 97.8535 154.43C97.4897 154.291 97.1749 154.101 96.9091 153.86C96.6433 153.619 96.4329 153.335 96.2778 153.008C96.1222 152.681 96.0282 152.33 95.9959 151.954C95.9878 151.88 95.9821 151.788 95.978 151.678C95.9734 151.568 95.9717 151.455 95.9717 151.34C95.9717 151.226 95.9734 151.112 95.978 150.997C95.9821 150.883 95.9884 150.789 95.9959 150.715C96.0207 150.34 96.1124 149.988 96.2721 149.662C96.4312 149.335 96.6439 149.049 96.9091 148.804C97.1749 148.558 97.4897 148.367 97.8535 148.228C98.2167 148.089 98.6232 148.019 99.0729 148.019ZM100.556 150.777C100.531 150.524 100.472 150.313 100.378 150.146C100.284 149.978 100.168 149.845 100.029 149.747C99.8904 149.649 99.7388 149.582 99.5756 149.546C99.4124 149.509 99.2452 149.49 99.0734 149.49C98.9016 149.49 98.7339 149.509 98.5707 149.546C98.4075 149.582 98.2559 149.65 98.1175 149.747C97.9786 149.845 97.8621 149.978 97.7676 150.146C97.6736 150.313 97.6142 150.524 97.5894 150.777C97.5814 150.842 97.5756 150.924 97.5716 151.022C97.567 151.12 97.5652 151.223 97.5652 151.329C97.5652 151.435 97.567 151.539 97.5716 151.641C97.5756 151.743 97.5819 151.823 97.5894 151.88C97.6142 152.133 97.6736 152.344 97.7676 152.511C97.8616 152.679 97.978 152.812 98.1175 152.91C98.2559 153.008 98.4075 153.075 98.5707 153.112C98.7339 153.149 98.9016 153.167 99.0734 153.167C99.2452 153.167 99.4124 153.15 99.5756 153.112C99.7388 153.075 99.8904 153.008 100.029 152.91C100.168 152.812 100.284 152.679 100.378 152.511C100.472 152.344 100.531 152.134 100.556 151.88C100.564 151.823 100.568 151.743 100.568 151.641C100.568 151.539 100.568 151.435 100.568 151.329C100.568 151.222 100.568 151.12 100.568 151.022C100.568 150.924 100.564 150.842 100.556 150.777Z" fill="white"/>
<path d="M104.589 152.777C104.679 152.777 104.757 152.81 104.822 152.875C104.887 152.94 104.92 153.018 104.92 153.107V154.186C104.92 154.276 104.887 154.354 104.822 154.419C104.757 154.484 104.679 154.517 104.589 154.517H103.535C103.445 154.517 103.367 154.484 103.302 154.419C103.237 154.354 103.204 154.276 103.204 154.186V153.107C103.204 153.018 103.237 152.94 103.302 152.875C103.367 152.81 103.445 152.777 103.535 152.777H104.589ZM104.859 151.71C104.859 151.8 104.826 151.877 104.761 151.943C104.696 152.008 104.618 152.041 104.528 152.041H103.597C103.507 152.041 103.429 152.008 103.364 151.943C103.299 151.877 103.266 151.8 103.266 151.71V146.268C103.266 146.178 103.299 146.1 103.364 146.035C103.429 145.97 103.507 145.937 103.597 145.937H104.528C104.618 145.937 104.696 145.97 104.761 146.035C104.826 146.1 104.859 146.178 104.859 146.268V151.71Z" fill="white"/>
<path d="M50.3296 125.967C56.0079 121.717 59.5657 115.648 59.5657 108.905C59.5657 96.0554 46.6606 85.6392 30.7414 85.6392C14.8221 85.6392 1.91699 96.0554 1.91699 108.905C1.91699 121.754 14.8221 132.17 30.7414 132.17C34.7938 132.17 38.6485 131.492 42.1475 130.274C47.0613 133.591 55.7462 132.229 58.6156 127.977C55.1806 128.726 52.0154 127.985 50.3296 125.967Z" fill="#F0F0F0"/>
<path d="M7.83657 107.842C7.86886 107.245 7.98359 106.681 8.18134 106.153C8.37851 105.624 8.66966 105.166 9.05363 104.776C9.43818 104.387 9.91844 104.077 10.4944 103.848C11.0709 103.619 11.7541 103.503 12.544 103.503C13.3229 103.503 14.0009 103.615 14.5768 103.84C15.1534 104.064 15.6336 104.373 16.0176 104.768C16.4021 105.163 16.6956 105.622 16.8979 106.145C17.1009 106.667 17.2185 107.234 17.2502 107.841C17.2606 108.045 17.2681 108.268 17.2738 108.514C17.2796 108.76 17.2819 109.013 17.2819 109.274C17.2819 109.536 17.2796 109.789 17.2738 110.034C17.2681 110.28 17.2606 110.504 17.2502 110.707C17.2179 111.304 17.1032 111.868 16.9054 112.396C16.7077 112.924 16.4171 113.383 16.0331 113.773C15.6486 114.162 15.1655 114.469 14.5837 114.693C14.002 114.918 13.3223 115.029 12.5428 115.029C11.753 115.029 11.0698 114.918 10.4932 114.693C9.91728 114.469 9.43703 114.162 9.05248 113.773C8.66851 113.383 8.37736 112.924 8.18019 112.396C7.98244 111.868 7.86771 111.304 7.83542 110.707C7.82447 110.504 7.81697 110.28 7.81178 110.034C7.80602 109.789 7.80371 109.536 7.80371 109.274C7.80371 109.013 7.80602 108.759 7.81178 108.514C7.81812 108.269 7.8262 108.045 7.83657 107.842ZM15.0888 107.923C15.0461 107.154 14.7976 106.559 14.3445 106.137C13.8908 105.716 13.2906 105.505 12.5434 105.505C11.7962 105.505 11.196 105.716 10.7423 106.137C10.2886 106.558 10.0407 107.154 9.998 107.923C9.97666 108.328 9.96571 108.779 9.96571 109.275C9.96571 109.771 9.97666 110.223 9.998 110.628C10.0407 111.397 10.2886 111.989 10.7423 112.405C11.196 112.821 11.7962 113.029 12.5434 113.029C13.2906 113.029 13.8908 112.821 14.3445 112.405C14.7976 111.989 15.0461 111.397 15.0888 110.628C15.1101 110.223 15.1211 109.772 15.1211 109.275C15.1211 108.779 15.1101 108.328 15.0888 107.923Z" fill="white"/>
<path d="M26.6323 114.437C26.6323 114.555 26.5897 114.656 26.5038 114.742C26.4184 114.826 26.317 114.87 26.1999 114.87H24.9834C24.8658 114.87 24.7644 114.827 24.6796 114.742C24.5943 114.656 24.5511 114.555 24.5511 114.437V110.371C24.5511 109.731 24.4017 109.218 24.1031 108.834C23.8044 108.45 23.3455 108.258 22.7263 108.258C22.1607 108.258 21.7151 108.45 21.3899 108.834C21.0636 109.218 20.901 109.731 20.901 110.371V114.437C20.901 114.555 20.8584 114.656 20.773 114.742C20.6877 114.826 20.5862 114.87 20.4692 114.87H19.2527C19.1351 114.87 19.0336 114.827 18.9483 114.742C18.863 114.656 18.8203 114.555 18.8203 114.437V103.936C18.8203 103.818 18.8624 103.716 18.9483 103.631C19.0342 103.546 19.1351 103.503 19.2527 103.503H20.4692C20.5862 103.503 20.6877 103.546 20.773 103.631C20.8578 103.716 20.901 103.818 20.901 103.936V107.345C21.1783 107.068 21.5041 106.838 21.8777 106.657C22.2507 106.476 22.694 106.385 23.2066 106.385C23.8575 106.385 24.4017 106.486 24.8393 106.689C25.2769 106.891 25.6292 107.164 25.8961 107.505C26.1625 107.847 26.3521 108.244 26.464 108.698C26.5758 109.151 26.6323 109.629 26.6323 110.13V114.437Z" fill="white"/>
<path d="M39.4234 114.436C39.4234 114.554 39.3807 114.655 39.2948 114.741C39.2095 114.826 39.108 114.869 38.991 114.869H37.7745C37.6569 114.869 37.5554 114.826 37.4706 114.741C37.3853 114.655 37.3421 114.554 37.3421 114.436V110.37C37.3421 109.73 37.1927 109.218 36.8941 108.833C36.5949 108.449 36.1365 108.257 35.5173 108.257C34.9518 108.257 34.5061 108.449 34.1809 108.833C33.8552 109.218 33.692 109.73 33.692 110.37V114.436C33.692 114.554 33.6494 114.655 33.564 114.741C33.4787 114.826 33.3772 114.869 33.2602 114.869H32.0437C31.9261 114.869 31.8246 114.826 31.7393 114.741C31.654 114.655 31.6113 114.554 31.6113 114.436V106.977C31.6113 106.86 31.6534 106.758 31.7393 106.673C31.8246 106.587 31.9261 106.544 32.0437 106.544H33.2602C33.3772 106.544 33.4787 106.587 33.564 106.673C33.6488 106.758 33.692 106.86 33.692 106.977V107.345C33.9693 107.068 34.2951 106.838 34.6687 106.657C35.0417 106.476 35.4851 106.385 35.9976 106.385C36.6485 106.385 37.1927 106.486 37.6303 106.688C38.0679 106.891 38.4202 107.163 38.6871 107.505C38.9535 107.847 39.1432 108.244 39.255 108.698C39.3669 109.151 39.4234 109.629 39.4234 110.13V114.436Z" fill="white"/>
<path d="M44.8169 106.385C45.4044 106.385 45.9348 106.475 46.4105 106.657C46.8849 106.838 47.296 107.089 47.6431 107.41C47.9896 107.73 48.2675 108.103 48.475 108.53C48.6832 108.957 48.8031 109.416 48.8354 109.907C48.8463 110.003 48.8515 110.126 48.8515 110.275C48.8515 110.425 48.8515 110.574 48.8515 110.724C48.8515 110.873 48.8515 111.02 48.8515 111.164C48.8515 111.308 48.8457 111.428 48.8354 111.524C48.7927 112.015 48.6699 112.474 48.467 112.901C48.264 113.328 47.9896 113.699 47.6425 114.014C47.2954 114.329 46.8844 114.576 46.4099 114.758C45.9348 114.939 45.4038 115.03 44.8163 115.03C44.2294 115.03 43.6984 114.94 43.2234 114.758C42.7483 114.576 42.3378 114.329 41.9908 114.014C41.6437 113.699 41.3687 113.328 41.1657 112.901C40.9628 112.474 40.8406 112.015 40.7973 111.524C40.7864 111.428 40.7789 111.308 40.7737 111.164C40.7679 111.02 40.7656 110.873 40.7656 110.724C40.7656 110.574 40.7679 110.424 40.7737 110.275C40.7789 110.126 40.7864 110.003 40.7973 109.907C40.8296 109.416 40.9501 108.958 41.1577 108.53C41.3658 108.103 41.6437 107.729 41.9902 107.41C42.3373 107.089 42.7472 106.839 43.2228 106.657C43.6985 106.475 44.23 106.385 44.8169 106.385ZM46.7541 109.987C46.7218 109.656 46.6445 109.381 46.5223 109.162C46.3989 108.943 46.2467 108.77 46.0657 108.642C45.8847 108.514 45.6869 108.425 45.4736 108.378C45.2603 108.33 45.0412 108.306 44.8169 108.306C44.5927 108.306 44.3741 108.33 44.1608 108.378C43.9469 108.425 43.7498 108.514 43.5682 108.642C43.3871 108.77 43.2349 108.943 43.1121 109.162C42.9893 109.381 42.9121 109.656 42.8804 109.987C42.8694 110.072 42.8613 110.179 42.8561 110.307C42.8504 110.435 42.8481 110.568 42.8481 110.707C42.8481 110.846 42.8504 110.982 42.8561 111.115C42.8613 111.249 42.8694 111.353 42.8804 111.427C42.9126 111.758 42.9893 112.033 43.1121 112.252C43.2349 112.471 43.3871 112.645 43.5682 112.772C43.7498 112.9 43.9469 112.988 44.1608 113.036C44.3741 113.084 44.5927 113.108 44.8169 113.108C45.0412 113.108 45.2603 113.084 45.4736 113.036C45.6869 112.988 45.8847 112.9 46.0657 112.772C46.2467 112.644 46.3989 112.471 46.5223 112.252C46.6445 112.033 46.7224 111.758 46.7541 111.427C46.7645 111.353 46.7696 111.248 46.7696 111.115C46.7696 110.982 46.7696 110.846 46.7696 110.707C46.7696 110.568 46.7696 110.435 46.7696 110.307C46.7702 110.179 46.7645 110.072 46.7541 109.987Z" fill="white"/>
<path d="M52.0211 112.596C52.1387 112.596 52.2402 112.639 52.3249 112.724C52.4102 112.81 52.4535 112.911 52.4535 113.028V114.437C52.4535 114.554 52.4108 114.656 52.3249 114.741C52.2402 114.826 52.1387 114.869 52.0211 114.869H50.6443C50.5267 114.869 50.4252 114.826 50.3405 114.741C50.2552 114.656 50.2119 114.554 50.2119 114.437V113.028C50.2119 112.911 50.2546 112.81 50.3405 112.724C50.4252 112.639 50.5267 112.596 50.6443 112.596H52.0211ZM52.3733 111.204C52.3733 111.321 52.3307 111.422 52.2448 111.507C52.1589 111.593 52.058 111.635 51.9409 111.635H50.7245C50.6068 111.635 50.5054 111.593 50.4206 111.507C50.3353 111.422 50.2921 111.321 50.2921 111.204V104.095C50.2921 103.978 50.3347 103.877 50.4206 103.792C50.5054 103.706 50.6068 103.663 50.7245 103.663H51.9409C52.058 103.663 52.1594 103.706 52.2448 103.792C52.3301 103.877 52.3733 103.978 52.3733 104.095V111.204Z" fill="white"/>
<path d="M100.154 63.5199C109.016 56.8875 114.569 47.4139 114.569 36.8899C114.569 16.8346 94.4269 0.576904 69.58 0.576904C44.7332 0.576904 24.5908 16.8346 24.5908 36.8899C24.5908 56.9451 44.7332 73.2028 69.58 73.2028C75.9052 73.2028 81.9219 72.1443 87.3828 70.2429C95.0524 75.4201 108.608 73.2939 113.086 66.6586C107.725 67.8278 102.784 66.6707 100.154 63.5199Z" fill="white"/>
<path d="M69.5774 73.779C44.4527 73.779 24.0117 57.2301 24.0117 36.8895C24.0117 16.5488 44.4527 0 69.5774 0C94.7022 0 115.143 16.5488 115.143 36.8895C115.143 46.9552 109.998 56.6571 101 63.5991C103.553 66.2068 108.064 67.1632 112.961 66.0955C113.196 66.0459 113.429 66.141 113.561 66.3348C113.693 66.5302 113.693 66.7856 113.562 66.9811C111.351 70.2563 106.847 72.6749 101.512 73.4509C96.1862 74.2258 91.0262 73.2895 87.3001 70.8807C81.6771 72.804 75.7164 73.779 69.5774 73.779ZM69.5774 1.15249C45.0886 1.15249 25.1648 17.1841 25.1648 36.8889C25.1648 56.5937 45.0886 72.6253 69.5774 72.6253C75.6852 72.6253 81.6108 71.64 87.1905 69.6977C87.3629 69.6371 87.552 69.6625 87.7031 69.764C91.1588 72.0972 96.2582 73.0473 101.346 72.3094C105.697 71.6758 109.44 69.9139 111.683 67.4936C106.694 68.1889 102.194 66.8634 99.7094 63.888C99.6079 63.7669 99.5606 63.6089 99.5791 63.4515C99.5975 63.2947 99.6794 63.1517 99.8062 63.0566C108.821 56.3112 113.991 46.773 113.991 36.8877C113.99 17.1842 94.0669 1.15249 69.5774 1.15249Z" fill="#455A64"/>
<path d="M31.8947 34.1531C31.9477 33.1621 32.138 32.2287 32.4654 31.3529C32.7923 30.4766 33.2749 29.7161 33.9119 29.0698C34.549 28.4241 35.3458 27.911 36.3017 27.5299C37.257 27.15 38.3899 26.9597 39.6998 26.9597C40.9912 26.9597 42.1154 27.1454 43.0713 27.5172C44.0266 27.8891 44.8234 28.4022 45.4611 29.0571C46.0981 29.7121 46.5842 30.4731 46.9208 31.3396C47.2564 32.2073 47.4518 33.1453 47.5049 34.1537C47.5222 34.4904 47.536 34.8623 47.5447 35.2693C47.5533 35.6763 47.5573 36.0966 47.5573 36.5302C47.5573 36.9643 47.5527 37.384 47.5447 37.7916C47.5354 38.1987 47.5222 38.5705 47.5049 38.9066C47.4518 39.8983 47.2616 40.8311 46.9341 41.7069C46.6066 42.5832 46.1247 43.3442 45.4876 43.9899C44.8505 44.6362 44.0491 45.1447 43.0852 45.516C42.1201 45.8879 40.9918 46.0735 39.7003 46.0735C38.391 46.0735 37.2582 45.8879 36.3023 45.516C35.3469 45.1441 34.5502 44.6362 33.9125 43.9899C33.276 43.3442 32.7935 42.5832 32.466 41.7069C32.1385 40.8305 31.9483 39.8977 31.8952 38.9066C31.8774 38.5705 31.8641 38.1987 31.8555 37.7916C31.8462 37.3846 31.8428 36.9643 31.8428 36.5302C31.8428 36.0966 31.8468 35.6769 31.8555 35.2693C31.8635 34.8611 31.8768 34.4898 31.8947 34.1531ZM43.92 34.2857C43.8491 33.0116 43.4374 32.0251 42.6851 31.3258C41.9327 30.627 40.9376 30.2771 39.6986 30.2771C38.4602 30.2771 37.464 30.627 36.7122 31.3258C35.9592 32.0251 35.5482 33.0116 35.4772 34.2857C35.4415 34.9585 35.4242 35.7063 35.4242 36.529C35.4242 37.3523 35.4415 38.1001 35.4772 38.7723C35.5482 40.047 35.9592 41.0289 36.7122 41.719C37.464 42.4091 38.4596 42.7544 39.6986 42.7544C40.937 42.7544 41.9327 42.4091 42.6851 41.719C43.4374 41.0289 43.8491 40.047 43.92 38.7723C43.9552 38.1001 43.973 37.3523 43.973 36.529C43.973 35.7063 43.9552 34.9585 43.92 34.2857Z" fill="#E8505B"/>
<path d="M63.0606 45.0888C63.0606 45.2837 62.9897 45.452 62.8484 45.5933C62.7066 45.7351 62.5388 45.8055 62.3439 45.8055H60.3267C60.1318 45.8055 59.9634 45.7351 59.8222 45.5933C59.6804 45.452 59.61 45.2837 59.61 45.0888V38.3463C59.61 37.2843 59.3615 36.4351 58.8669 35.798C58.3711 35.1609 57.6094 34.8421 56.5838 34.8421C55.6452 34.8421 54.9067 35.1609 54.367 35.798C53.8268 36.4345 53.5576 37.2843 53.5576 38.3463V45.0888C53.5576 45.2837 53.4867 45.452 53.3454 45.5933C53.2036 45.7351 53.0352 45.8055 52.8409 45.8055H50.8231C50.6282 45.8055 50.4604 45.7351 50.3192 45.5933C50.1774 45.452 50.1064 45.2837 50.1064 45.0888V27.6746C50.1064 27.4798 50.1774 27.312 50.3192 27.1702C50.4604 27.0289 50.6282 26.958 50.8231 26.958H52.8409C53.0352 26.958 53.2036 27.0289 53.3454 27.1702C53.4867 27.312 53.5576 27.4798 53.5576 27.6746V33.3293C54.0176 32.8692 54.5567 32.4887 55.1771 32.1877C55.7963 31.8874 56.5313 31.7369 57.38 31.7369C58.4593 31.7369 59.3621 31.9052 60.088 32.2414C60.8132 32.5775 61.3973 33.0289 61.8395 33.5951C62.2823 34.1618 62.5965 34.8208 62.7821 35.5731C62.9678 36.3255 63.0606 37.1177 63.0606 37.949V45.0888Z" fill="#E8505B"/>
<path d="M84.2715 45.0895C84.2715 45.2843 84.2006 45.4527 84.0593 45.5939C83.9175 45.7358 83.7497 45.8061 83.5549 45.8061H81.5376C81.3427 45.8061 81.1744 45.7358 81.0331 45.5939C80.8913 45.4527 80.821 45.2843 80.821 45.0895V38.3469C80.821 37.285 80.5725 36.4357 80.0778 35.7986C79.582 35.1616 78.8204 34.8428 77.7947 34.8428C76.8561 34.8428 76.1176 35.1616 75.578 35.7986C75.0383 36.4351 74.7685 37.285 74.7685 38.3469V45.0895C74.7685 45.2843 74.6976 45.4527 74.5563 45.5939C74.4145 45.7358 74.2462 45.8061 74.0519 45.8061H72.034C71.8391 45.8061 71.6714 45.7358 71.5301 45.5939C71.3883 45.4527 71.3174 45.2843 71.3174 45.0895V32.7188C71.3174 32.5245 71.3883 32.3562 71.5301 32.2143C71.6714 32.0731 71.8391 32.0022 72.034 32.0022H74.0519C74.2462 32.0022 74.4145 32.0731 74.5563 32.2143C74.6976 32.3562 74.7685 32.5245 74.7685 32.7188V33.3299C75.2286 32.8699 75.7676 32.4893 76.388 32.1884C77.0072 31.888 77.7423 31.7375 78.5909 31.7375C79.6702 31.7375 80.573 31.9059 81.2989 32.242C82.0242 32.5781 82.6082 33.0296 83.0504 33.5957C83.4932 34.1624 83.8074 34.8214 83.993 35.5738C84.1787 36.3262 84.2715 37.1183 84.2715 37.9497V45.0895Z" fill="#E8505B"/>
<path d="M93.216 31.7361C94.1892 31.7361 95.0696 31.8866 95.8571 32.1869C96.6441 32.4879 97.3261 32.9036 97.9009 33.4346C98.4763 33.9655 98.9364 34.5853 99.2817 35.2933C99.6271 36.0013 99.826 36.7623 99.879 37.5764C99.8963 37.7355 99.9056 37.939 99.9056 38.1869C99.9056 38.4354 99.9056 38.6822 99.9056 38.9301C99.9056 39.1785 99.9056 39.4218 99.9056 39.6605C99.9056 39.8992 99.8963 40.0987 99.879 40.2578C99.8081 41.0719 99.604 41.8335 99.2685 42.5409C98.9318 43.2483 98.4763 43.864 97.9009 44.3852C97.3261 44.9076 96.6441 45.3192 95.8571 45.6202C95.0696 45.9205 94.1892 46.071 93.216 46.071C92.2423 46.071 91.3613 45.9205 90.5744 45.6202C89.7868 45.3198 89.1054 44.9081 88.5306 44.3852C87.9552 43.864 87.4991 43.2483 87.163 42.5409C86.8269 41.8329 86.6228 41.0719 86.5525 40.2578C86.5346 40.0987 86.5213 39.8992 86.5127 39.6605C86.5035 39.4218 86.5 39.1785 86.5 38.9301C86.5 38.6822 86.504 38.4354 86.5127 38.1869C86.5219 37.939 86.5346 37.7361 86.5525 37.5764C86.6055 36.7623 86.805 36.0013 87.1498 35.2933C87.4951 34.5853 87.9546 33.9655 88.5306 33.4346C89.1054 32.9036 89.7868 32.4879 90.5744 32.1869C91.3613 31.8866 92.2428 31.7361 93.216 31.7361ZM96.4279 37.709C96.3743 37.1607 96.2463 36.7052 96.0428 36.342C95.8387 35.9794 95.5867 35.6917 95.2858 35.4795C94.9848 35.2673 94.6574 35.1209 94.304 35.0413C93.95 34.9612 93.5873 34.922 93.2155 34.922C92.843 34.922 92.481 34.9612 92.1264 35.0413C91.7724 35.1209 91.4449 35.2673 91.1446 35.4795C90.843 35.6917 90.5911 35.9794 90.3876 36.342C90.1835 36.7052 90.0561 37.1607 90.0024 37.709C89.9851 37.8508 89.9713 38.0278 89.9632 38.24C89.954 38.4527 89.95 38.6741 89.95 38.9035C89.95 39.1336 89.9546 39.3596 89.9632 39.5804C89.9719 39.8024 89.9851 39.9747 90.0024 40.0981C90.0561 40.647 90.184 41.1024 90.3876 41.4651C90.5905 41.8283 90.843 42.1154 91.1446 42.3276C91.4449 42.5403 91.7724 42.6862 92.1264 42.7657C92.4804 42.8459 92.843 42.8857 93.2155 42.8857C93.5873 42.8857 93.9494 42.8459 94.304 42.7657C94.6574 42.6862 94.9848 42.5403 95.2858 42.3276C95.5862 42.1154 95.8387 41.8283 96.0428 41.4651C96.2463 41.1024 96.3743 40.647 96.4279 40.0981C96.4452 39.9742 96.4544 39.8018 96.4544 39.5804C96.4544 39.3596 96.4544 39.1342 96.4544 38.9035C96.4544 38.6741 96.4544 38.4527 96.4544 38.24C96.4544 38.0272 96.4458 37.8508 96.4279 37.709Z" fill="#E8505B"/>
<path d="M105.162 42.0368C105.356 42.0368 105.524 42.1077 105.666 42.249C105.808 42.3908 105.878 42.5586 105.878 42.7535V45.0896C105.878 45.2844 105.808 45.4528 105.666 45.594C105.524 45.7359 105.356 45.8062 105.162 45.8062H102.879C102.684 45.8062 102.516 45.7359 102.374 45.594C102.232 45.4528 102.162 45.2844 102.162 45.0896V42.7535C102.162 42.5586 102.232 42.3908 102.374 42.249C102.516 42.1077 102.684 42.0368 102.879 42.0368H105.162ZM105.746 39.7272C105.746 39.9221 105.675 40.0899 105.534 40.2317C105.392 40.3735 105.224 40.4439 105.029 40.4439H103.012C102.816 40.4439 102.649 40.3735 102.507 40.2317C102.366 40.0899 102.295 39.9221 102.295 39.7272V27.94C102.295 27.7457 102.366 27.5774 102.507 27.4356C102.649 27.2943 102.816 27.2234 103.012 27.2234H105.029C105.224 27.2234 105.392 27.2943 105.534 27.4356C105.675 27.5774 105.746 27.7457 105.746 27.94V39.7272Z" fill="#E8505B"/>
<path d="M221.688 31.2614C221.89 30.6047 220.877 30.5782 220.514 30.7379C219.242 31.2983 218.237 32.8065 217.319 33.8217C216.15 35.1132 214.974 36.3977 213.788 37.6741C211.614 40.0154 209.359 42.2858 207.137 44.5822C206.892 44.8353 206.907 45.2365 207.064 45.5271C207.243 45.8603 207.362 45.9134 207.708 46.0875C208.108 46.2893 208.681 46.2057 208.987 45.8817C211.244 43.5012 213.417 41.0515 215.616 38.6185C216.699 37.4205 217.774 36.2155 218.844 35.0059C219.807 33.9192 221.254 32.6692 221.688 31.2614ZM225.362 48.8064C226.773 48.4617 228.675 48.2604 229.834 47.3512C230.374 46.9275 229.557 46.3273 229.168 46.2518C227.804 45.9866 226.119 46.6525 224.784 46.9627C223.088 47.357 221.389 47.7416 219.687 48.1134C216.566 48.7966 213.419 49.3755 210.284 49.9941C209.938 50.0621 209.722 50.4 209.685 50.7286C209.643 51.1045 209.71 51.2158 209.894 51.5559C210.108 51.9503 210.626 52.208 211.063 52.1169C214.274 51.4487 217.456 50.6755 220.65 49.9312C222.222 49.5663 223.793 49.1898 225.362 48.8064ZM211.159 58.777C214.281 59.7807 217.43 60.6784 220.575 61.6078C222.124 62.0655 223.676 62.5135 225.23 62.954C226.626 63.3506 228.38 64.1139 229.837 63.8954C230.516 63.7934 230.101 62.8681 229.8 62.6109C228.744 61.7063 226.95 61.4544 225.637 61.0658C223.967 60.5712 222.3 60.0673 220.636 59.5513C217.585 58.6052 214.562 57.5553 211.53 56.5464C211.196 56.4351 210.84 56.6225 210.646 56.8894C210.424 57.1956 210.427 57.3253 210.42 57.7121C210.41 58.1607 210.734 58.6409 211.159 58.777Z" fill="#E0E0E0"/>
</svg>
