<svg width="18" height="18" viewBox="0 0 18 18" fill="none" xmlns="http://www.w3.org/2000/svg">
<path d="M7.393 3.85707H10.6073C10.6073 3.43083 10.438 3.02205 10.1366 2.72065C9.83516 2.41925 9.42638 2.24993 9.00014 2.24993C8.5739 2.24993 8.16511 2.41925 7.86372 2.72065C7.56232 3.02205 7.393 3.43083 7.393 3.85707ZM6.42871 3.85707C6.42871 3.17509 6.69963 2.52103 7.18186 2.0388C7.6641 1.55656 8.31815 1.28564 9.00014 1.28564C9.68212 1.28564 10.3362 1.55656 10.8184 2.0388C11.3006 2.52103 11.5716 3.17509 11.5716 3.85707H15.5894C15.7173 3.85707 15.8399 3.90787 15.9303 3.99829C16.0208 4.08871 16.0716 4.21134 16.0716 4.33922C16.0716 4.46709 16.0208 4.58972 15.9303 4.68014C15.8399 4.77056 15.7173 4.82136 15.5894 4.82136H14.7473L13.9649 14.209C13.908 14.8919 13.5965 15.5285 13.0922 15.9925C12.588 16.4566 11.9277 16.7142 11.2424 16.7142H6.75785C6.07256 16.7142 5.41231 16.4566 4.90803 15.9925C4.40376 15.5285 4.09227 14.8919 4.03535 14.209L3.253 4.82136H2.41085C2.28298 4.82136 2.16035 4.77056 2.06993 4.68014C1.97951 4.58972 1.92871 4.46709 1.92871 4.33922C1.92871 4.21134 1.97951 4.08871 2.06993 3.99829C2.16035 3.90787 2.28298 3.85707 2.41085 3.85707H6.42871ZM4.99642 14.1286C5.03319 14.5705 5.23468 14.9825 5.56095 15.2828C5.88721 15.5831 6.31442 15.7498 6.75785 15.7499H11.2424C11.6859 15.7498 12.1131 15.5831 12.4393 15.2828C12.7656 14.9825 12.9671 14.5705 13.0039 14.1286L13.7804 4.82136H4.2205L4.99642 14.1286ZM7.55371 7.07136C7.68158 7.07136 7.80422 7.12215 7.89464 7.21257C7.98506 7.30299 8.03585 7.42563 8.03585 7.5535V13.0178C8.03585 13.1457 7.98506 13.2683 7.89464 13.3587C7.80422 13.4491 7.68158 13.4999 7.55371 13.4999C7.42584 13.4999 7.3032 13.4491 7.21278 13.3587C7.12236 13.2683 7.07157 13.1457 7.07157 13.0178V7.5535C7.07157 7.42563 7.12236 7.30299 7.21278 7.21257C7.3032 7.12215 7.42584 7.07136 7.55371 7.07136ZM10.9287 7.5535C10.9287 7.42563 10.8779 7.30299 10.7875 7.21257C10.6971 7.12215 10.5744 7.07136 10.4466 7.07136C10.3187 7.07136 10.1961 7.12215 10.1056 7.21257C10.0152 7.30299 9.96442 7.42563 9.96442 7.5535V13.0178C9.96442 13.1457 10.0152 13.2683 10.1056 13.3587C10.1961 13.4491 10.3187 13.4999 10.4466 13.4999C10.5744 13.4999 10.6971 13.4491 10.7875 13.3587C10.8779 13.2683 10.9287 13.1457 10.9287 13.0178V7.5535Z" fill="#7D7D7D"/>
</svg>
