<svg width="18" height="18" viewBox="0 0 18 18" fill="none" xmlns="http://www.w3.org/2000/svg">
<g clip-path="url(#clip0_156_2947)">
<path fill-rule="evenodd" clip-rule="evenodd" d="M13.1173 13.761C12.7799 13.761 12.5796 13.3708 12.801 13.0967C13.9082 11.7575 12.8643 10.6397 12.8221 10.5975C12.453 10.2074 13.033 9.65905 13.4021 10.0387C13.9609 10.6186 14.6674 12.1054 13.4231 13.6134C13.3493 13.7083 13.2333 13.761 13.1173 13.761ZM14.8572 18H3.14195C1.91875 18 0.916992 16.9982 0.916992 15.775V4.05975C0.916992 2.83656 1.91875 1.8348 3.14195 1.8348H4.20697V1.15993C4.20697 0.527241 4.72367 0 5.3669 0C6.01014 0 6.53738 0.527241 6.53738 1.15993V1.8348H11.4618V1.15993C11.4618 0.527241 11.989 0 12.6323 0C13.265 0 13.7922 0.527241 13.7922 1.15993V1.8348H14.8572C16.0804 1.8348 17.0822 2.83656 17.0822 4.05975V15.775C17.0822 16.9982 16.0804 18 14.8572 18ZM5.00838 2.2355V3.31107C5.00838 3.78559 5.72543 3.78559 5.72543 3.31107V1.15993C5.72543 0.695958 5.00838 0.695958 5.00838 1.15993V2.2355ZM4.20697 2.64675H3.14195C2.36163 2.64675 1.7184 3.27944 1.7184 4.05975V5.57821H16.2702V4.05975C16.2702 3.27944 15.6376 2.64675 14.8572 2.64675H13.7922V3.31107C13.7922 3.95431 13.265 4.48155 12.6323 4.48155C11.989 4.48155 11.4618 3.95431 11.4618 3.31107V2.64675H6.53738V3.31107C6.53738 3.95431 6.01014 4.48155 5.3669 4.48155C4.72367 4.48155 4.20697 3.95431 4.20697 3.31107V2.64675ZM1.7184 6.37961V15.775C1.7184 16.5554 2.36163 17.188 3.14195 17.188H14.8572C15.6376 17.188 16.2702 16.5554 16.2702 15.775V6.37961H1.7184ZM12.2738 2.2355V3.31107C12.2738 3.78559 12.9908 3.78559 12.9908 3.31107V1.15993C12.9908 0.695958 12.2738 0.695958 12.2738 1.15993V2.2355ZM12.9592 15.522H10.2597C10.1964 16.1652 9.65864 16.6714 8.99432 16.6714C8.34054 16.6714 7.79221 16.1652 7.73949 15.522H5.04001C4.71312 15.522 4.51277 15.1424 4.71312 14.8787C5.61998 13.6239 5.92578 12.3796 5.80979 11.5044C5.65161 10.239 6.34757 9.058 7.47587 8.48858C7.44423 7.6239 8.14019 6.90685 8.99432 6.90685C9.85899 6.90685 10.555 7.6239 10.5233 8.48858C11.6516 9.058 12.3476 10.239 12.1789 11.5044C12.0523 12.5272 12.4952 13.7926 13.2861 14.8787C13.4759 15.1424 13.2861 15.522 12.9592 15.522ZM9.44775 15.522H8.55144C8.66743 15.9754 9.33175 15.9754 9.44775 15.522ZM8.31945 8.19332C8.74124 8.10896 9.24739 8.10896 9.67973 8.19332C9.45829 7.55009 8.54089 7.55009 8.31945 8.19332ZM5.77815 14.71H12.2105C12.1578 14.6046 12.0945 14.5097 12.0418 14.4042H5.95741L5.77815 14.71ZM11.6832 13.6028C11.3036 12.5694 11.3353 11.7786 11.3774 11.3989C11.5567 10.0598 10.4179 8.942 9.00486 8.942C7.56022 8.942 6.44247 10.0598 6.61119 11.3989C6.66392 11.8313 6.68501 12.6011 6.31594 13.6028H11.6832ZM7.54968 11.7575C7.30715 11.7575 7.11734 11.536 7.15952 11.2935C7.38096 9.7645 8.54089 9.31107 9.09977 9.31107C9.61646 9.31107 9.63755 10.0914 9.12086 10.1125C9.01541 10.123 8.12964 10.2074 7.95038 11.4095C7.91875 11.6098 7.75003 11.7575 7.54968 11.7575ZM3.62701 14.5624C3.51102 14.5624 3.39502 14.5097 3.32121 14.4148C1.08571 11.6731 3.3423 9.23726 3.36339 9.21617C3.72191 8.82601 4.31242 9.37434 3.94335 9.7645C3.86954 9.84886 2.16128 11.7258 3.94335 13.9086C4.16479 14.1722 3.96444 14.5624 3.62701 14.5624ZM4.88184 13.761C4.76585 13.761 4.64986 13.7083 4.57604 13.6134C3.32121 12.1054 4.03826 10.6186 4.58659 10.0387C4.95566 9.65905 5.53562 10.2074 5.1771 10.5975C5.0611 10.7135 4.11207 11.7996 5.19819 13.0967C5.40908 13.3708 5.20873 13.761 4.88184 13.761ZM14.3616 14.5624C14.0347 14.5624 13.8344 14.1722 14.0558 13.9086C15.8484 11.7047 14.1191 9.83831 14.0453 9.7645C13.6868 9.37434 14.2667 8.82601 14.6358 9.21617C14.6569 9.23726 16.9135 11.6731 14.678 14.4148C14.5936 14.5097 14.4776 14.5624 14.3616 14.5624Z" fill="#E1080C"/>
</g>
<defs>
<clipPath id="clip0_156_2947">
<rect width="18" height="18" fill="white"/>
</clipPath>
</defs>
</svg>
