<svg width="32" height="32" viewBox="0 0 32 32" fill="none" xmlns="http://www.w3.org/2000/svg">
<path d="M10.7524 6.94248C10.1574 6.93051 9.56981 6.80783 9.01969 6.58073C8.71176 6.46382 8.41601 6.31704 8.13669 6.14248C7.79001 6.23401 7.4286 6.25573 7.07346 6.20637C6.71832 6.15702 6.37652 6.03757 6.06794 5.85498C4.30894 4.79998 4.59994 2.71674 4.60244 2.69574C4.60734 2.66295 4.62508 2.63345 4.65173 2.61374C4.67838 2.59402 4.71178 2.5857 4.74456 2.59061C4.77735 2.59552 4.80685 2.61325 4.82656 2.6399C4.84628 2.66655 4.8546 2.69995 4.84969 2.73274C4.84669 2.75224 4.58319 4.67273 6.19644 5.64073C6.69692 5.93874 7.28756 6.04774 7.86144 5.94798C7.22794 5.45048 7.08644 4.93848 7.06969 4.62148C7.06134 4.34 7.13304 4.06193 7.27647 3.81959C7.4199 3.57726 7.62917 3.3806 7.87994 3.25249C8.02273 3.16836 8.18212 3.11632 8.34704 3.09998C8.51197 3.08364 8.67847 3.1034 8.83499 3.15787C8.99151 3.21234 9.1343 3.30023 9.25345 3.41543C9.37259 3.53063 9.46523 3.67038 9.52494 3.82498C9.6692 4.13422 9.70558 4.4829 9.62826 4.81526C9.55094 5.14761 9.36438 5.44443 9.09844 5.65823C8.90603 5.82111 8.68755 5.95042 8.45219 6.04073C8.66433 6.15848 8.88445 6.26123 9.11094 6.34823C10.2344 6.78623 11.2109 6.80648 12.0139 6.40798C13.2357 5.80223 13.6422 4.42173 13.6462 4.40798C13.6507 4.39219 13.6583 4.37744 13.6685 4.36458C13.6787 4.35172 13.6914 4.341 13.7057 4.33302C13.7201 4.32505 13.7359 4.31998 13.7522 4.31811C13.7685 4.31624 13.785 4.3176 13.8008 4.32211C13.8166 4.32662 13.8314 4.3342 13.8442 4.34442C13.8571 4.35463 13.8678 4.36728 13.8758 4.38164C13.8838 4.39599 13.8888 4.41178 13.8907 4.4281C13.8926 4.44442 13.8912 4.46094 13.8867 4.47673C13.8692 4.53773 13.4447 5.97673 12.1249 6.63198C11.6979 6.84113 11.2279 6.94746 10.7524 6.94248ZM8.47494 3.35149C8.30765 3.3538 8.14334 3.39606 7.99569 3.47473C7.78745 3.5805 7.61349 3.74318 7.49401 3.94386C7.37453 4.14455 7.31443 4.37501 7.32069 4.60848C7.33594 4.90398 7.48419 5.39698 8.18194 5.87273C8.45845 5.79146 8.71522 5.65401 8.93619 5.46898C9.1621 5.28957 9.32061 5.03895 9.38589 4.75795C9.45117 4.47694 9.41938 4.18211 9.29569 3.92148C9.23889 3.77604 9.14658 3.64712 9.02719 3.54648C8.87097 3.41998 8.67596 3.35112 8.47494 3.35149Z" fill="#E6A147"/>
<path d="M21.0971 6.9425C20.6216 6.9474 20.1516 6.84099 19.7246 6.63175C18.4048 5.97725 17.9803 4.5375 17.9628 4.4765C17.9537 4.44461 17.9576 4.4104 17.9737 4.3814C17.9898 4.35241 18.0168 4.33099 18.0487 4.32188C18.0806 4.31276 18.1148 4.31669 18.1438 4.33279C18.1728 4.3489 18.1942 4.37586 18.2033 4.40775C18.2073 4.4215 18.6173 5.805 19.8376 6.40775C20.6401 6.8045 21.6163 6.78425 22.7376 6.34675C22.9641 6.2598 23.1842 6.15705 23.3963 6.03925C23.161 5.94894 22.9425 5.81963 22.7501 5.65675C22.4846 5.4429 22.2985 5.14629 22.2214 4.81427C22.1443 4.48225 22.1806 4.13396 22.3246 3.825C22.3843 3.6704 22.4769 3.53065 22.5961 3.41545C22.7152 3.30025 22.858 3.21236 23.0145 3.15789C23.1711 3.10341 23.3376 3.08366 23.5025 3.1C23.6674 3.11634 23.8268 3.16838 23.9696 3.2525C24.2204 3.38062 24.4296 3.57727 24.573 3.81961C24.7165 4.06195 24.7882 4.34002 24.7798 4.6215C24.7636 4.9385 24.6216 5.4505 23.9881 5.948C24.562 6.04758 25.1525 5.93859 25.6531 5.64075C27.2701 4.67025 27.0031 2.75225 26.9998 2.733C26.9949 2.70018 27.0032 2.66674 27.0229 2.64004C27.0426 2.61334 27.0721 2.59557 27.105 2.59063C27.1378 2.58569 27.1712 2.59399 27.1979 2.6137C27.2246 2.63342 27.2424 2.66293 27.2473 2.69575C27.2503 2.71675 27.5406 4.79975 25.7816 5.855C25.473 6.03752 25.1312 6.15691 24.776 6.20627C24.4209 6.25562 24.0595 6.23395 23.7128 6.1425C23.4335 6.31706 23.1378 6.46384 22.8298 6.58075C22.2797 6.8079 21.6921 6.93058 21.0971 6.9425ZM23.3758 3.3515C23.1748 3.35141 22.9799 3.42053 22.8238 3.54725C22.7044 3.64789 22.6121 3.7768 22.5553 3.92225C22.4316 4.18288 22.3999 4.47771 22.4651 4.75871C22.5304 5.03972 22.6889 5.29034 22.9148 5.46975C23.1358 5.65478 23.3926 5.79223 23.6691 5.8735C24.3668 5.3985 24.5151 4.90475 24.5303 4.60925C24.5366 4.37578 24.4765 4.14532 24.357 3.94463C24.2375 3.74395 24.0636 3.58127 23.8553 3.4755C23.7077 3.39645 23.5433 3.35393 23.3758 3.3515Z" fill="#FCC071"/>
<path d="M16.0054 10.6615C16.0004 10.664 15.9979 10.669 15.9929 10.6715C13.9479 9.04399 10.9504 8.04649 11.8554 5.16649C12.3904 3.68649 14.1754 3.55899 15.2654 4.56899C15.6053 4.8853 15.8561 5.2853 15.9929 5.72899C16.6704 3.59899 19.4429 3.25649 20.1304 5.16649C21.0329 8.04149 18.0504 9.03899 16.0054 10.6615Z" fill="#E6989E"/>
<path d="M30.1788 29.2916H16.5488L17.2638 20.7941C17.2736 20.6481 17.3151 20.506 17.3855 20.3778C17.4559 20.2495 17.5534 20.1382 17.6713 20.0516C18.0595 19.8056 18.496 19.6461 18.9513 19.5841C19.7613 19.4441 20.9488 19.2291 21.8863 19.0591C22.7238 18.9066 23.3638 18.7891 23.3638 18.7891C23.3638 18.7891 26.2438 19.3191 27.7763 19.5841C28.2319 19.6452 28.6686 19.8047 29.0563 20.0516C29.1745 20.1381 29.2724 20.2493 29.3433 20.3776C29.4141 20.5058 29.4561 20.6479 29.4663 20.7941L30.1788 29.2916Z" fill="#555057"/>
<path d="M21.8863 19.059L21.6413 19.779C18.3638 20.104 17.7838 25.919 17.7238 29.2915H16.5488L17.2638 20.794C17.2736 20.648 17.3151 20.5059 17.3855 20.3777C17.4559 20.2494 17.5534 20.1381 17.6713 20.0515C18.0595 19.8055 18.496 19.646 18.9513 19.584C19.7613 19.444 20.9501 19.229 21.8863 19.059Z" fill="#3E3B40"/>
<path d="M23.3643 19.4153L21.9868 19.509L21.2256 20.8063L23.3608 26.4465L25.6721 21.4108L25.0758 19.727L24.3291 19.2805L23.3643 19.4153Z" fill="#C2CBD5"/>
<path d="M22.1064 17.4733H24.6239V19.6908H22.1064V17.4733Z" fill="#FFCDBE"/>
<path d="M24.6249 17.4733V18.5108C24.2204 18.6644 23.7892 18.7353 23.3568 18.7194C22.9244 18.7035 22.4996 18.6011 22.1074 18.4183V17.4733H24.6249Z" fill="#E69A85"/>
<path d="M25.754 15.1965C24.5665 15.119 22.6565 14.894 21.269 14.719C20.2765 14.594 19.549 14.494 19.549 14.494C19.1436 14.0677 18.8569 13.5427 18.7175 12.9712C18.578 12.3997 18.5906 11.8016 18.754 11.2365H18.3965C18.3965 11.2365 19.3715 8.26652 23.204 8.18902C23.2565 8.18652 23.309 8.18652 23.3615 8.18652C27.4665 8.18652 27.6215 11.9015 27.5815 12.0115C27.5815 12.0115 27.794 15.3315 25.754 15.1965Z" fill="#BE694E"/>
<path d="M21.269 14.719C20.2765 14.594 19.549 14.494 19.549 14.494C19.1802 14.1062 18.9091 13.6361 18.7583 13.1226C18.6074 12.6091 18.5811 12.0671 18.6815 11.5415C18.7015 11.4415 18.724 11.339 18.754 11.2365H18.3965C18.3965 11.2365 19.3715 8.26646 23.204 8.18896C21.314 10.05 21.114 12.7865 21.269 14.719Z" fill="#9C5640"/>
<path d="M20.3578 14.423C20.3578 14.423 19.7128 13.6588 19.296 14.1848C18.8793 14.7108 19.3258 16.3778 20.8838 16.0405L20.3578 14.423Z" fill="#E69A85"/>
<path d="M26.3717 14.423C26.3717 14.423 27.0167 13.6588 27.4335 14.1848C27.8502 14.7108 27.4037 16.3778 25.8457 16.0405L26.3717 14.423Z" fill="#E8AB9A"/>
<path d="M26.4912 16.6501C26.0987 17.5776 24.6787 17.9826 23.8937 18.1401C23.7183 18.1749 23.54 18.1925 23.3612 18.1926C23.1849 18.1926 23.009 18.175 22.8362 18.1401C22.0512 17.9826 20.6312 17.5776 20.2387 16.6501C19.8212 15.5226 19.9337 13.5451 19.9337 13.5451C20.3677 13.5341 20.8 13.4873 21.2262 13.4051C22.9537 13.0801 24.2787 12.2101 25.0137 11.0801C25.0915 11.6037 25.2941 12.101 25.6043 12.53C25.9145 12.959 26.3233 13.3071 26.7962 13.5451C26.7962 13.5451 26.9062 15.5216 26.4912 16.6501Z" fill="#FFCDBE"/>
<path d="M23.3627 16.7446C23.0775 16.7556 22.7975 16.6663 22.5714 16.4922C22.3452 16.3181 22.1874 16.0702 22.1252 15.7916C22.1158 15.7598 22.1195 15.7256 22.1355 15.6965C22.1514 15.6674 22.1782 15.6458 22.21 15.6365C22.2419 15.6272 22.2761 15.6309 22.3052 15.6468C22.3343 15.6627 22.3558 15.6896 22.3652 15.7214C22.4218 15.9426 22.5504 16.1387 22.7309 16.2788C22.9113 16.4188 23.1331 16.4948 23.3615 16.4948C23.5899 16.4948 23.8118 16.4188 23.9922 16.2788C24.1726 16.1387 24.3013 15.9426 24.3579 15.7214C24.3672 15.6896 24.3888 15.6627 24.4179 15.6468C24.4323 15.6389 24.4481 15.634 24.4644 15.6322C24.4808 15.6304 24.4973 15.6319 24.513 15.6365C24.5288 15.6411 24.5435 15.6488 24.5563 15.6591C24.5691 15.6694 24.5797 15.6821 24.5876 15.6965C24.5955 15.7109 24.6004 15.7267 24.6022 15.743C24.604 15.7594 24.6025 15.7759 24.5979 15.7916C24.5358 16.0698 24.3783 16.3174 24.1526 16.4915C23.927 16.6656 23.6475 16.7552 23.3627 16.7446Z" fill="#D97355"/>
<path d="M21.987 14.4326C22.1405 14.4326 22.265 14.239 22.265 14.0001C22.265 13.7613 22.1405 13.5676 21.987 13.5676C21.8334 13.5676 21.709 13.7613 21.709 14.0001C21.709 14.239 21.8334 14.4326 21.987 14.4326Z" fill="#9C5640"/>
<path d="M24.737 14.4326C24.8905 14.4326 25.015 14.239 25.015 14.0001C25.015 13.7613 24.8905 13.5676 24.737 13.5676C24.5834 13.5676 24.459 13.7613 24.459 14.0001C24.459 14.239 24.5834 14.4326 24.737 14.4326Z" fill="#9C5640"/>
<path d="M23.3621 15.4311C23.2428 15.4311 23.1283 15.3837 23.0439 15.2993C22.9595 15.2149 22.9121 15.1004 22.9121 14.9811C22.9121 14.9479 22.9253 14.9161 22.9487 14.8927C22.9722 14.8692 23.004 14.8561 23.0371 14.8561C23.0703 14.8561 23.1021 14.8692 23.1255 14.8927C23.1489 14.9161 23.1621 14.9479 23.1621 14.9811C23.1621 15.0341 23.1832 15.085 23.2207 15.1225C23.2582 15.16 23.3091 15.1811 23.3621 15.1811C23.4152 15.1811 23.466 15.16 23.5035 15.1225C23.541 15.085 23.5621 15.0341 23.5621 14.9811C23.5621 14.9479 23.5753 14.9161 23.5987 14.8927C23.6222 14.8692 23.654 14.8561 23.6871 14.8561C23.7203 14.8561 23.7521 14.8692 23.7755 14.8927C23.7989 14.9161 23.8121 14.9479 23.8121 14.9811C23.8121 15.1004 23.7647 15.2149 23.6803 15.2993C23.5959 15.3837 23.4815 15.4311 23.3621 15.4311Z" fill="#D97355"/>
<path d="M19.2141 11.325L18.7241 11.53C18.7107 11.5365 18.6964 11.5407 18.6816 11.5425C18.7016 11.4425 18.7241 11.34 18.7541 11.2375L19.0741 11.105C19.1105 11.0887 19.1512 11.0847 19.1901 11.0937C19.2289 11.1028 19.2637 11.1243 19.2891 11.155C19.2974 11.1708 19.3021 11.1883 19.3027 11.2062C19.3033 11.224 19.2998 11.2418 19.2926 11.2581C19.2854 11.2745 19.2746 11.289 19.261 11.3005C19.2474 11.3121 19.2314 11.3205 19.2141 11.325Z" fill="#6B3B2C"/>
<path d="M19.6723 13.8198C19.5927 13.8214 19.5132 13.8139 19.4353 13.7975C19.4037 13.789 19.3768 13.7685 19.3602 13.7404C19.3435 13.7123 19.3386 13.6788 19.3464 13.6471C19.3541 13.6154 19.374 13.5879 19.4018 13.5707C19.4295 13.5534 19.4629 13.5477 19.4948 13.5548C19.6418 13.5789 19.792 13.5755 19.9378 13.5448C19.9542 13.5411 19.9712 13.5408 19.9878 13.5438C20.0043 13.5469 20.0201 13.5532 20.0342 13.5625C20.0482 13.5718 20.0602 13.5839 20.0695 13.5979C20.0788 13.612 20.0851 13.6278 20.0881 13.6444C20.0912 13.6609 20.0908 13.6779 20.0871 13.6944C20.0834 13.7108 20.0764 13.7263 20.0665 13.74C20.0566 13.7536 20.0441 13.7651 20.0297 13.7738C20.0152 13.7825 19.9992 13.7882 19.9825 13.7905C19.8802 13.8096 19.7764 13.8194 19.6723 13.8198Z" fill="#6B3B2C"/>
<path d="M24.6157 22.2358L23.3617 26.1443L22.1074 22.2358L22.9819 20.25L23.3617 20.439L23.7414 20.25L24.6157 22.2358Z" fill="#819ECC"/>
<path d="M21.5005 19.2805L22.0255 20.8055L23.365 25.8515V26.7595C23.3267 26.8394 23.2666 26.9069 23.1918 26.9543C23.117 27.0017 23.0303 27.027 22.9417 27.0275C21.7791 25.9713 20.8351 24.6972 20.1632 23.2775C19.9119 22.7444 19.8736 22.1355 20.056 21.575C20.4625 20.3435 20.9777 19.6368 21.5005 19.2805Z" fill="#766D78"/>
<path d="M25.23 19.2805L24.705 20.8055L23.3652 25.8515V26.7595C23.4036 26.8394 23.4637 26.9069 23.5385 26.9542C23.6134 27.0016 23.7001 27.027 23.7887 27.0275C24.9513 25.9713 25.8953 24.6972 26.5672 23.2775C26.8184 22.7444 26.8568 22.1355 26.6745 21.575C26.2672 20.3435 25.752 19.6368 25.23 19.2805Z" fill="#766D78"/>
<path d="M22.3664 18.7986C22.7316 18.9154 23.0705 19.1022 23.3644 19.3486C22.9912 19.8972 22.5399 20.3883 22.0246 20.8063C21.6417 20.3183 21.4341 19.7156 21.4351 19.0953C21.3911 18.9836 21.9316 18.6196 22.3664 18.7986Z" fill="#E9EDF1"/>
<path d="M24.3635 18.7985C23.9983 18.9154 23.6592 19.1022 23.3652 19.3485C23.7384 19.8974 24.1897 20.3888 24.705 20.8072C25.0484 20.2986 25.2517 19.7085 25.2945 19.0962C25.0276 18.8928 24.6988 18.7877 24.3635 18.7985Z" fill="#E9EDF1"/>
<path d="M23.9154 20.3593C23.5538 20.4658 23.1692 20.4658 22.8076 20.3593C22.745 20.0097 22.8143 19.6494 23.0021 19.348H23.7226C23.909 19.6499 23.9777 20.01 23.9154 20.3593Z" fill="#8BAADC"/>
<path d="M19.2754 23.4265V29.2915H19.0254V23.4265C19.0254 23.3934 19.0386 23.3616 19.062 23.3381C19.0854 23.3147 19.1172 23.3015 19.1504 23.3015C19.1835 23.3015 19.2153 23.3147 19.2388 23.3381C19.2622 23.3616 19.2754 23.3934 19.2754 23.4265Z" fill="#3C383D"/>
<path d="M27.7061 23.4265V29.2915H27.4561V23.4265C27.4561 23.3934 27.4692 23.3616 27.4927 23.3381C27.5161 23.3147 27.5479 23.3015 27.5811 23.3015C27.6142 23.3015 27.646 23.3147 27.6694 23.3381C27.6929 23.3616 27.7061 23.3934 27.7061 23.4265Z" fill="#3C383D"/>
<path d="M23.3612 18.1916C23.1849 18.1915 23.009 18.174 22.8362 18.1391C22.0512 17.9816 20.6312 17.5766 20.2387 16.6491C19.8212 15.5216 19.9337 13.5441 19.9337 13.5441C20.3677 13.5331 20.8 13.4863 21.2262 13.4041V13.4066C21.0687 17.3691 23.3612 18.1916 23.3612 18.1916Z" fill="#E8AB9A"/>
<path d="M18.8283 29.2915H1.88086L3.17336 17.7365C3.32836 16.7915 4.11336 10.6915 10.3533 10.454C11.4298 10.4766 12.4888 10.7306 13.4583 11.199C16.8833 12.9065 17.4108 16.979 17.5358 17.7365L18.8283 29.2915Z" fill="#E9EDF1"/>
<path d="M5.43336 29.2915H1.88086L3.17336 17.7365C3.32836 16.7915 4.11336 10.6915 10.3533 10.454C11.4298 10.4766 12.4888 10.7306 13.4583 11.199C5.62585 14.7915 5.26086 25.229 5.43336 29.2915Z" fill="#C8D2DC"/>
<path d="M16.5888 29.2914H4.125C4.125 29.2914 4.2825 28.7689 4.4825 27.9064C4.77621 26.641 4.99079 25.3585 5.125 24.0664C5.3925 21.4439 6.405 21.1214 7.3825 21.0289C7.49 21.0189 7.5975 21.0114 7.705 21.0039C8.5125 20.9464 9.19 20.7839 9.38 19.7239C9.44732 19.2904 9.45573 18.8497 9.405 18.4139H11.31C11.2586 18.8556 11.2678 19.3023 11.3375 19.7414C11.5325 20.7839 12.2075 20.9464 13.01 21.0039C14.075 21.0789 15.29 21.1539 15.59 24.0664C15.7711 25.8337 16.1053 27.5819 16.5888 29.2914Z" fill="#FFCDBE"/>
<path d="M7.38117 21.0289C6.43542 21.2692 5.69742 27.1584 5.55617 27.5629C5.18707 27.639 4.82713 27.7541 4.48242 27.9064C4.77613 26.641 4.99071 25.3585 5.12492 24.0664C5.39117 21.4439 6.40367 21.1214 7.38117 21.0289Z" fill="#EBAE9D"/>
<path d="M13.7246 28.3097L16.0229 26.9432L16.5876 29.2905H13.9614L13.7246 28.3097Z" fill="#C8D2DC"/>
<path d="M6.98555 28.309L6.74805 29.2915H4.12305L4.65555 27.094L5.39805 27.4815L6.98555 28.309Z" fill="#C8D2DC"/>
<path d="M11.3354 19.7405C10.6946 19.9216 10.0154 19.9155 9.37793 19.723C9.44525 19.2894 9.45366 18.8488 9.40293 18.413H11.3079C11.2565 18.8546 11.2657 19.3013 11.3354 19.7405Z" fill="#E69A85"/>
<path d="M13.3284 10.7465L12.6909 11.8265L10.4584 11.144L10.3534 11.1115L8.01836 11.8265L7.38086 10.7465L8.32586 10.579L8.60586 9.82147L9.38836 10.244L10.3534 9.51147L11.3209 10.244L12.1009 9.82147L12.1084 9.84147L12.3834 10.579L13.3284 10.7465Z" fill="#FFE07D"/>
<path d="M12.1084 9.84147C11.5011 10.1978 10.9459 10.636 10.4584 11.144L10.3534 11.1115L8.01836 11.8265L7.38086 10.7465L8.32586 10.579L8.60586 9.82147L9.38836 10.244L10.3534 9.51147L11.3209 10.244L12.1009 9.82147L12.1084 9.84147Z" fill="#E3C258"/>
<path d="M13.6258 16.4999L10.3533 14.0699L8.57826 15.3874L7.08327 16.4999C7.08327 16.4999 4.79827 11.6399 9.98576 10.7774C10.23 10.7374 10.4791 10.7374 10.7233 10.7774C10.7558 10.7824 10.7883 10.7874 10.8208 10.7949C15.8808 11.7014 13.6258 16.4999 13.6258 16.4999Z" fill="#BE694E"/>
<path d="M10.8208 10.7939C10.1627 11.3738 9.62572 12.0781 9.24086 12.8662C8.856 13.6544 8.63082 14.5109 8.57826 15.3864L7.08327 16.4999C7.08327 16.4999 4.79827 11.6399 9.98576 10.7774C10.23 10.7374 10.4791 10.7374 10.7233 10.7774C10.7558 10.7814 10.7883 10.7864 10.8208 10.7939Z" fill="#9C5640"/>
<path d="M7.52474 15.5C7.52474 15.5 6.91724 14.7805 6.52474 15.275C6.13224 15.7695 6.55274 17.3397 8.01949 17.0222L7.52474 15.5Z" fill="#E69A85"/>
<path d="M13.1854 15.5C13.1854 15.5 13.7927 14.7805 14.1854 15.275C14.5782 15.7695 14.1574 17.3397 12.6904 17.0222L13.1854 15.5Z" fill="#E8AB9A"/>
<path d="M7.69957 26.7805C7.6999 26.7805 7.70022 26.7804 7.70053 26.7803C7.70083 26.7802 7.70111 26.78 7.70134 26.7798C7.70157 26.7795 7.70175 26.7793 7.70188 26.779C7.70201 26.7786 7.70207 26.7783 7.70207 26.778C7.21207 25.9305 7.07457 24.8155 7.06707 23.603C7.06457 23.2955 7.07207 22.983 7.08457 22.6655C8.26457 22.3455 9.37207 22.3605 10.3546 22.948C11.3371 22.3605 12.4446 22.3455 13.6246 22.6655C13.6371 22.983 13.6446 23.2955 13.6421 23.603C13.6346 24.813 13.4946 25.9255 13.0096 26.773C13.0096 26.7755 13.0071 26.7755 13.0071 26.778C13.0567 26.8463 13.1026 26.9173 13.1446 26.9905C13.5548 27.701 13.8318 28.4805 13.9621 29.2905H6.74707C6.87496 28.4822 7.15037 27.7042 7.55957 26.9955C7.60243 26.9214 7.64916 26.8497 7.69957 26.7805Z" fill="#E9EDF1"/>
<path d="M13.6422 23.603C12.7734 23.289 11.1514 22.9452 10.3544 24.328C9.55742 22.9447 7.93542 23.2885 7.06667 23.603C7.06492 23.296 7.07192 22.982 7.08417 22.6645C8.26492 22.3455 9.37242 22.361 10.3544 22.9487C11.3364 22.361 12.4439 22.3455 13.6247 22.6645C13.6369 22.982 13.6437 23.296 13.6422 23.603Z" fill="#C8D2DC"/>
<path d="M13.1446 26.9904C12.268 27.3899 11.316 27.5971 10.3526 27.5979C9.38926 27.5988 8.4369 27.3934 7.55957 26.9954C7.60243 26.9214 7.64916 26.8496 7.69957 26.7804C8.5348 27.155 9.44001 27.348 10.3554 27.3467C11.2707 27.3454 12.1754 27.1499 13.0096 26.7729C13.0096 26.7754 13.0071 26.7754 13.0071 26.7779C13.0566 26.8463 13.1025 26.9172 13.1446 26.9904Z" fill="#C8D2DC"/>
<path d="M13.4113 14.9565C13.3638 17.1765 12.6638 18.8815 10.3538 18.919C10.2488 18.9165 10.1463 18.9115 10.0488 18.904C7.98383 18.724 7.34383 17.074 7.29883 14.9565C7.78491 14.8736 8.25073 14.6988 8.67133 14.4415C9.446 13.9269 10.0356 13.1778 10.3538 12.304C11.0288 13.9415 12.0963 14.719 13.4113 14.9565Z" fill="#FFCDBE"/>
<path d="M9.10772 15.485C9.24703 15.485 9.35997 15.3092 9.35997 15.0925C9.35997 14.8757 9.24703 14.7 9.10772 14.7C8.9684 14.7 8.85547 14.8757 8.85547 15.0925C8.85547 15.3092 8.9684 15.485 9.10772 15.485Z" fill="#9C5640"/>
<path d="M11.6019 15.485C11.7412 15.485 11.8541 15.3092 11.8541 15.0925C11.8541 14.8757 11.7412 14.7 11.6019 14.7C11.4625 14.7 11.3496 14.8757 11.3496 15.0925C11.3496 15.3092 11.4625 15.485 11.6019 15.485Z" fill="#9C5640"/>
<path d="M10.3529 16.4554C10.2387 16.4553 10.1292 16.41 10.0484 16.3293C9.96756 16.2486 9.92207 16.1391 9.92188 16.0249C9.92188 15.9918 9.93504 15.96 9.95849 15.9365C9.98193 15.9131 10.0137 15.8999 10.0469 15.8999C10.08 15.8999 10.1118 15.9131 10.1353 15.9365C10.1587 15.96 10.1719 15.9918 10.1719 16.0249C10.171 16.0492 10.175 16.0735 10.1837 16.0962C10.1923 16.1189 10.2055 16.1397 10.2224 16.1572C10.2393 16.1747 10.2595 16.1887 10.2819 16.1982C10.3043 16.2077 10.3284 16.2126 10.3528 16.2126C10.3771 16.2126 10.4012 16.2077 10.4236 16.1982C10.446 16.1887 10.4662 16.1747 10.4831 16.1572C10.5 16.1397 10.5132 16.1189 10.5218 16.0962C10.5305 16.0735 10.5345 16.0492 10.5336 16.0249C10.5336 15.9918 10.5468 15.96 10.5702 15.9365C10.5937 15.9131 10.6255 15.8999 10.6586 15.8999C10.6918 15.8999 10.7236 15.9131 10.747 15.9365C10.7705 15.96 10.7836 15.9918 10.7836 16.0249C10.7834 16.1391 10.738 16.2485 10.6572 16.3292C10.5765 16.4099 10.467 16.4553 10.3529 16.4554Z" fill="#D97355"/>
<path d="M10.353 17.6919C10.0831 17.7023 9.81803 17.6176 9.60403 17.4527C9.39002 17.2878 9.24061 17.0531 9.18179 16.7894C9.17248 16.7576 9.17619 16.7234 9.1921 16.6943C9.20802 16.6652 9.23484 16.6436 9.26667 16.6343C9.29849 16.625 9.33272 16.6287 9.36181 16.6446C9.3909 16.6605 9.41248 16.6874 9.42179 16.7192C9.47479 16.9259 9.59506 17.1091 9.76364 17.2399C9.93222 17.3707 10.1395 17.4417 10.3529 17.4417C10.5663 17.4417 10.7736 17.3707 10.9422 17.2399C11.1108 17.1091 11.231 16.9259 11.284 16.7192C11.2934 16.6874 11.3149 16.6605 11.344 16.6446C11.3731 16.6287 11.4073 16.625 11.4392 16.6343C11.471 16.6436 11.4978 16.6652 11.5137 16.6943C11.5296 16.7234 11.5334 16.7576 11.524 16.7894C11.4652 17.0531 11.3159 17.2878 11.1019 17.4526C10.888 17.6175 10.623 17.7022 10.353 17.6919Z" fill="#D97355"/>
<path d="M10.0498 18.9039C7.9848 18.7239 7.3448 17.0739 7.2998 14.9564C7.78589 14.8736 8.25171 14.6988 8.6723 14.4414C8.3248 15.8292 8.4813 17.6667 10.0498 18.9039Z" fill="#EBAE9D"/>
<path d="M7.58388 19.9622C7.56089 19.9622 7.53834 19.9559 7.51872 19.9439C7.49909 19.932 7.48314 19.9148 7.47262 19.8944C7.46211 19.8739 7.45743 19.851 7.45911 19.8281C7.46078 19.8051 7.46875 19.7831 7.48213 19.7644C7.50713 19.7297 8.07888 18.8989 7.32313 17.6704C6.48463 16.3072 7.15638 14.8339 7.18513 14.7719C7.19915 14.7419 7.22454 14.7186 7.25572 14.7072C7.2869 14.6959 7.32131 14.6974 7.35138 14.7114C7.38145 14.7255 7.40471 14.7508 7.41606 14.782C7.4274 14.8132 7.4259 14.8476 7.41188 14.8777C7.40538 14.8917 6.76938 16.2929 7.53688 17.5394C8.38363 18.9159 7.71463 19.8707 7.68688 19.9104C7.67512 19.9267 7.65962 19.9399 7.6417 19.9489C7.62377 19.9579 7.60394 19.9625 7.58388 19.9622Z" fill="#9C5640"/>
<path d="M13.0996 20.0293C13.08 20.0291 13.0608 20.0243 13.0434 20.0153C13.026 20.0063 13.011 19.9934 12.9996 19.9775C12.9708 19.9378 12.3016 18.983 13.1496 17.6063C13.9161 16.36 13.2803 14.9588 13.2746 14.9448C13.2655 14.9298 13.2597 14.9131 13.2575 14.8957C13.2553 14.8783 13.2568 14.8606 13.2618 14.8439C13.2669 14.8271 13.2754 14.8116 13.2869 14.7983C13.2983 14.785 13.3124 14.7743 13.3283 14.7669C13.3442 14.7594 13.3614 14.7554 13.3789 14.755C13.3965 14.7547 13.4139 14.758 13.43 14.7648C13.4462 14.7716 13.4607 14.7817 13.4727 14.7945C13.4847 14.8073 13.4938 14.8225 13.4996 14.839C13.5286 14.901 14.1996 16.3743 13.3616 17.7373C12.6061 18.966 13.1781 19.7968 13.2026 19.8315C13.2159 19.8502 13.2239 19.8722 13.2256 19.8951C13.2273 19.918 13.2226 19.9409 13.2121 19.9614C13.2016 19.9818 13.1857 19.9989 13.1661 20.0109C13.1466 20.0229 13.124 20.0293 13.1011 20.0293H13.0996Z" fill="#BE694E"/>
<path d="M5.555 27.563C5.49013 28.1437 5.39525 28.7206 5.27075 29.2915H4.125L4.6575 27.094L5.555 27.563Z" fill="#B5BEC7"/>
<path d="M16.0054 10.6616C16.0004 10.6641 15.9979 10.6691 15.9929 10.6716C13.9479 9.04406 10.9504 8.04656 11.8554 5.16656C12.3904 3.68656 14.1754 3.55906 15.2654 4.56906C12.7199 6.24156 13.8476 8.18656 16.0054 10.6616Z" fill="#D67A81"/>
</svg>
