<svg width="14" height="17" viewBox="0 0 14 17" fill="none" xmlns="http://www.w3.org/2000/svg">
<path fill-rule="evenodd" clip-rule="evenodd" d="M3.4375 7.5C3.4375 6.55517 3.81283 5.64903 4.48093 4.98093C5.14903 4.31283 6.05517 3.9375 7 3.9375C7.94483 3.9375 8.85097 4.31283 9.51907 4.98093C10.1872 5.64903 10.5625 6.55517 10.5625 7.5C10.5625 8.44483 10.1872 9.35097 9.51907 10.0191C8.85097 10.6872 7.94483 11.0625 7 11.0625C6.05517 11.0625 5.14903 10.6872 4.48093 10.0191C3.81283 9.35097 3.4375 8.44483 3.4375 7.5ZM7 5.0625C6.35353 5.0625 5.73355 5.31931 5.27643 5.77643C4.81931 6.23355 4.5625 6.85353 4.5625 7.5C4.5625 8.14646 4.81931 8.76645 5.27643 9.22357C5.73355 9.68069 6.35353 9.9375 7 9.9375C7.64646 9.9375 8.26645 9.68069 8.72357 9.22357C9.18069 8.76645 9.4375 8.14646 9.4375 7.5C9.4375 6.85353 9.18069 6.23355 8.72357 5.77643C8.26645 5.31931 7.64646 5.0625 7 5.0625Z" fill="#060B27"/>
<path fill-rule="evenodd" clip-rule="evenodd" d="M0.643838 6.64275C0.77237 5.08798 1.4807 3.63835 2.62826 2.5815C3.77583 1.52466 5.27876 0.937842 6.83884 0.9375H7.16284C8.72291 0.937842 10.2258 1.52466 11.3734 2.5815C12.521 3.63835 13.2293 5.08798 13.3578 6.64275C13.5008 8.37475 12.9657 10.0946 11.8653 11.4397L8.27059 15.8355C8.11675 16.0236 7.92303 16.1752 7.70343 16.2793C7.48384 16.3834 7.24386 16.4374 7.00084 16.4374C6.75782 16.4374 6.51784 16.3834 6.29824 16.2793C6.07865 16.1752 5.88493 16.0236 5.73109 15.8355L2.13634 11.4397C1.03596 10.0946 0.500863 8.37475 0.643838 6.64275ZM6.83884 2.0625C5.5613 2.06304 4.33063 2.54373 3.39094 3.40924C2.45126 4.27474 1.8712 5.46181 1.76584 6.735C1.6468 8.17642 2.09209 9.60775 3.00784 10.7272L6.60259 15.1237C6.65091 15.1829 6.71178 15.2306 6.78079 15.2633C6.84979 15.296 6.92521 15.313 7.00159 15.313C7.07796 15.313 7.15338 15.296 7.22239 15.2633C7.2914 15.2306 7.35226 15.1829 7.40059 15.1237L10.9953 10.7272C11.9105 9.60753 12.3553 8.17622 12.2358 6.735C12.1305 5.46168 11.5503 4.2745 10.6105 3.40898C9.67061 2.54346 8.43976 2.06285 7.16209 2.0625H6.83884Z" fill="#060B27"/>
</svg>
