<svg width="249" height="258" viewBox="0 0 249 258" fill="none" xmlns="http://www.w3.org/2000/svg">
<path d="M238.211 105.861H211.105V113.032H238.211V105.861Z" fill="#EBEBEB"/>
<path d="M226.75 120.583C226.747 120.581 226.745 120.537 226.742 120.453C226.74 120.357 226.737 120.236 226.733 120.085C226.728 119.748 226.721 119.277 226.713 118.674C226.702 117.436 226.686 115.657 226.667 113.413L226.751 113.497C220.562 113.509 210.719 113.529 199.647 113.551C199.708 113.49 199.508 113.688 199.784 113.413V113.414V113.418V113.426V113.44V113.469V113.527V113.642V113.873V114.332C199.784 114.638 199.784 114.943 199.784 115.247C199.784 115.855 199.783 116.458 199.783 117.057C199.782 118.253 199.781 119.431 199.781 120.584L199.646 120.449C207.364 120.474 214.118 120.495 218.962 120.51C221.375 120.526 223.311 120.54 224.663 120.549C225.321 120.557 225.836 120.562 226.205 120.567C226.371 120.571 226.503 120.573 226.608 120.576C226.699 120.577 226.747 120.581 226.75 120.583C226.753 120.586 226.711 120.589 226.625 120.592C226.525 120.594 226.398 120.597 226.238 120.601C225.877 120.606 225.371 120.611 224.726 120.619C223.381 120.628 221.455 120.641 219.055 120.657C214.188 120.673 207.401 120.694 199.645 120.719L199.511 120.719V120.584C199.51 119.431 199.509 118.253 199.508 117.057C199.508 116.458 199.508 115.855 199.508 115.247C199.508 114.944 199.508 114.638 199.508 114.332V113.873V113.642V113.527V113.469V113.44V113.426V113.418V113.414V113.413C199.784 113.136 199.585 113.336 199.648 113.275C210.72 113.297 220.562 113.316 226.751 113.329H226.836L226.835 113.413C226.815 115.678 226.8 117.474 226.789 118.724C226.78 119.319 226.774 119.784 226.769 120.116C226.765 120.261 226.762 120.377 226.76 120.47C226.756 120.548 226.753 120.586 226.75 120.583Z" fill="#E0E0E0"/>
<path d="M60.6877 164.549C60.6849 164.546 60.6821 164.502 60.6793 164.419C60.6771 164.323 60.6743 164.202 60.6704 164.051C60.6654 163.713 60.6587 163.243 60.6498 162.64C60.6386 161.402 60.623 159.622 60.6035 157.378L60.6877 157.462C54.4987 157.475 44.6561 157.494 33.584 157.516C33.6453 157.455 33.4448 157.654 33.7205 157.378V157.38V157.384V157.391V157.406V157.435V157.492V157.608V157.838V158.298C33.7205 158.604 33.7205 158.909 33.7205 159.213C33.7205 159.821 33.72 160.424 33.72 161.022C33.7194 162.219 33.7183 163.396 33.7177 164.549L33.5829 164.415C41.3012 164.439 48.0551 164.461 52.8986 164.476C55.3115 164.492 57.2475 164.505 58.6001 164.514C59.2581 164.522 59.7729 164.528 60.1417 164.532C60.3077 164.536 60.4403 164.539 60.545 164.541C60.637 164.543 60.6849 164.546 60.6877 164.549C60.6904 164.552 60.6481 164.554 60.5623 164.558C60.462 164.56 60.335 164.563 60.1757 164.567C59.8141 164.571 59.3082 164.577 58.6631 164.585C57.3182 164.593 55.3923 164.607 52.9928 164.623C48.1253 164.639 41.3385 164.66 33.5829 164.684L33.4481 164.685V164.549C33.4475 163.396 33.4464 162.219 33.4459 161.022C33.4459 160.424 33.4453 159.821 33.4453 159.213C33.4453 158.909 33.4453 158.604 33.4453 158.298V157.838V157.608V157.492V157.435V157.406V157.391V157.384V157.38V157.378C33.7216 157.102 33.5228 157.302 33.5851 157.24C44.6572 157.262 54.4998 157.282 60.6888 157.294H60.7735L60.7729 157.378C60.7528 159.644 60.7372 161.44 60.7267 162.69C60.7177 163.285 60.7111 163.749 60.706 164.082C60.7021 164.227 60.6994 164.343 60.6971 164.435C60.6938 164.513 60.691 164.552 60.6877 164.549Z" fill="#E0E0E0"/>
<path d="M64.3673 157.376C64.364 157.373 64.3607 157.327 64.3568 157.24C64.354 157.137 64.3501 157.012 64.3462 156.86C64.34 156.507 64.3317 156.028 64.3217 155.422C64.3088 154.165 64.2905 152.389 64.2682 150.206L64.3673 150.305C60.1483 150.315 54.4089 150.329 48.0829 150.344C47.9586 150.467 48.2495 150.176 48.2199 150.206V150.208V150.212V150.219V150.234V150.264V150.323V150.441V150.676V151.145C48.2199 151.456 48.2199 151.766 48.2194 152.074C48.2188 152.69 48.2183 153.299 48.2183 153.899C48.2166 155.099 48.2149 156.262 48.2132 157.376L48.0818 157.245C52.7833 157.27 56.8307 157.292 59.7316 157.307C61.1623 157.322 62.3088 157.335 63.125 157.344C63.506 157.35 63.8097 157.356 64.0403 157.36C64.2503 157.366 64.3618 157.371 64.3673 157.376C64.3729 157.382 64.2715 157.387 64.0715 157.393C63.8481 157.396 63.5534 157.402 63.1835 157.409C62.3745 157.418 61.238 157.43 59.8202 157.445C56.897 157.461 52.8189 157.483 48.0818 157.508L47.9503 157.508V157.376C47.9486 156.262 47.9469 155.099 47.9453 153.899C47.9447 153.299 47.9442 152.69 47.9442 152.074C47.9442 151.766 47.9442 151.456 47.9436 151.145V150.676V150.441V150.323V150.264V150.234V150.219V150.212V150.208V150.206C47.9135 150.235 48.2054 149.944 48.0829 150.068C54.4089 150.083 60.1483 150.097 64.3673 150.107H64.4676L64.4665 150.206C64.4442 152.415 64.4258 154.211 64.413 155.483C64.4024 156.079 64.3941 156.551 64.3885 156.898C64.3813 157.219 64.3746 157.384 64.3673 157.376Z" fill="#E0E0E0"/>
<path d="M159.357 21.0303C159.354 21.0275 159.351 20.9835 159.348 20.8999C159.346 20.8041 159.343 20.6832 159.339 20.5322C159.334 20.1946 159.328 19.7244 159.319 19.121C159.308 17.8831 159.292 16.1037 159.272 13.8597L159.357 13.9438C153.168 13.956 143.325 13.9755 132.253 13.9978C132.314 13.9365 132.114 14.1354 132.389 13.8597V13.8613V13.8652V13.8725V13.887V13.9159V13.9739V14.0892V14.3198V14.7795C132.389 15.0853 132.389 15.3906 132.389 15.6942C132.389 16.302 132.389 16.9054 132.389 17.5037C132.388 18.7004 132.387 19.8776 132.387 21.0308L132.252 20.896C139.97 20.9205 146.724 20.9423 151.568 20.9573C153.98 20.9735 155.916 20.9868 157.269 20.9957C157.927 21.0035 158.442 21.0091 158.811 21.0136C158.977 21.0169 159.109 21.0203 159.214 21.0225C159.305 21.0242 159.353 21.0275 159.357 21.0303C159.359 21.0331 159.317 21.0359 159.231 21.0392C159.131 21.0414 159.004 21.0442 158.845 21.0481C158.483 21.0526 157.978 21.0581 157.332 21.0659C155.987 21.0749 154.061 21.0882 151.662 21.1044C146.794 21.12 140.007 21.1411 132.252 21.1657L132.117 21.1662V21.0308C132.116 19.8776 132.115 18.7004 132.115 17.5037C132.115 16.9054 132.114 16.302 132.114 15.6942C132.114 15.3906 132.114 15.0853 132.114 14.7795V14.3198V14.0892V13.9739V13.9159V13.887V13.8725V13.8652V13.8613V13.8597C132.391 13.5833 132.192 13.7828 132.254 13.7215C143.326 13.7438 153.169 13.7633 159.358 13.7755H159.442L159.442 13.8597C159.422 16.1249 159.406 17.921 159.396 19.1712C159.387 19.7662 159.38 20.2308 159.375 20.5634C159.371 20.7083 159.368 20.8241 159.366 20.9166C159.362 20.9946 159.359 21.0331 159.357 21.0303Z" fill="#E0E0E0"/>
<path d="M163.04 13.8635C163.036 13.8601 163.033 13.8139 163.029 13.727C163.026 13.6239 163.022 13.4991 163.019 13.347C163.012 12.9944 163.004 12.5147 162.994 11.9091C162.981 10.6517 162.963 8.87617 162.941 6.69283L163.04 6.792C158.821 6.80203 153.081 6.81596 146.755 6.831C146.631 6.95412 146.922 6.66275 146.892 6.69339V6.69506V6.69896V6.70621V6.72125V6.75077V6.80983V6.92738V7.16248V7.63157C146.892 7.943 146.892 8.25331 146.892 8.5614C146.891 9.17756 146.891 9.78649 146.891 10.3865C146.889 11.586 146.887 12.7492 146.886 13.8635L146.754 13.732C151.456 13.757 155.503 13.7788 158.404 13.7944C159.835 13.81 160.981 13.8217 161.797 13.8306C162.178 13.8373 162.482 13.8428 162.713 13.8473C162.923 13.8529 163.034 13.8579 163.04 13.8635C163.045 13.869 162.944 13.874 162.744 13.8796C162.521 13.8835 162.226 13.8891 161.856 13.8963C161.047 13.9052 159.91 13.9175 158.492 13.9325C155.569 13.9481 151.491 13.9699 146.754 13.9949L146.622 13.9955V13.8635C146.62 12.7492 146.619 11.586 146.617 10.3865C146.617 9.78649 146.616 9.17756 146.616 8.5614C146.616 8.25331 146.616 7.943 146.615 7.63157V7.16248V6.92738V6.80983V6.75077V6.72125V6.70621V6.69896V6.69506V6.69339C146.585 6.72236 146.877 6.43099 146.755 6.55467C153.081 6.56971 158.82 6.58364 163.039 6.59367H163.139L163.138 6.69283C163.116 8.90179 163.098 10.6979 163.085 11.9698C163.074 12.5659 163.066 13.0378 163.06 13.3855C163.054 13.7058 163.046 13.8701 163.04 13.8635Z" fill="#E0E0E0"/>
<path d="M166.284 223.578C166.282 223.575 166.279 223.531 166.276 223.447C166.274 223.351 166.271 223.23 166.267 223.08C166.262 222.742 166.255 222.272 166.246 221.668C166.235 220.43 166.22 218.651 166.2 216.407L166.284 216.491C160.095 216.503 150.253 216.523 139.181 216.545C139.242 216.484 139.041 216.683 139.317 216.407V216.409V216.413V216.42V216.434V216.463V216.521V216.636V216.867V217.326C139.317 217.632 139.317 217.937 139.317 218.241C139.317 218.849 139.317 219.452 139.317 220.05C139.316 221.247 139.315 222.424 139.314 223.578L139.18 223.443C146.898 223.467 153.652 223.489 158.495 223.504C160.908 223.52 162.844 223.534 164.197 223.542C164.855 223.55 165.37 223.556 165.738 223.56C165.904 223.564 166.037 223.566 166.142 223.569C166.233 223.572 166.282 223.575 166.284 223.578C166.287 223.58 166.245 223.583 166.159 223.586C166.059 223.589 165.932 223.592 165.772 223.595C165.411 223.6 164.905 223.605 164.26 223.613C162.915 223.622 160.989 223.636 158.589 223.652C153.722 223.667 146.935 223.688 139.18 223.713L139.045 223.714V223.578C139.044 222.425 139.043 221.248 139.043 220.051C139.043 219.453 139.042 218.849 139.042 218.242C139.042 217.938 139.042 217.633 139.042 217.327V216.867V216.636V216.521V216.464V216.435V216.42V216.413V216.409V216.408C139.318 216.131 139.119 216.331 139.182 216.269C150.254 216.292 160.096 216.311 166.285 216.323H166.37L166.37 216.408C166.35 218.673 166.334 220.469 166.323 221.719C166.314 222.314 166.308 222.779 166.303 223.111C166.299 223.256 166.296 223.372 166.294 223.464C166.29 223.542 166.287 223.58 166.284 223.578Z" fill="#E0E0E0"/>
<path d="M169.956 216.404C169.952 216.401 169.949 216.355 169.945 216.268C169.942 216.165 169.939 216.04 169.935 215.888C169.928 215.535 169.92 215.056 169.91 214.45C169.897 213.193 169.879 211.417 169.857 209.234L169.956 209.333C165.737 209.343 159.997 209.357 153.671 209.372C153.547 209.495 153.838 209.204 153.808 209.234V209.236V209.24V209.247V209.262V209.291V209.35V209.468V209.703V210.171C153.808 210.483 153.808 210.793 153.808 211.101C153.807 211.717 153.807 212.326 153.807 212.926C153.805 214.126 153.803 215.289 153.802 216.403L153.67 216.272C158.372 216.297 162.419 216.319 165.32 216.334C166.751 216.349 167.897 216.361 168.713 216.37C169.094 216.377 169.398 216.383 169.629 216.387C169.838 216.394 169.95 216.399 169.956 216.404C169.961 216.41 169.86 216.415 169.66 216.42C169.437 216.424 169.142 216.43 168.772 216.437C167.963 216.446 166.826 216.458 165.408 216.473C162.485 216.489 158.407 216.511 153.67 216.536L153.538 216.536V216.404C153.537 215.29 153.535 214.127 153.533 212.927C153.533 212.327 153.533 211.718 153.532 211.102C153.532 210.794 153.532 210.484 153.531 210.172V209.704V209.469V209.351V209.292V209.263V209.248V209.241V209.237V209.235C153.501 209.264 153.793 208.973 153.671 209.097C159.997 209.112 165.736 209.126 169.955 209.136H170.056L170.054 209.235C170.032 211.444 170.014 213.24 170.001 214.512C169.99 215.108 169.982 215.58 169.976 215.927C169.969 216.247 169.962 216.412 169.956 216.404Z" fill="#E0E0E0"/>
<path d="M74.8037 3.41785H5.03906V128.745H74.8037V3.41785Z" fill="#EBEBEB"/>
<path d="M71.3024 7.04675H7.83203V125.006H71.3024V7.04675Z" fill="#FAFAFA"/>
<path d="M77.7616 129.875L74.8105 128.745V1.29224H77.7616V129.875Z" fill="#E0E0E0"/>
<path d="M72.6807 40.9834H7.83203V42.2391H72.6807V40.9834Z" fill="#E0E0E0"/>
<path d="M72.6807 69.0789H7.83203V70.3346H72.6807V69.0789Z" fill="#E0E0E0"/>
<path d="M72.6807 97.1653H7.83203V98.421H72.6807V97.1653Z" fill="#E0E0E0"/>
<path d="M37.9629 41.6122L37.9629 128.355H41.1696L41.1696 41.6122H37.9629Z" fill="#E0E0E0"/>
<path d="M21.5047 7.04675H20.0518V41.6085H21.5047V7.04675Z" fill="#E0E0E0"/>
<path d="M34.034 7.04675H32.5811V41.6085H34.034V7.04675Z" fill="#E0E0E0"/>
<path d="M46.5653 7.04675H45.1123V41.6085H46.5653V7.04675Z" fill="#E0E0E0"/>
<path d="M59.096 7.04675H57.6436V41.6085H59.096V7.04675Z" fill="#E0E0E0"/>
<path d="M5.04423 1.29224H2.09375V129.521H5.04423V1.29224Z" fill="#E0E0E0"/>
<path d="M77.7599 0H2.09375V3.41957H77.7599V0Z" fill="#E0E0E0"/>
<path d="M79.7571 130.3H0V133.486H79.7571V130.3Z" fill="#E0E0E0"/>
<path d="M74.8088 128.746L79.7571 130.297H0L5.04412 128.746H74.8088Z" fill="#E0E0E0"/>
<path d="M195.485 190.028C192.909 188.411 189.959 187.395 186.934 187.085C185.537 186.941 184.01 186.982 182.889 187.828C182.651 188.008 182.42 188.273 182.472 188.567C182.511 188.783 182.694 188.939 182.868 189.072C186.347 191.726 191.61 192.062 195.485 190.028Z" fill="#455A64"/>
<path d="M195.273 189.786C193.337 188.275 191.39 186.754 189.75 184.927C188.11 183.099 186.777 180.929 186.287 178.523C186.139 177.793 186.093 176.959 186.561 176.38C190.963 179.818 194.422 184.265 195.273 189.786Z" fill="#455A64"/>
<path d="M195.445 189.994C195.113 187.586 194.994 185.11 195.547 182.743C196.1 180.376 197.388 178.11 199.41 176.76C200.171 178.538 199.844 180.586 199.308 182.444C198.479 185.316 197.18 188.052 195.477 190.508" fill="#455A64"/>
<path d="M199.756 197.728C197.136 198.047 194.854 199.427 192.898 201.199C190.942 202.97 189.552 205.357 188.976 207.933C191.546 207.774 193.726 205.962 195.307 203.93C196.888 201.898 197.983 199.668 199.72 197.768" fill="#455A64"/>
<path d="M200.696 198.968C198.585 193.77 199.35 187.506 202.648 182.969C204.141 188.278 203.593 194.275 200.696 198.968Z" fill="#455A64"/>
<path d="M206.399 205.756C204.021 205.609 201.604 206.175 199.539 207.363C197.475 208.552 195.771 210.358 194.705 212.488C194.56 212.777 194.432 213.145 194.626 213.405C194.794 213.63 195.121 213.651 195.402 213.633C197.706 213.484 199.749 212.097 201.435 210.518C203.12 208.94 204.589 207.116 206.451 205.75" fill="#455A64"/>
<path d="M206.219 205.388C204.993 201.464 204.916 197.187 206.002 193.221C206.431 191.655 207.15 190.007 208.598 189.272C208.722 189.209 208.866 189.154 208.995 189.203C209.119 189.249 209.19 189.375 209.247 189.494C209.762 190.57 209.912 191.792 209.859 192.984C209.806 194.176 209.559 195.35 209.312 196.517C208.856 198.677 208.613 200.997 207.429 202.86C207.148 203.302 206.9 203.78 206.676 204.253C206.452 204.727 206.45 204.893 206.244 205.27" fill="#455A64"/>
<path d="M221.311 207.633C220.193 203.38 221.379 198.223 224.06 194.735C224.257 194.478 224.519 194.203 224.842 194.233C225.335 194.279 225.464 194.937 225.441 195.432C225.247 199.779 223.797 204.063 221.311 207.633Z" fill="#455A64"/>
<path d="M222.671 208.566C227.839 209.911 233.768 208.604 238.067 205.435C235.519 204.144 232.516 203.775 229.732 204.412C226.948 205.049 224.404 206.296 222.671 208.566Z" fill="#455A64"/>
<path d="M223.821 205.736C226.716 201.017 232.265 197.937 237.794 197.657C237.157 199.905 235.309 201.654 233.224 202.709C231.138 203.766 228.811 204.225 226.517 204.671C225.625 204.844 224.4 205.035 223.821 205.736Z" fill="#455A64"/>
<path d="M221.6 191.989C222.384 189.304 223.171 186.595 223.387 183.806C223.602 181.018 223.204 178.106 221.757 175.712C219.054 180.944 218.78 187.057 221.519 192.27" fill="#455A64"/>
<path d="M230.701 187.386C233.863 181.64 240.314 177.049 246.841 176.406C244.323 182.676 237.456 187.521 230.701 187.386Z" fill="#455A64"/>
<path d="M228.711 188.514C233.426 189.232 237.444 192.244 241.85 194.069C242.793 194.46 243.809 194.771 244.821 194.638C245.833 194.506 246.831 193.827 247.057 192.833C247.246 192.007 246.87 191.13 246.277 190.525C245.684 189.919 244.901 189.541 244.119 189.216C239.32 187.217 234.172 187.168 229.117 188.38" fill="#455A64"/>
<path d="M225.98 191.821C227.048 192.127 227.413 192.679 228.258 193.399C231.126 195.842 234.566 197.609 238.222 198.517C238.602 198.612 239.102 198.649 239.29 198.306C239.455 198.005 239.246 197.642 239.033 197.374C237.501 195.458 235.316 194.147 233.017 193.29C230.718 192.434 228.725 191.401 225.98 191.623" fill="#455A64"/>
<path d="M222.904 171.848C226.739 175.427 232.14 177.265 237.361 176.767C237.599 176.744 237.857 176.706 238.019 176.53C238.383 176.135 237.946 175.524 237.522 175.193C233.272 171.879 228.124 170.505 222.904 171.848Z" fill="#455A64"/>
<path d="M226.557 170.509C231.625 166.709 238.575 165.563 244.596 167.533C242.324 169.772 239.172 170.976 236 171.307C232.827 171.638 229.65 171.286 226.557 170.509Z" fill="#455A64"/>
<path d="M225.107 161.332C224.689 157.09 224.96 153.741 224.665 149.479C224.642 149.138 224.568 148.728 224.25 148.606C223.807 148.435 223.437 148.98 223.292 149.432C222.029 153.362 222.719 157.868 225.101 161.239" fill="#455A64"/>
<path d="M224.797 161.803C227.672 160.024 229.829 157.702 231.824 154.973C233.212 153.073 234.383 150.798 234.067 148.467C232.118 148.428 230.266 149.503 228.998 150.984C227.73 152.466 226.976 154.317 226.414 156.183C225.851 158.05 225.457 159.969 224.797 161.803Z" fill="#455A64"/>
<path d="M231.705 159.881C238.015 157.548 243.903 154.076 248.999 149.683C246.933 148.851 244.568 149.349 242.503 150.183C237.784 152.088 233.929 155.303 231.614 159.835" fill="#455A64"/>
<path d="M226.739 164.12C229.932 164.468 233.175 164.696 236.343 164.166C239.456 163.646 242.399 162.412 245.308 161.188C245.549 161.086 245.812 160.964 245.917 160.725C246.032 160.466 245.909 160.149 245.698 159.958C245.488 159.768 245.208 159.676 244.934 159.6C241.771 158.715 238.358 159.129 235.246 160.179C232.133 161.228 229.582 162.475 226.739 164.12Z" fill="#455A64"/>
<path d="M208.509 171.996C206.331 167.599 206.472 162.468 208.354 157.937C209.679 159.955 209.841 162.525 209.598 164.927C209.356 167.329 208.625 169.801 208.578 172.214" fill="#455A64"/>
<path d="M199.813 167.604C194.375 167.5 188.935 169.817 185.242 173.811C187.956 174.237 190.752 173.538 193.221 172.332C195.69 171.126 197.884 169.435 200.058 167.755" fill="#455A64"/>
<path d="M193.956 165.646C191.296 165.431 188.736 165.101 186.178 165.885C183.62 166.669 181.292 168.448 180.249 170.912C182.737 171.192 185.261 170.568 187.542 169.535C189.822 168.501 191.897 167.07 193.956 165.646Z" fill="#455A64"/>
<path d="M202.621 165.734C200.228 164.166 197.771 162.569 194.984 161.919C192.197 161.27 188.968 161.75 187.024 163.85C189.28 165.174 192.017 165.331 194.633 165.328C197.249 165.326 200.455 165.297 202.921 166.169" fill="#455A64"/>
<path d="M202.636 165.865C198.544 161.847 196.993 154.63 198.64 149.137C201.856 154.023 203.297 160.052 202.636 165.865Z" fill="#455A64"/>
<path d="M213.884 154.479C214.655 152.685 215.198 150.802 215.891 148.976C216.583 147.149 217.443 145.353 218.751 143.903C220.059 142.453 221.868 141.373 223.819 141.276C222.598 146.805 218.926 151.745 213.984 154.507" fill="#455A64"/>
<path d="M211.85 156.852C210.573 155.094 209.098 152.708 207.365 151.396C205.634 150.084 203.379 149.29 201.266 149.794C203.415 153.637 207.476 156.345 211.85 156.852Z" fill="#455A64"/>
<path d="M212.258 154.624C211.421 152.497 210.577 150.347 210.239 148.087C209.901 145.827 210.107 143.412 211.263 141.44C213.509 145.686 214.232 150.243 212.372 154.672" fill="#455A64"/>
<path d="M213.905 141.443C215.178 137.234 219.031 134.135 223.192 132.713C223.717 132.533 224.273 132.384 224.821 132.469C225.368 132.553 225.906 132.928 226.021 133.47C226.172 134.186 225.581 134.828 225.025 135.303C221.784 138.074 217.976 140.176 213.905 141.443Z" fill="#455A64"/>
<path d="M213.951 138C214.112 135.286 214.282 132.533 215.164 129.962C216.047 127.39 217.748 124.978 220.223 123.853C220.644 126.594 219.434 129.32 217.976 131.679C216.517 134.037 214.76 136.263 213.884 138.894" fill="#455A64"/>
<path d="M213.884 139.867C212.833 136.8 212.724 132.904 210.887 130.231C209.603 128.363 207.547 127.091 206.441 125.113C205.706 126.96 205.931 129.089 206.699 130.924C207.468 132.758 208.738 134.337 210.097 135.789C211.456 137.24 212.62 138.332 213.884 139.867Z" fill="#455A64"/>
<path d="M213.905 230.195C213.823 230.195 213.752 209.733 213.746 184.497C213.741 159.253 213.802 138.795 213.884 138.795C213.966 138.795 214.037 159.253 214.042 184.497C214.048 209.733 213.986 230.195 213.905 230.195Z" fill="#455A64"/>
<path d="M231.788 168.904C231.793 168.924 231.519 169.026 231.019 169.193C230.466 169.38 229.754 169.62 228.901 169.907C227.116 170.515 224.664 171.396 222.002 172.487C219.366 173.617 216.881 174.535 215.466 175.761C214.759 176.367 214.352 177.021 214.152 177.499C213.949 177.979 213.912 178.273 213.886 178.268C213.876 178.266 213.879 178.193 213.894 178.053C213.918 177.915 213.954 177.709 214.045 177.457C214.218 176.952 214.612 176.252 215.327 175.605C216.038 174.956 217.028 174.373 218.163 173.843C219.297 173.314 220.555 172.761 221.89 172.213C224.56 171.119 227.031 170.266 228.837 169.708C229.739 169.427 230.475 169.219 230.986 169.083C231.497 168.949 231.782 168.885 231.788 168.904Z" fill="#455A64"/>
<path d="M237.649 154.507C237.656 154.515 237.582 154.594 237.434 154.738C237.259 154.901 237.042 155.105 236.777 155.354C236.167 155.908 235.337 156.662 234.325 157.581C232.209 159.466 229.339 162.021 226.167 164.845C222.982 167.68 220.23 170.389 218.323 172.428C217.368 173.447 216.616 174.291 216.103 174.879C215.863 175.153 215.667 175.377 215.51 175.556C215.372 175.71 215.297 175.788 215.289 175.781C215.281 175.775 215.341 175.685 215.464 175.519C215.588 175.355 215.768 175.11 216.015 174.806C216.502 174.193 217.231 173.326 218.17 172.287C220.043 170.205 222.78 167.465 225.971 164.625C229.166 161.796 232.075 159.256 234.188 157.425C235.225 156.535 236.076 155.804 236.701 155.268C236.982 155.036 237.211 154.846 237.395 154.693C237.554 154.564 237.642 154.5 237.649 154.507Z" fill="#455A64"/>
<path d="M222.733 167.731C222.649 167.693 223.314 166.157 223.977 164.215C224.646 162.272 224.961 160.633 225.046 160.646C225.123 160.654 224.935 162.342 224.258 164.309C223.924 165.292 223.556 166.156 223.267 166.768C222.977 167.382 222.769 167.747 222.733 167.731Z" fill="#455A64"/>
<path d="M213.927 180.108C213.911 180.121 213.737 179.917 213.436 179.539C213.103 179.112 212.682 178.571 212.179 177.926C211.123 176.561 209.663 174.677 208.027 172.615C206.389 170.552 204.885 168.703 203.796 167.364C203.282 166.728 202.851 166.196 202.511 165.774C202.211 165.396 202.052 165.181 202.067 165.167C202.083 165.154 202.271 165.344 202.598 165.7C202.926 166.055 203.39 166.578 203.955 167.23C205.087 168.535 206.618 170.366 208.258 172.431C209.897 174.496 211.332 176.403 212.346 177.801C212.853 178.501 213.257 179.071 213.529 179.471C213.801 179.87 213.944 180.096 213.927 180.108Z" fill="#455A64"/>
<path d="M210.006 175.081C209.958 175.133 208.912 173.892 208.364 172.006C207.959 170.677 207.941 169.461 207.992 168.905L208.122 168.916C208.064 169.153 208.021 169.278 207.997 169.274C207.974 169.27 207.973 169.138 207.992 168.895L208.123 168.905C208.17 169.457 208.254 170.63 208.647 171.921C209.177 173.749 210.086 175.031 210.006 175.081Z" fill="#455A64"/>
<path d="M204.944 168.709C204.906 168.751 204.57 168.326 203.798 168.043C203.031 167.747 201.879 167.681 200.614 167.79C199.348 167.883 198.216 168.109 197.407 168.308C196.598 168.508 196.103 168.666 196.088 168.624C196.075 168.589 196.546 168.361 197.351 168.106C198.156 167.853 199.302 167.59 200.591 167.495C201.87 167.385 203.084 167.483 203.876 167.849C204.678 168.205 204.97 168.702 204.944 168.709Z" fill="#455A64"/>
<path d="M203.743 167.172C203.721 167.217 203.075 166.904 201.986 166.532C200.899 166.158 199.351 165.766 197.603 165.629C195.853 165.499 194.263 165.652 193.132 165.857C192 166.059 191.314 166.272 191.299 166.223C191.293 166.203 191.458 166.134 191.765 166.024C192.07 165.911 192.524 165.78 193.092 165.652C194.227 165.392 195.844 165.202 197.626 165.335C199.406 165.473 200.976 165.906 202.058 166.335C202.6 166.549 203.028 166.746 203.313 166.905C203.6 167.06 203.753 167.154 203.743 167.172Z" fill="#455A64"/>
<path d="M213.89 160.651C213.81 160.671 213.237 158.678 212.608 156.2C211.979 153.721 211.534 151.696 211.614 151.676C211.693 151.656 212.267 153.648 212.895 156.128C213.523 158.605 213.969 160.631 213.89 160.651Z" fill="#455A64"/>
<path d="M213.972 160.648C213.884 160.676 213.515 159.345 212.551 157.983C211.614 156.593 210.417 155.895 210.461 155.826C210.477 155.795 210.807 155.916 211.268 156.242C211.73 156.564 212.301 157.108 212.793 157.813C213.793 159.23 214.043 160.642 213.972 160.648Z" fill="#455A64"/>
<path d="M213.907 219.291C213.875 219.296 213.815 218.799 213.584 217.93C213.356 217.061 212.927 215.828 212.217 214.387C210.803 211.498 208.231 207.835 204.962 204.166C203.343 202.316 201.771 200.57 200.437 198.898C199.101 197.229 198.003 195.638 197.202 194.231C196.397 192.826 195.874 191.619 195.568 190.768C195.418 190.341 195.308 190.008 195.247 189.778C195.183 189.549 195.153 189.427 195.163 189.424C195.19 189.416 195.339 189.893 195.676 190.727C196.012 191.56 196.561 192.744 197.382 194.126C198.201 195.509 199.308 197.076 200.65 198.727C201.989 200.381 203.562 202.118 205.185 203.971C208.462 207.65 211.029 211.359 212.406 214.296C213.098 215.761 213.501 217.017 213.697 217.902C213.791 218.345 213.855 218.69 213.878 218.928C213.906 219.165 213.917 219.29 213.907 219.291Z" fill="#455A64"/>
<path d="M230.063 201.041C230.073 201.063 229.763 201.22 229.216 201.517C228.673 201.822 227.903 202.292 227.02 202.968C226.137 203.644 225.149 204.532 224.135 205.6C223.123 206.669 222.08 207.912 221.015 209.243C218.887 211.913 216.896 214.276 215.705 216.162C215.1 217.097 214.659 217.886 214.371 218.439C214.081 218.992 213.927 219.302 213.905 219.292C213.896 219.288 213.923 219.205 213.984 219.052C214.047 218.9 214.132 218.671 214.268 218.388C214.526 217.817 214.941 217.007 215.528 216.05C216.686 214.119 218.66 211.723 220.785 209.057C221.851 207.723 222.907 206.479 223.939 205.411C224.972 204.345 225.986 203.463 226.895 202.801C227.804 202.138 228.6 201.69 229.163 201.414C229.444 201.273 229.673 201.187 229.824 201.122C229.977 201.06 230.059 201.032 230.063 201.041Z" fill="#455A64"/>
<path d="M230.383 206.963C230.387 207.006 229.699 207.089 228.593 207.223C227.49 207.365 225.955 207.55 224.347 208.059C222.746 208.581 221.414 209.376 220.546 210.054C219.67 210.73 219.257 211.291 219.216 211.258C219.202 211.247 219.288 211.095 219.482 210.846C219.673 210.596 219.986 210.261 220.414 209.892C221.268 209.157 222.612 208.314 224.257 207.778C225.903 207.256 227.459 207.105 228.571 207.015C229.688 206.934 230.379 206.925 230.383 206.963Z" fill="#455A64"/>
<path d="M219.736 210.608C219.642 210.555 220.449 209.322 221.075 207.665C221.662 205.993 221.8 204.527 221.905 204.543C221.943 204.548 221.942 204.915 221.875 205.504C221.805 206.09 221.664 206.907 221.353 207.766C221.041 208.624 220.63 209.342 220.315 209.842C219.996 210.34 219.769 210.628 219.736 210.608Z" fill="#455A64"/>
<path d="M235.299 185.143C235.303 185.153 235.203 185.205 235.012 185.295C234.79 185.396 234.512 185.523 234.171 185.678C233.803 185.836 233.355 186.036 232.852 186.302C232.346 186.562 231.756 186.831 231.141 187.2C230.83 187.377 230.504 187.563 230.165 187.756C229.826 187.951 229.491 188.182 229.135 188.405C228.415 188.842 227.694 189.379 226.924 189.928C225.418 191.072 223.834 192.424 222.31 193.987C220.8 195.565 219.501 197.194 218.41 198.739C217.887 199.527 217.375 200.266 216.962 201.001C216.752 201.364 216.532 201.707 216.349 202.052C216.168 202.398 215.994 202.729 215.828 203.047C215.48 203.674 215.231 204.273 214.988 204.787C214.739 205.3 214.555 205.754 214.409 206.127C214.266 206.473 214.149 206.756 214.056 206.981C213.972 207.175 213.923 207.275 213.914 207.272C213.904 207.269 213.934 207.162 214 206.961C214.08 206.729 214.18 206.44 214.302 206.085C214.431 205.704 214.601 205.242 214.836 204.721C215.067 204.198 215.303 203.589 215.641 202.953C215.803 202.631 215.972 202.294 216.148 201.943C216.327 201.593 216.543 201.245 216.751 200.876C217.156 200.131 217.665 199.382 218.185 198.584C219.272 197.019 220.575 195.371 222.097 193.781C223.633 192.207 225.236 190.849 226.762 189.71C227.542 189.162 228.273 188.629 229.004 188.198C229.365 187.978 229.706 187.75 230.05 187.56C230.394 187.372 230.725 187.191 231.042 187.018C231.666 186.658 232.266 186.401 232.781 186.153C233.294 185.901 233.75 185.714 234.127 185.572C234.477 185.438 234.763 185.328 234.991 185.24C235.189 185.167 235.295 185.134 235.299 185.143Z" fill="#455A64"/>
<path d="M222.507 193.712C222.481 193.708 222.623 193.211 223.21 192.665C223.783 192.119 224.827 191.614 226.043 191.578C227.256 191.546 228.307 191.885 229.025 192.16C229.747 192.444 230.167 192.674 230.152 192.708C230.135 192.749 229.686 192.587 228.956 192.358C228.229 192.135 227.202 191.842 226.053 191.874C224.908 191.909 223.92 192.35 223.346 192.823C222.76 193.295 222.554 193.74 222.507 193.712Z" fill="#455A64"/>
<path d="M220.6 195.682C220.519 195.637 221.24 194.58 221.405 193.065C221.593 191.553 221.135 190.358 221.225 190.332C221.257 190.319 221.418 190.597 221.557 191.095C221.697 191.59 221.789 192.311 221.698 193.099C221.605 193.886 221.349 194.567 221.099 195.017C220.849 195.469 220.629 195.703 220.6 195.682Z" fill="#455A64"/>
<path d="M199.778 222.225C200.219 230.045 202.576 237.998 206.2 246.038H221.962C225.418 238.078 227.612 230.137 228.002 222.225H199.778Z" fill="#E8505B"/>
<path d="M225.44 234.876C225.44 234.958 220.251 235.025 213.851 235.025C207.448 235.025 202.26 234.958 202.26 234.876C202.26 234.795 207.448 234.729 213.851 234.729C220.251 234.729 225.44 234.795 225.44 234.876Z" fill="#FAFAFA"/>
<path d="M225.093 237.71C225.093 237.792 220.228 237.859 214.228 237.859C208.226 237.859 203.362 237.792 203.362 237.71C203.362 237.629 208.226 237.563 214.228 237.563C220.228 237.563 225.093 237.629 225.093 237.71Z" fill="#FAFAFA"/>
<path d="M206.45 227.356C206.532 227.356 206.599 228.981 206.599 230.986C206.599 232.991 206.532 234.617 206.45 234.617C206.369 234.617 206.303 232.991 206.303 230.986C206.302 228.981 206.368 227.356 206.45 227.356Z" fill="#FAFAFA"/>
<path d="M214.898 227.356C214.98 227.356 215.046 229.039 215.046 231.115C215.046 233.192 214.98 234.875 214.898 234.875C214.816 234.875 214.75 233.192 214.75 231.115C214.75 229.039 214.816 227.356 214.898 227.356Z" fill="#FAFAFA"/>
<path d="M222.828 227.292C222.91 227.292 222.976 229.009 222.976 231.126C222.976 233.244 222.91 234.961 222.828 234.961C222.747 234.961 222.681 233.244 222.681 231.126C222.681 229.009 222.747 227.292 222.828 227.292Z" fill="#FAFAFA"/>
<path d="M227.495 227.359C227.495 227.441 221.409 227.507 213.902 227.507C206.393 227.507 200.308 227.441 200.308 227.359C200.308 227.278 206.393 227.211 213.902 227.211C221.409 227.212 227.495 227.277 227.495 227.359Z" fill="#FAFAFA"/>
<path d="M245.077 245.387C245.077 245.468 190.454 245.532 123.089 245.532C55.701 245.532 1.08984 245.467 1.08984 245.387C1.08984 245.307 55.7004 245.242 123.089 245.242C190.454 245.242 245.077 245.308 245.077 245.387Z" fill="#263238"/>
<path d="M37.739 228.545C37.739 228.545 35.1094 210.465 35.3284 199.947C35.5473 189.428 35.3156 177.594 35.3156 177.594H36.5273C36.5273 177.594 35.7067 198.473 36.5997 211.066C37.4922 223.649 39.8432 228.545 39.8432 228.545L37.739 228.545Z" fill="#263238"/>
<path d="M45.5738 157.252C45.3304 156.634 45.0307 155.99 44.4696 155.635C43.7008 155.148 42.693 155.351 41.835 155.654C38.1737 156.949 34.9279 163.775 33.4482 167.366L38.3091 183.744C47.0831 175.605 48.6023 164.927 45.5738 157.252Z" fill="#455A64"/>
<path d="M44.1851 156.299C44.1912 156.302 44.1667 156.375 44.1143 156.513C44.0519 156.67 43.9728 156.867 43.8764 157.11C43.663 157.625 43.3644 158.375 43.0068 159.305C42.2903 161.164 41.3789 163.765 40.5638 166.694C39.7521 169.626 39.1927 172.324 38.8479 174.287C38.6746 175.269 38.5443 176.065 38.4613 176.616C38.4189 176.874 38.3849 177.084 38.3576 177.25C38.332 177.395 38.3147 177.47 38.3081 177.47C38.3014 177.469 38.3047 177.392 38.3175 177.245C38.3348 177.077 38.3571 176.866 38.3838 176.606C38.4429 176.05 38.5521 175.25 38.7081 174.264C39.0178 172.291 39.5565 169.581 40.3705 166.641C41.1878 163.704 42.1232 161.103 42.8747 159.254C43.2497 158.328 43.5689 157.586 43.8045 157.079C43.9154 156.843 44.0057 156.65 44.0775 156.497C44.1422 156.364 44.1789 156.296 44.1851 156.299Z" fill="#263238"/>
<path d="M36.1489 187.675C31.5928 185.157 28.9075 180.421 28.6568 175.222C28.4819 171.587 29.5983 168.021 30.8635 164.609C30.9733 164.314 31.1037 163.994 31.3783 163.839C31.7605 163.622 32.2385 163.815 32.6201 164.032C35.9311 165.917 37.9367 169.512 39.0041 173.169C39.7144 175.602 40.0821 178.168 39.7534 180.682C39.4253 183.196 37.9885 185.931 36.1489 187.675Z" fill="#455A64"/>
<path d="M36.146 187.67C36.1387 187.67 36.1332 187.594 36.1282 187.451C36.1248 187.285 36.1209 187.077 36.1159 186.822C36.1142 186.277 36.0925 185.487 36.0474 184.513C35.9599 182.565 35.7042 179.88 35.2017 176.947C34.6958 174.013 34.083 171.387 33.6312 169.488C33.4083 168.559 33.2256 167.798 33.0919 167.24C33.0351 166.991 32.9888 166.788 32.9515 166.627C32.9214 166.486 32.9092 166.411 32.9158 166.409C32.9225 166.408 32.9482 166.479 32.9905 166.617C33.0373 166.776 33.0952 166.975 33.1671 167.221C33.317 167.746 33.5236 168.509 33.7682 169.454C34.2557 171.345 34.8919 173.972 35.3989 176.914C35.9031 179.855 36.1371 182.554 36.1889 184.508C36.2156 185.486 36.2162 186.277 36.1933 186.823C36.1828 187.078 36.1744 187.286 36.1677 187.452C36.1605 187.595 36.1527 187.67 36.146 187.67Z" fill="#263238"/>
<g opacity="0.3">
<path d="M36.1509 187.676C31.5948 185.158 28.9095 180.422 28.6588 175.223C28.4838 171.588 29.6003 168.021 30.8655 164.61C30.9753 164.314 31.1056 163.995 31.3803 163.84C31.7625 163.623 32.2405 163.816 32.6221 164.033C35.933 165.918 37.9386 169.513 39.0061 173.17C39.7164 175.603 40.0841 178.169 39.7554 180.683C39.4272 183.197 37.9904 185.931 36.1509 187.676Z" fill="black"/>
</g>
<path d="M41.2891 215.334C45.7733 216.319 49.4653 219.482 53.7913 221.02C56.6537 222.037 59.8906 222.398 62.1753 224.399C61.6271 223.015 60.3268 222.093 59.0638 221.304C55.5061 219.081 51.6965 217.263 47.7321 215.894C45.697 215.192 43.4886 214.604 41.4144 215.183" fill="#455A64"/>
<path d="M34.806 219.329C29.1902 219.239 23.2776 214.458 17.6875 214.172C23.5372 212.283 31.9129 213.827 34.806 219.329Z" fill="#455A64"/>
<path d="M37 205.857C39.8519 204.829 42.9829 204.781 45.9779 205.246C48.9729 205.712 51.866 206.672 54.7424 207.628C54.4544 205.68 52.8761 204.215 51.3942 202.918C50.2788 201.942 49.1546 200.96 47.8749 200.213C46.5952 199.466 45.135 198.959 43.6542 199.022C41.8681 199.098 40.1672 200.019 38.9956 201.37C37.824 202.721 37.1939 204.08 37 205.857Z" fill="#455A64"/>
<path d="M25.4723 199.656C21.9374 196.638 16.583 196.933 11.9355 197.038C19.0789 200.453 26.7765 205.136 32.9287 210.12C33.1176 206.835 29.9376 203.468 25.4723 199.656Z" fill="#455A64"/>
<g opacity="0.3">
<path d="M25.4723 199.653C21.9374 196.635 16.583 196.93 11.9355 197.034C19.0789 200.45 26.7765 205.133 32.9287 210.117C33.1176 206.831 29.9376 203.465 25.4723 199.653Z" fill="black"/>
</g>
<path d="M38.5902 195.492C40.368 194.307 42.1664 193.177 44.0266 192.332C45.8873 191.487 47.6233 190.14 49.42 189.167C51.7504 187.905 53.7688 186.152 55.9076 184.587C58.0464 183.023 60.3957 181.611 63.013 181.197C60.8787 180.756 58.6486 180.997 56.5466 181.57C54.4441 182.145 52.4474 183.043 50.4601 183.938C47.7024 185.18 44.8968 186.453 42.6427 188.47C40.3897 190.486 38.3524 192.476 38.5902 195.492Z" fill="#455A64"/>
<path d="M53.6907 219.328C53.6874 219.334 53.6261 219.307 53.513 219.251C53.3804 219.182 53.2189 219.098 53.0228 218.997C52.5999 218.772 51.9927 218.438 51.2283 218.054C50.85 217.854 50.4305 217.646 49.9753 217.432C49.5252 217.208 49.0355 216.988 48.5174 216.764C47.4806 216.321 46.3223 215.859 45.0594 215.559C43.8003 215.25 42.5457 215.182 41.4571 215.468C40.9077 215.601 40.3907 215.731 39.9306 215.924C39.4687 216.111 39.057 216.33 38.6982 216.556C37.9784 217.009 37.4759 217.489 37.15 217.835C36.8247 218.183 36.6664 218.397 36.6519 218.386C36.6464 218.382 36.6809 218.325 36.7528 218.221C36.823 218.115 36.9366 217.967 37.0921 217.783C37.4035 217.417 37.8988 216.914 38.6214 216.437C38.9818 216.198 39.398 215.968 39.8671 215.77C40.3356 215.567 40.8643 215.426 41.4136 215.288C42.5262 214.984 43.8304 215.048 45.1045 215.363C46.387 215.669 47.5513 216.139 48.5904 216.594C49.1096 216.825 49.5987 217.052 50.0472 217.283C50.5013 217.504 50.918 217.72 51.2929 217.929C52.0512 218.33 52.6489 218.683 53.0601 218.929C53.2484 219.044 53.4044 219.138 53.532 219.216C53.6395 219.283 53.6941 219.322 53.6907 219.328Z" fill="#263238"/>
<path d="M30.6165 216.545C30.6215 216.533 30.7463 216.569 30.968 216.649C31.1914 216.724 31.5056 216.859 31.8828 217.046C32.6382 217.419 33.6327 218.055 34.5658 218.949C35.4968 219.846 36.1714 220.814 36.5748 221.554C36.7776 221.924 36.9247 222.232 37.0088 222.453C37.0963 222.671 37.1386 222.794 37.1258 222.8C37.0935 222.814 36.884 222.338 36.4522 221.625C36.0227 220.912 35.3419 219.976 34.4271 219.094C33.5096 218.215 32.5463 217.572 31.8165 217.172C31.0872 216.769 30.6036 216.578 30.6165 216.545Z" fill="#263238"/>
<path d="M18.1924 199.377C18.1947 199.37 18.2771 199.395 18.432 199.448C18.6058 199.509 18.8292 199.589 19.1061 199.688C19.4053 199.798 19.7607 199.929 20.1691 200.079C20.583 200.233 21.0332 200.46 21.5418 200.684C23.5636 201.602 26.2544 203.147 28.8528 205.342C30.1342 206.458 31.293 207.591 32.2618 208.7C33.2273 209.81 34.0446 210.854 34.6814 211.765C35.3226 212.673 35.809 213.43 36.1421 213.954C36.2998 214.201 36.4273 214.401 36.5265 214.556C36.6134 214.694 36.6569 214.769 36.6513 214.773C36.6457 214.777 36.5917 214.71 36.4936 214.579C36.3956 214.448 36.253 214.253 36.0775 213.997C35.7243 213.486 35.2206 212.743 34.5666 211.848C33.917 210.95 33.0919 209.92 32.1236 208.822C31.152 207.726 29.996 206.603 28.7225 205.494C26.1397 203.313 23.4794 201.759 21.4811 200.812C20.978 200.581 20.534 200.345 20.1256 200.182C19.7234 200.02 19.3735 199.878 19.0782 199.76C18.8075 199.647 18.5885 199.556 18.4186 199.485C18.2682 199.42 18.1902 199.383 18.1924 199.377Z" fill="#263238"/>
<path d="M45.4242 202.7C45.4203 202.713 45.261 202.692 44.9763 202.642C44.822 202.614 44.6504 202.582 44.4604 202.547C44.2598 202.508 44.0253 202.507 43.7707 202.48C42.7606 202.407 41.2898 202.49 39.911 203.242C39.2157 203.594 38.6319 204.069 38.155 204.545C37.6703 205.018 37.3031 205.511 37.0257 205.941C36.4624 206.803 36.2881 207.426 36.2541 207.414C36.2429 207.411 36.2747 207.253 36.3683 206.976C36.4714 206.704 36.6307 206.31 36.9059 205.866C37.1722 205.418 37.5354 204.906 38.024 204.415C38.5054 203.921 39.1015 203.428 39.8179 203.065C41.2397 202.29 42.7617 202.228 43.7835 202.339C44.042 202.375 44.2788 202.387 44.4799 202.436C44.6699 202.484 44.8403 202.527 44.9941 202.566C45.2749 202.64 45.4275 202.687 45.4242 202.7Z" fill="#263238"/>
<path d="M51.0731 185.194C51.0765 185.2 51.0029 185.245 50.8609 185.325C50.6993 185.413 50.4915 185.525 50.2341 185.665C49.6892 185.959 48.9054 186.392 47.9527 186.953C47.0051 187.522 45.8881 188.22 44.6997 189.07C43.5147 189.921 42.2423 190.91 41.0673 192.113C40.4879 192.718 39.9542 193.349 39.5815 194.036C39.2138 194.743 38.8623 195.425 38.5386 196.081C37.889 197.391 37.3603 198.597 36.9787 199.633C36.5976 200.669 36.3603 201.532 36.2199 202.133C36.0761 202.735 36.0243 203.073 36.0043 203.071C35.9976 203.069 36.0054 202.984 36.0266 202.822C36.0466 202.66 36.0812 202.421 36.143 202.117C36.2611 201.508 36.4789 200.634 36.845 199.585C37.2121 198.536 37.7302 197.318 38.3726 196C38.6924 195.34 39.0411 194.654 39.4066 193.946C39.7932 193.227 40.3353 192.587 40.9225 191.974C42.1114 190.757 43.395 189.767 44.5916 188.919C45.7917 188.074 46.9204 187.386 47.8803 186.831C48.8447 186.284 49.6408 185.869 50.1973 185.596C50.462 185.47 50.6753 185.368 50.8414 185.289C50.9912 185.22 51.0703 185.188 51.0731 185.194Z" fill="#263238"/>
<path d="M35.3252 202.194C35.3113 202.196 35.2723 202.028 35.2138 201.721C35.148 201.374 35.0662 200.94 34.9681 200.423C34.7542 199.33 34.4271 197.824 33.9062 196.209C33.3898 194.591 32.7614 193.184 32.3023 192.169C32.0845 191.69 31.9012 191.288 31.7547 190.967C31.6271 190.682 31.5625 190.522 31.5747 190.515C31.587 190.509 31.6756 190.657 31.8249 190.932C31.9742 191.207 32.1836 191.607 32.4304 192.108C32.9229 193.11 33.5764 194.517 34.0968 196.147C34.6216 197.775 34.9285 199.295 35.1074 200.397C35.1954 200.95 35.2584 201.398 35.2907 201.708C35.3263 202.02 35.3391 202.193 35.3252 202.194Z" fill="#263238"/>
<path d="M34.9178 189.418C34.7768 187.296 34.0854 185.234 33.0916 183.355C30.3656 178.202 25.2429 174.382 19.5264 173.239C23.7125 179.478 27.8987 185.718 32.0854 191.958L33.7072 195.299C34.813 193.483 35.0587 191.539 34.9178 189.418Z" fill="#455A64"/>
<path d="M52.9343 226.307H23.7314V231.482H52.9343V226.307Z" fill="#E8505B"/>
<path d="M25.9092 230.457L28.3956 246.517H47.7826L50.7498 230.457H25.9092Z" fill="#E8505B"/>
<path d="M52.9151 231.487C52.9151 231.544 46.3278 231.59 38.2045 231.59C30.0778 231.59 23.4922 231.544 23.4922 231.487C23.4922 231.43 30.0778 231.385 38.2045 231.385C46.3278 231.385 52.9151 231.43 52.9151 231.487Z" fill="#263238"/>
<path d="M63.1544 80.4043C72.9291 73.7511 75.4596 60.4336 68.8063 50.6589C62.1531 40.8842 48.8357 38.3538 39.061 45.007C29.2863 51.6602 26.7558 64.9777 33.409 74.7524C40.0623 84.5271 53.3797 87.0575 63.1544 80.4043Z" fill="white"/>
<path d="M34.5511 76.2826C34.5511 76.2826 34.4737 76.1945 34.3333 76.0129C34.1879 75.8218 33.9823 75.5522 33.7155 75.2012C33.5801 75.0212 33.4291 74.8207 33.2625 74.6006C33.1065 74.3722 32.9595 74.107 32.7873 73.8279C32.6179 73.5466 32.4352 73.2435 32.2408 72.9204C32.033 72.6034 31.8948 72.2217 31.7026 71.8412C30.926 70.3231 30.2647 68.3147 29.8769 65.9236C29.5026 63.5335 29.4931 60.7179 30.1962 57.7401C30.287 57.3691 30.3789 56.9936 30.4714 56.6136C30.5867 56.2404 30.7265 55.8699 30.8558 55.491C30.9979 55.1172 31.0987 54.7222 31.2781 54.3551C31.4497 53.984 31.6229 53.6091 31.7979 53.2303C31.8865 53.0414 31.975 52.8514 32.0647 52.6609L32.3862 52.1132C32.6018 51.7461 32.8196 51.3756 33.0397 51.0018C33.2703 50.6352 33.5467 50.2932 33.8018 49.9327C34.0715 49.5834 34.3027 49.1973 34.6191 48.8759C35.2252 48.2118 35.803 47.4981 36.5189 46.9009C36.8665 46.5934 37.1991 46.2608 37.5673 45.9666C37.9467 45.6853 38.3289 45.4022 38.7139 45.117C38.9089 44.9777 39.0944 44.8234 39.2989 44.6958L39.9234 44.3242C40.344 44.0808 40.7563 43.8145 41.1914 43.5849C42.0895 43.1794 42.973 42.703 43.9446 42.4094C44.8878 42.0345 45.8923 41.8245 46.899 41.5777C47.4071 41.479 47.9263 41.4233 48.4445 41.3442C48.7046 41.313 48.9626 41.2568 49.2261 41.2462L50.0177 41.21C51.0763 41.118 52.1454 41.2116 53.2251 41.2623C54.2942 41.4211 55.3811 41.5448 56.4424 41.8506L57.2463 42.0484L58.0318 42.3203L58.8196 42.5966C59.0853 42.683 59.3461 42.7827 59.5962 42.9097C60.1043 43.1454 60.6146 43.3821 61.1266 43.62C61.613 43.9064 62.1016 44.1939 62.5918 44.4825C64.5083 45.7087 66.2588 47.2452 67.7657 49.0335C69.2254 50.8609 70.3914 52.8787 71.2199 54.998C71.407 55.5356 71.5937 56.0704 71.7798 56.6041C71.9129 57.1529 72.0455 57.6994 72.1775 58.2443C72.2528 58.5151 72.3007 58.7897 72.333 59.0677L72.45 59.8945L72.5636 60.7184L72.6004 61.5458C72.6934 62.6466 72.6026 63.7369 72.5486 64.8166C72.3876 65.8857 72.27 66.9526 71.9731 67.9732L71.7825 68.7426C71.7207 68.9988 71.6149 69.2412 71.5335 69.4902C71.3541 69.9827 71.1981 70.4813 71.002 70.9604C70.563 71.8992 70.1608 72.844 69.6087 73.6953C69.1307 74.5906 68.4906 75.3644 67.9173 76.1656C67.607 76.5477 67.2649 76.9004 66.944 77.2647L66.4576 77.8046C66.2922 77.9801 66.1044 78.1322 65.9301 78.296C65.5752 78.6174 65.2225 78.9372 64.8727 79.2542C64.5122 79.5578 64.1211 79.8191 63.7512 80.0999C63.0253 80.6854 62.2124 81.1122 61.4425 81.5768C61.0653 81.8247 60.6414 81.9752 60.2464 82.1718C59.843 82.3512 59.4536 82.5557 59.0486 82.71C58.6385 82.8526 58.233 82.9936 57.8307 83.1334C57.6296 83.203 57.4296 83.2727 57.2307 83.3418C57.0262 83.3919 56.8223 83.442 56.6201 83.4916C56.2145 83.5891 55.8129 83.6861 55.4156 83.7819C55.0201 83.8855 54.6128 83.9078 54.2189 83.9741C53.8223 84.0264 53.4317 84.0916 53.0429 84.1312C52.6523 84.1479 52.2657 84.1646 51.8841 84.1808C48.8261 84.2877 46.0672 83.7278 43.7964 82.8933C41.5279 82.0453 39.6872 81.0041 38.3507 79.9456C38.0153 79.6826 37.6682 79.4726 37.3974 79.2068C37.1183 78.9528 36.857 78.7149 36.6141 78.4937C36.374 78.2703 36.1428 78.0742 35.9495 77.8765C35.7656 77.6703 35.5991 77.4831 35.4492 77.3149C35.1573 76.9845 34.9333 76.7305 34.774 76.5505C34.6224 76.3761 34.5511 76.2826 34.5511 76.2826C34.5511 76.2826 34.638 76.3633 34.7957 76.5299C34.9595 76.7048 35.1901 76.9522 35.491 77.2737C35.6436 77.4386 35.813 77.6219 36.0002 77.8235C36.1963 78.0168 36.4297 78.2091 36.6721 78.4286C36.9166 78.6458 37.1796 78.8793 37.4609 79.1288C37.7328 79.3901 38.081 79.5957 38.4175 79.8537C39.7574 80.8927 41.5947 81.9122 43.851 82.7395C46.1096 83.5535 48.8478 84.0939 51.8763 83.9746C52.254 83.9568 52.6367 83.939 53.0239 83.9206C53.4083 83.8794 53.7955 83.8131 54.1877 83.7601C54.5777 83.6933 54.9805 83.6705 55.3716 83.5657C55.7644 83.4693 56.1616 83.3724 56.5627 83.2743C56.7627 83.2242 56.9644 83.1741 57.1666 83.1239C57.3633 83.0548 57.5611 82.9852 57.76 82.9156C58.1572 82.7757 58.5583 82.6353 58.9633 82.4927C59.3633 82.3389 59.7478 82.1356 60.1461 81.9568C60.5366 81.7612 60.955 81.6114 61.3272 81.3651C62.0865 80.9033 62.8899 80.4793 63.6058 79.8988C63.9707 79.6197 64.3568 79.3612 64.7122 79.0603C65.0571 78.7461 65.4047 78.4297 65.7551 78.1104C65.9273 77.9478 66.1128 77.7979 66.2755 77.6241L66.7551 77.0898C67.0716 76.7288 67.4086 76.3801 67.7145 76.0018C68.2783 75.2084 68.9101 74.4441 69.3797 73.5583C69.924 72.7165 70.319 71.7827 70.7513 70.8557C70.9441 70.3822 71.0973 69.8897 71.2733 69.4033C71.353 69.1576 71.4577 68.9181 71.5179 68.6651L71.7046 67.9052C71.9965 66.898 72.1107 65.8439 72.2689 64.7887C72.3202 63.723 72.4093 62.6466 72.3163 61.5602L72.2795 60.7441L72.1664 59.9312L72.0505 59.1156C72.0188 58.8415 71.9714 58.5702 71.8967 58.3034C71.7664 57.7663 71.6355 57.227 71.5034 56.6855C71.3196 56.1596 71.1352 55.6314 70.9502 55.1016C70.1318 53.0113 68.9814 51.0213 67.5412 49.2179C66.0543 47.4535 64.3278 45.9376 62.4381 44.727C61.9545 44.4423 61.4731 44.1582 60.9929 43.8752C60.4876 43.6406 59.9845 43.4067 59.4837 43.1738C59.2369 43.0484 58.9795 42.9493 58.7176 42.8646L57.9405 42.591L57.1655 42.3214L56.3722 42.1259C55.3254 41.8222 54.2529 41.6997 53.1978 41.5414C52.132 41.4907 51.0768 41.3966 50.0317 41.4863L49.25 41.5208C48.9899 41.5309 48.7353 41.5866 48.4784 41.6167C47.9676 41.6946 47.4545 41.7481 46.9525 41.8451C45.9586 42.088 44.9658 42.2924 44.0343 42.6618C43.0739 42.9498 42.2009 43.4195 41.3128 43.8173C40.8822 44.0429 40.4744 44.3058 40.0588 44.5454L39.4409 44.9109C39.2387 45.0368 39.0548 45.1894 38.8621 45.3259C38.481 45.6073 38.1027 45.8858 37.7272 46.1627C37.3623 46.4524 37.0331 46.7805 36.6882 47.0836C35.9785 47.6719 35.4057 48.3767 34.8046 49.0313C34.4904 49.3477 34.2614 49.7294 33.9935 50.0737C33.7405 50.4296 33.4659 50.7667 33.2363 51.1288C33.018 51.4982 32.8012 51.8637 32.5867 52.2263L32.2664 52.7673C32.1773 52.9556 32.0887 53.1434 32.0007 53.33C31.8263 53.7044 31.653 54.0749 31.482 54.4409C31.3026 54.8041 31.2018 55.1947 31.0597 55.564C30.931 55.9384 30.7906 56.3044 30.6747 56.6738C30.5811 57.0498 30.4887 57.4214 30.3978 57.7886C29.6886 60.7352 29.6831 63.5263 30.0396 65.9007C30.4095 68.2757 31.0502 70.2769 31.8068 71.7944C31.994 72.1744 32.1277 72.5566 32.3305 72.8741C32.5204 73.1984 32.6976 73.502 32.8631 73.7844C33.0308 74.0647 33.1739 74.3315 33.3249 74.5616C33.4865 74.7845 33.633 74.9867 33.765 75.1683C34.0219 75.526 34.2185 75.8007 34.3584 75.9956C34.4887 76.1817 34.5511 76.2826 34.5511 76.2826Z" fill="#263238"/>
<path d="M76.9239 72.9183C78.0999 74.3517 80.2153 74.5607 81.6488 73.3846C83.0822 72.2085 83.2911 70.0932 82.1151 68.6597C80.939 67.2262 78.8236 67.0173 77.3902 68.1934C75.9567 69.3689 75.7478 71.4843 76.9239 72.9183Z" fill="white"/>
<path d="M76.9242 72.9157C76.9164 72.9218 76.8651 72.8689 76.7732 72.7603C76.6796 72.6538 76.5576 72.4806 76.4345 72.2393C76.1871 71.7669 75.9437 70.958 76.157 69.9875C76.3492 69.0337 77.1047 67.9429 78.3599 67.4966C78.9738 67.2721 79.6942 67.2186 80.3866 67.3991C81.083 67.5663 81.741 67.9813 82.2274 68.5641C82.7042 69.1552 82.9828 69.8816 83.0107 70.5975C83.0524 71.3123 82.8591 72.0081 82.5187 72.5669C81.8357 73.7112 80.6178 74.2383 79.6451 74.2399C78.6518 74.2594 77.9064 73.8628 77.4913 73.5274C77.2791 73.3591 77.1325 73.2059 77.0467 73.0934C76.9587 72.9825 76.9164 72.9218 76.9242 72.9157C76.947 72.8951 77.1298 73.1335 77.5587 73.4371C77.9805 73.7346 78.7047 74.0801 79.6379 74.0355C80.5527 74.0082 81.6714 73.4934 82.2886 72.431C82.9215 71.402 82.9126 69.8371 82.0028 68.749C81.1131 67.6448 79.5811 67.3306 78.4484 67.7496C77.2857 68.1473 76.5621 69.1435 76.3565 70.0354C76.1303 70.9418 76.3275 71.7196 76.5364 72.1914C76.7504 72.6711 76.9487 72.8973 76.9242 72.9157Z" fill="#263238"/>
<path d="M59.6198 58.7948L56.7734 55.8672L43.6543 68.6222L46.5006 71.5498L59.6198 58.7948Z" fill="#E8505B"/>
<path d="M46.7215 55.7235L43.7939 58.5698L56.5494 71.6894L59.477 68.8431L46.7215 55.7235Z" fill="#E8505B"/>
<path d="M94.1203 30.7992C90.5119 38.2512 93.6273 47.2174 101.079 50.8258C108.531 54.4342 117.497 51.3189 121.106 43.8669C124.714 36.4149 121.599 27.4487 114.147 23.8403C106.696 20.2313 97.7293 23.3472 94.1203 30.7992Z" fill="white"/>
<path d="M94.1192 30.7981C94.1254 30.8009 94.1705 30.7318 94.2535 30.5936C94.3449 30.4371 94.463 30.2343 94.6128 29.978C94.7621 29.7028 94.9577 29.3696 95.2346 29.0042C95.4981 28.6303 95.7889 28.1908 96.1945 27.7557C96.9393 26.8342 98.0235 25.8464 99.423 24.9211C100.826 24.0041 102.596 23.1957 104.67 22.7868C106.733 22.3862 109.108 22.3472 111.499 23.0263C113.867 23.7116 116.302 24.9768 118.219 27.0086C118.724 27.4899 119.143 28.0582 119.586 28.6158C119.973 29.212 120.402 29.7969 120.71 30.4582C121.072 31.0928 121.32 31.7875 121.599 32.4755C121.807 33.1886 122.042 33.9023 122.155 34.6527C122.415 36.138 122.514 37.6968 122.281 39.245C122.068 40.7921 121.614 42.3259 120.933 43.7805C120.214 45.2173 119.293 46.5249 118.211 47.6525C117.141 48.7957 115.856 49.6843 114.53 50.4024C113.871 50.7784 113.165 51.0364 112.476 51.316C111.763 51.5238 111.064 51.7606 110.342 51.8704C109.632 52.0381 108.907 52.0642 108.2 52.1305C107.487 52.1283 106.782 52.1523 106.091 52.0548C103.308 51.8108 100.806 50.6848 98.799 49.2519C96.7845 47.7973 95.3421 45.9092 94.3766 44.0424C93.4117 42.1621 92.9482 40.2712 92.7978 38.6027C92.6562 36.9313 92.7593 35.4678 93.02 34.3123C93.1097 33.7246 93.2746 33.2237 93.4045 32.7853C93.5192 32.3418 93.6596 31.9819 93.7827 31.6939C93.8908 31.4181 93.9766 31.1992 94.0429 31.0304C94.0992 30.8794 94.1254 30.8009 94.1192 30.7981C94.1131 30.7953 94.0752 30.8683 94.0067 31.0137C93.9315 31.1791 93.8334 31.3936 93.7103 31.6644C93.5749 31.9491 93.4223 32.3067 93.2947 32.7502C93.1526 33.1881 92.9755 33.6906 92.873 34.2811C92.5872 35.4433 92.4602 36.923 92.5827 38.6205C92.7148 40.3153 93.1666 42.2418 94.1332 44.1644C95.0998 46.0736 96.5588 48.0101 98.6085 49.5076C100.649 50.9834 103.204 52.1461 106.053 52.4063C106.761 52.5083 107.483 52.4871 108.213 52.491C108.938 52.4258 109.681 52.4002 110.409 52.2308C111.149 52.1194 111.867 51.8798 112.598 51.6676C113.304 51.3835 114.028 51.1194 114.705 50.7355C116.066 50.0018 117.385 49.0909 118.484 47.9193C119.595 46.7633 120.541 45.4218 121.278 43.9482C121.977 42.4568 122.442 40.883 122.659 39.2946C122.896 37.7057 122.793 36.1068 122.524 34.5842C122.406 33.8154 122.164 33.0839 121.949 32.3535C121.662 31.6482 121.405 30.9373 121.034 30.2878C120.715 29.6114 120.275 29.0125 119.876 28.4036C119.421 27.8337 118.989 27.2537 118.471 26.7618C116.5 24.6876 114.004 23.4052 111.581 22.7188C109.135 22.0391 106.711 22.0954 104.614 22.5205C102.506 22.9539 100.714 23.7946 99.3026 24.7417C97.8948 25.6977 96.8123 26.715 96.078 27.6598C95.678 28.1066 95.3934 28.5574 95.1382 28.9406C94.8697 29.3156 94.683 29.6571 94.5443 29.9401C94.4084 30.2047 94.3009 30.4142 94.2173 30.5763C94.1471 30.7201 94.1137 30.7953 94.1192 30.7981Z" fill="#263238"/>
<path d="M106.975 56.795C106.409 57.9638 106.897 59.3699 108.066 59.9354C109.235 60.5014 110.641 60.0129 111.207 58.844C111.773 57.6752 111.284 56.2696 110.115 55.7036C108.947 55.1381 107.541 55.6267 106.975 56.795Z" fill="white"/>
<path d="M106.976 56.7995C107.006 56.8151 107.103 56.6285 107.35 56.3627C107.593 56.1025 108.027 55.766 108.654 55.6552C109.265 55.536 110.08 55.7064 110.649 56.3092C111.222 56.8881 111.458 57.9109 111.035 58.7644C110.628 59.6257 109.679 60.0748 108.869 59.984C108.044 59.9115 107.405 59.3778 107.119 58.8246C106.817 58.2647 106.812 57.7159 106.866 57.3633C106.92 57.0051 107.007 56.8134 106.976 56.7995C106.96 56.79 106.825 56.9599 106.719 57.3327C106.616 57.6976 106.571 58.3015 106.876 58.9472C107.163 59.5845 107.873 60.2308 108.832 60.3366C109.772 60.4653 110.902 59.9489 111.382 58.9321C111.881 57.9254 111.586 56.7187 110.903 56.0619C110.225 55.375 109.278 55.219 108.6 55.3889C107.904 55.5499 107.458 55.9599 107.235 56.2669C107.008 56.5811 106.959 56.7928 106.976 56.7995Z" fill="#263238"/>
<path d="M104.186 35.4914H106.043C106.043 35.4914 106.043 33.932 107.663 33.9041C108.504 33.8897 108.941 34.4407 109.118 34.8629C109.324 35.3532 109.262 35.912 108.986 36.3672C108.671 36.8864 107.981 37.3583 106.73 37.1376V41.3244H108.566V38.8719C108.566 38.8719 111.141 38.2062 111.141 35.3682C111.141 32.6529 108.706 32.0222 107.663 32.0222C106.866 32.0228 104.151 32.2155 104.186 35.4914Z" fill="#E8505B"/>
<path d="M108.59 42.1899H106.727V43.9304H108.59V42.1899Z" fill="#E8505B"/>
<path d="M168.719 185.219V184.104C169.333 184.104 169.857 183.87 170.319 183.39C172.587 181.032 172.344 174.106 172.342 174.037L172.341 161.462H173.455V174.015C173.467 174.298 173.716 181.466 171.122 184.162C170.447 184.863 169.639 185.219 168.719 185.219Z" fill="#E0E0E0"/>
<path d="M172.633 163.375H133.492C131.313 163.375 129.548 161.609 129.548 159.431V124.598C129.548 122.42 131.313 120.654 133.492 120.654H172.633C174.812 120.654 176.577 122.42 176.577 124.598V159.431C176.577 161.609 174.812 163.375 172.633 163.375Z" fill="#455A64"/>
<path d="M119.467 188.017L111.665 245.764L114.719 245.762L126.305 190.168L119.467 188.017Z" fill="#455A64"/>
<path d="M119.47 188.016C119.47 188.016 119.612 188.053 119.903 188.14C120.206 188.231 120.64 188.363 121.207 188.534C122.378 188.893 124.096 189.419 126.328 190.103L126.386 190.121L126.374 190.181C124.307 200.172 120.047 220.757 115.134 244.501C115.042 244.943 114.95 245.384 114.865 245.792L114.841 245.909H114.721C113.655 245.909 112.638 245.909 111.668 245.91H111.499L111.522 245.743C113.732 229.573 115.709 215.123 117.133 204.704C117.852 199.524 118.431 195.346 118.833 192.451C119.034 191.024 119.191 189.914 119.299 189.149C119.352 188.783 119.393 188.5 119.423 188.298C119.451 188.107 119.47 188.016 119.47 188.016C119.47 188.016 119.461 188.124 119.438 188.322C119.412 188.531 119.376 188.82 119.329 189.196C119.229 189.971 119.084 191.096 118.897 192.54C118.515 195.447 117.963 199.642 117.279 204.842C115.891 215.237 113.966 229.652 111.813 245.782L111.667 245.616C112.637 245.615 113.654 245.615 114.72 245.614L114.576 245.731C114.661 245.323 114.753 244.882 114.845 244.439C119.826 220.711 124.145 200.138 126.241 190.152L126.287 190.23C124.084 189.519 122.388 188.972 121.231 188.599C120.661 188.412 120.225 188.27 119.92 188.17C119.626 188.073 119.47 188.016 119.47 188.016Z" fill="#263238"/>
<path d="M119.124 190.177H170.629C172.548 190.177 174.103 188.621 174.103 186.702C174.103 184.784 172.548 183.228 170.629 183.228H119.124C117.205 183.228 115.649 184.784 115.649 186.702C115.649 188.621 117.205 190.177 119.124 190.177Z" fill="#455A64"/>
<path d="M170.033 188.021L177.836 245.768L174.782 245.766L163.195 190.172L170.033 188.021Z" fill="#455A64"/>
<path d="M118.698 190.169C118.698 190.093 130.486 190.031 145.024 190.031C159.566 190.031 171.352 190.093 171.352 190.169C171.352 190.246 159.566 190.308 145.024 190.308C130.486 190.308 118.698 190.246 118.698 190.169Z" fill="#263238"/>
<path d="M91.6367 129.504L91.9593 113.336L96.9694 102.088C96.9694 102.088 97.6346 100.897 98.15 101.506C98.6658 102.115 98.038 102.856 98.038 102.856C98.038 102.856 99.1906 102.612 98.9851 103.727C98.7795 104.843 98.4352 106.259 98.4352 106.259C98.4352 106.259 98.6675 107.551 97.4597 109.829C96.2513 112.107 96.1677 113.12 96.1677 113.12C96.1677 113.12 97.6898 115.25 98.8926 115.763C100.096 116.277 101.146 115.911 102.007 115.076C102.869 114.242 104.996 113.173 104.996 113.173L106.543 115C106.543 115 104.224 117.525 103.791 118.396C103.358 119.266 102.066 122.556 100.726 123.69C99.3862 124.825 99.0631 128.717 99.0631 128.717C99.0631 128.717 98.3862 132.782 91.6367 129.504Z" fill="#FFBF9D"/>
<path d="M93.1699 114.203C93.1343 114.188 93.3454 113.576 93.7164 112.598C94.0869 111.62 94.6173 110.276 95.219 108.798C95.5226 108.065 95.8117 107.366 96.0803 106.717C96.2212 106.397 96.3872 106.09 96.6118 105.851C96.8385 105.611 97.116 105.451 97.3962 105.395C97.6736 105.335 97.9544 105.395 98.1388 105.531C98.3254 105.663 98.4291 105.837 98.4748 105.986C98.5622 106.3 98.4268 106.461 98.4224 106.448C98.3951 106.443 98.4787 106.28 98.3722 106.023C98.2781 105.777 97.9215 105.453 97.4396 105.588C97.2084 105.646 96.9722 105.794 96.7845 106.007C96.5934 106.224 96.4474 106.506 96.3176 106.819C96.0563 107.469 95.7744 108.169 95.4786 108.904C94.8769 110.382 94.3181 111.714 93.9003 112.673C93.4825 113.631 93.2061 114.217 93.1699 114.203Z" fill="#FF9A6C"/>
<path d="M97.4856 103.012C97.5258 103.048 97.0895 103.531 96.5709 104.432C96.0416 105.328 95.5006 106.663 94.9641 108.168C94.4282 109.674 93.8711 111.03 93.3151 111.933C93.041 112.385 92.7947 112.736 92.597 112.957C92.4048 113.181 92.2922 113.299 92.2772 113.286C92.2365 113.253 92.6499 112.751 93.1424 111.835C93.6449 110.923 94.1641 109.579 94.7006 108.072C95.2371 106.566 95.8176 105.216 96.4009 104.329C96.5346 104.101 96.6851 103.913 96.8093 103.744C96.9308 103.572 97.05 103.436 97.153 103.329C97.3542 103.112 97.4712 103 97.4856 103.012Z" fill="#FF9A6C"/>
<path d="M97.9805 121.394C97.9504 121.405 97.7883 121.072 97.7153 120.485C97.6401 119.903 97.6903 119.056 98.0647 118.222C98.4396 117.389 99.0407 116.789 99.526 116.459C100.014 116.124 100.371 116.025 100.382 116.055C100.402 116.096 100.082 116.257 99.6457 116.618C99.2112 116.973 98.6714 117.557 98.3204 118.337C97.9699 119.117 97.8903 119.908 97.9126 120.469C97.9321 121.034 98.024 121.381 97.9805 121.394Z" fill="#FF9A6C"/>
<path d="M97.4866 124.334C97.4726 124.322 97.5345 124.19 97.4816 123.917C97.4409 123.647 97.3289 123.261 97.1774 122.79C96.8732 121.845 96.3762 120.56 95.92 119.101C95.6971 118.37 95.4993 117.665 95.4364 116.985C95.3985 116.644 95.4676 116.294 95.5567 116.019C95.6414 115.747 95.7216 115.488 95.7979 115.242C95.9367 114.772 95.9523 114.376 95.9083 114.109C95.8648 113.842 95.7879 113.705 95.8091 113.694C95.8202 113.685 95.9339 113.807 96.0152 114.086C96.0966 114.363 96.1105 114.795 95.9902 115.291C95.9344 115.538 95.8537 115.802 95.7812 116.081C95.7027 116.368 95.6542 116.645 95.6938 116.963C95.7656 117.598 95.9668 118.296 96.1874 119.018C96.6398 120.465 97.1083 121.763 97.3668 122.733C97.496 123.218 97.5807 123.618 97.5896 123.906C97.6141 124.198 97.5016 124.353 97.4866 124.334Z" fill="#FF9A6C"/>
<path d="M93.8175 224.078L94.8582 238.341C94.8582 238.341 79.8897 244.133 79.8105 246.787L109.104 245.87L108.445 223.583L93.8175 224.078Z" fill="#263238"/>
<path d="M103.903 236.861C104.475 236.991 104.888 237.581 104.775 238.128C104.663 238.674 104.031 239.076 103.456 238.957C102.882 238.837 102.363 238.142 102.54 237.611C102.716 237.08 103.485 236.646 104.012 236.893" fill="#E0E0E0"/>
<path d="M109.106 245.862L108.947 243.618L80.9203 245.337C80.9203 245.337 79.635 245.915 79.8128 246.779L109.106 245.862Z" fill="#455A64"/>
<path d="M94.3829 238.205C94.3924 238.34 95.1099 238.379 95.8286 238.792C96.559 239.188 96.9423 239.763 97.0721 239.705C97.203 239.675 96.9612 238.872 96.0816 238.387C95.2063 237.893 94.3473 238.082 94.3829 238.205Z" fill="white"/>
<path d="M91.3769 239.519C91.349 239.651 91.9763 239.862 92.4822 240.42C93.0053 240.963 93.1496 241.578 93.2917 241.568C93.4265 241.585 93.4978 240.789 92.8555 240.108C92.2192 239.421 91.3752 239.39 91.3769 239.519Z" fill="white"/>
<path d="M89.7503 243.022C89.8812 243.046 90.0567 242.364 89.6634 241.634C89.2756 240.901 88.5909 240.63 88.5341 240.744C88.4572 240.858 88.9052 241.242 89.2183 241.846C89.547 242.444 89.6077 243.013 89.7503 243.022Z" fill="white"/>
<path d="M135.167 224.09L134.561 241.379L129.918 254.886C129.584 255.859 130.192 256.906 131.243 257.165C131.832 257.309 132.451 257.18 132.912 256.81C135.845 254.455 146.59 245.741 146.559 244.473C146.524 243.004 148.477 226.288 148.477 226.288L135.167 224.09Z" fill="#263238"/>
<path d="M131.229 257.169L146.614 243.312L146.571 244.044C146.534 244.676 146.263 245.274 145.802 245.729C144.567 246.946 141.079 250.235 132.952 256.818C132.48 257.201 131.83 257.334 131.229 257.169Z" fill="#455A64"/>
<g opacity="0.6">
<path d="M143.219 237.501C142.744 237.772 142.556 238.417 142.827 238.88C143.098 239.343 143.79 239.536 144.27 239.273C144.75 239.01 145.001 238.243 144.678 237.811C144.354 237.379 143.528 237.194 143.13 237.559" fill="white"/>
</g>
<path d="M135.866 249.889C135.761 249.93 135.403 249 134.347 248.447C133.308 247.863 132.286 248.045 132.269 247.936C132.256 247.893 132.495 247.773 132.925 247.742C133.351 247.709 133.966 247.804 134.544 248.117C135.121 248.432 135.52 248.886 135.708 249.252C135.899 249.621 135.913 249.877 135.866 249.889Z" fill="white"/>
<path d="M134.429 252.122C134.337 252.192 133.785 251.594 132.857 251.28C131.936 250.946 131.112 251.061 131.089 250.952C131.041 250.861 131.941 250.549 132.993 250.924C134.049 251.287 134.526 252.082 134.429 252.122Z" fill="white"/>
<path d="M138.444 247.062C138.354 247.139 137.509 246.216 136.11 245.608C134.72 244.979 133.436 244.959 133.44 244.843C133.416 244.749 134.785 244.593 136.278 245.264C137.776 245.92 138.535 247.019 138.444 247.062Z" fill="white"/>
<path d="M139.089 241.838C139.035 241.938 138.05 241.478 136.742 241.352C135.435 241.209 134.376 241.46 134.343 241.35C134.298 241.262 135.376 240.824 136.781 240.974C138.187 241.113 139.152 241.762 139.089 241.838Z" fill="white"/>
<path d="M139.634 238.067C139.572 238.163 138.592 237.525 137.204 237.499C135.816 237.444 134.809 238.025 134.751 237.924C134.724 237.886 134.936 237.682 135.37 237.478C135.8 237.274 136.465 237.099 137.213 237.119C137.96 237.143 138.616 237.356 139.037 237.585C139.461 237.814 139.664 238.03 139.634 238.067Z" fill="white"/>
<path d="M90.2719 235.332C90.2719 235.332 82.084 182.712 83.0801 176.901C84.0763 171.091 88.3956 164.05 98.3618 163.622C101.991 163.467 127.019 161.462 127.019 161.462H150.823L144.739 184.574L115.656 184.838L104.747 185.9C105.885 196.244 109.707 206.754 108.042 235.331H90.2719V235.332Z" fill="#263238"/>
<path d="M153.37 165.016C153.37 165.016 137.98 170.814 135.567 173.285C133.154 175.756 132.399 179.147 131.766 182.933C131.133 186.718 132.259 235.908 132.259 235.908L149.49 236.163L154.911 186.685C154.911 186.685 169.947 186.038 171.541 179.463C173.135 172.888 169.154 161.466 169.154 161.466L158.128 163.932L153.37 165.016Z" fill="#263238"/>
<path d="M139.562 170.879C139.575 170.898 139.333 171.066 138.907 171.376C138.481 171.688 137.878 172.157 137.189 172.797C135.809 174.065 134.114 176.109 133.006 178.761C131.857 181.407 131.863 184.081 131.779 185.956C131.744 186.902 131.706 187.668 131.665 188.196C131.622 188.725 131.585 189.016 131.566 189.015C131.545 189.014 131.544 188.72 131.553 188.191C131.558 187.609 131.566 186.856 131.574 185.951C131.586 185.004 131.595 183.873 131.728 182.619C131.864 181.367 132.163 179.991 132.739 178.648C133.868 175.948 135.62 173.888 137.051 172.645C137.767 172.016 138.395 171.567 138.844 171.282C139.292 170.999 139.553 170.864 139.562 170.879Z" fill="#455A64"/>
<path d="M155.344 181.566C155.424 181.573 155.387 182.712 155.26 184.11C155.134 185.508 154.967 186.635 154.888 186.628C154.808 186.62 154.845 185.482 154.972 184.084C155.098 182.686 155.265 181.559 155.344 181.566Z" fill="#455A64"/>
<path d="M151.289 179.956C151.351 179.912 152.36 181.274 153.343 183.114C154.33 184.953 154.903 186.548 154.833 186.575C154.755 186.608 154.066 185.074 153.087 183.251C152.113 181.426 151.219 180.003 151.289 179.956Z" fill="#455A64"/>
<path d="M99.15 127.978L100.399 134.907C100.399 134.907 103.517 118.846 105.553 117.333C107.589 115.82 110.036 114.64 110.036 114.64L114.086 138.802C114.086 138.802 109.915 157.43 106.966 160.473C104.017 163.517 95.3254 167.217 92.5867 160.473C89.8479 153.73 91.6045 126.83 91.6045 126.83L99.15 127.978Z" fill="#FFBF9D"/>
<path d="M103.296 153.91C103.275 153.911 103.241 153.639 103.195 153.147C103.145 152.599 103.081 151.901 103.005 151.065C102.842 149.308 102.585 146.884 102.204 144.219C101.82 141.555 101.385 139.156 101.047 137.424C100.885 136.6 100.75 135.912 100.644 135.372C100.549 134.888 100.507 134.617 100.526 134.612C100.546 134.608 100.626 134.869 100.754 135.347C100.884 135.824 101.053 136.519 101.248 137.381C101.638 139.105 102.107 141.506 102.491 144.178C102.873 146.849 103.099 149.284 103.21 151.049C103.265 151.931 103.298 152.646 103.308 153.14C103.319 153.635 103.316 153.909 103.296 153.91Z" fill="#FF9A6C"/>
<path d="M107.138 116.056C107.138 116.056 104.151 128.895 107.364 133.09C110.577 137.284 124.335 151.28 124.335 151.28L127.021 157.924L125.696 162.186C125.696 162.186 126.403 168.665 138.921 170.406C151.44 172.147 170.006 164.213 170.006 164.213C170.006 164.213 162.679 123.955 153.873 115.456C149.598 111.33 141.693 106.992 133.438 108.629C125.183 110.266 107.138 116.056 107.138 116.056Z" fill="#E8505B"/>
<path d="M100.4 134.909L113.328 142.014L114.936 136.886L109.869 113.699C109.869 113.699 105.487 116.058 103.769 120.055C102.604 122.768 100.4 134.909 100.4 134.909Z" fill="#E8505B"/>
<path d="M105.936 133.107C105.965 133.078 106.415 133.489 107.131 134.163C107.916 134.9 108.872 135.798 109.929 136.79C110.998 137.771 111.964 138.658 112.758 139.386C113.483 140.05 113.926 140.468 113.899 140.5C113.874 140.529 113.384 140.166 112.623 139.541C111.862 138.916 110.834 138.025 109.732 137.002C108.631 135.98 107.666 135.02 106.987 134.308C106.306 133.596 105.908 133.134 105.936 133.107Z" fill="#263238"/>
<path d="M140.724 156.809C140.722 156.829 140.478 156.814 140.038 156.77C139.598 156.73 138.964 156.643 138.185 156.509C136.626 156.245 134.491 155.746 132.211 154.945C129.933 154.139 127.956 153.188 126.577 152.416C125.887 152.031 125.338 151.702 124.97 151.457C124.6 151.215 124.401 151.073 124.412 151.057C124.422 151.039 124.641 151.149 125.028 151.36C125.413 151.575 125.974 151.876 126.673 152.236C128.071 152.957 130.046 153.872 132.308 154.672C134.571 155.467 136.681 155.993 138.222 156.309C138.993 156.467 139.619 156.585 140.053 156.66C140.488 156.736 140.727 156.789 140.724 156.809Z" fill="#263238"/>
<path d="M96.0337 98.3108C94.8314 99.2272 92.9222 99.0829 91.8643 97.996C90.8063 96.9091 90.7489 95.0316 91.7383 93.8967C90.428 93.5647 89.3968 92.3541 89.2971 91.0315C89.1974 89.7089 90.038 88.3746 91.2854 87.8732C90.6353 86.7267 90.6447 85.2492 91.3105 84.1188C91.9762 82.989 93.2732 82.2464 94.6075 82.2324C95.2014 80.4235 97.2009 79.1761 99.1285 79.4123C100.107 78.5532 101.672 78.414 102.802 79.0853C103.931 79.7572 104.535 81.185 104.217 82.4374" fill="#263238"/>
<path d="M101.308 81.6558L100.724 82.0046C94.8564 85.5127 92.746 92.8694 95.8759 98.9108C98.7868 104.53 102.075 110.702 103.908 113.555C107.704 119.461 114.326 116.773 114.326 116.773L118.581 124.038L129.748 109.778L117.757 88.3078C114.435 81.8057 107.821 78.2591 101.308 81.6558Z" fill="#FFBF9D"/>
<path d="M114.28 116.795C114.28 116.795 118.282 114.716 120.771 109.779C120.771 109.779 121.587 115.175 115.222 118.244L114.28 116.795Z" fill="#FF9A6C"/>
<path d="M101.957 103.3C102.221 103.758 102.834 103.919 103.325 103.66C103.815 103.401 104 102.82 103.736 102.362C103.471 101.903 102.859 101.742 102.368 102.001C101.877 102.26 101.692 102.842 101.957 103.3Z" fill="#263238"/>
<path d="M99.0209 101.051C99.197 101.098 99.553 100.231 100.483 99.6778C101.404 99.1123 102.38 99.1753 102.411 99.0037C102.429 98.9246 102.195 98.7892 101.766 98.7541C101.341 98.7167 100.714 98.8087 100.137 99.1569C99.5602 99.5056 99.2048 100.006 99.0594 100.388C98.9084 100.775 98.9374 101.033 99.0209 101.051Z" fill="#263238"/>
<path d="M110.307 98.0073C110.572 98.4658 111.184 98.6263 111.676 98.3672C112.166 98.1087 112.351 97.5277 112.086 97.0692C111.822 96.6112 111.209 96.4496 110.719 96.7081C110.227 96.9672 110.043 97.5488 110.307 98.0073Z" fill="#263238"/>
<path d="M108.219 95.7608C108.395 95.8076 108.752 94.9401 109.681 94.3875C110.602 93.8226 111.578 93.885 111.608 93.7128C111.627 93.6337 111.394 93.4983 110.963 93.4638C110.538 93.4265 109.911 93.5184 109.334 93.8666C108.758 94.2153 108.402 94.7162 108.257 95.0984C108.107 95.4839 108.135 95.7429 108.219 95.7608Z" fill="#263238"/>
<path d="M109.11 104.553C109.082 104.499 108.443 104.746 107.434 105.187C107.182 105.305 106.928 105.392 106.789 105.257C106.628 105.122 106.569 104.811 106.514 104.47C106.384 103.772 106.247 103.04 106.103 102.273C105.494 99.1595 104.898 96.6563 104.77 96.6808C104.643 96.7054 105.033 99.2491 105.642 102.363C105.798 103.127 105.946 103.856 106.088 104.553C106.165 104.872 106.198 105.265 106.539 105.543C106.711 105.679 106.965 105.702 107.142 105.652C107.322 105.606 107.457 105.529 107.579 105.466C108.552 104.952 109.138 104.607 109.11 104.553Z" fill="#263238"/>
<path d="M108.909 90.4841C108.723 90.2351 107.854 90.6613 106.731 90.8624C105.613 91.0892 104.626 91.0162 104.569 91.312C104.547 91.4519 104.788 91.6647 105.231 91.8218C105.67 91.9789 106.312 92.0558 106.984 91.9282C107.656 91.7995 108.207 91.4947 108.537 91.1906C108.87 90.8864 108.993 90.6039 108.909 90.4841Z" fill="#263238"/>
<path d="M98.9061 93.6075C98.5763 93.6799 98.3339 94.5713 97.7885 95.4961C97.2704 96.4359 96.6191 97.1106 96.7328 97.4176C96.793 97.5585 97.0793 97.5591 97.486 97.3351C97.8888 97.1162 98.3913 96.6499 98.7573 96.0092C99.1223 95.3685 99.2615 94.71 99.2376 94.2649C99.2158 93.8142 99.0621 93.5813 98.9061 93.6075Z" fill="#263238"/>
<path d="M94.7595 95.8267C94.7595 95.8267 94.0235 91.1469 95.3043 89.1864C96.8553 86.8131 99.2994 88.6321 101.042 86.7942C102.785 84.9562 104.262 82.6849 107.416 83.0013C110.867 83.3473 110.534 85.2376 112.33 87.7914C119.613 98.1437 123.491 99.9838 120.903 94.6043C120.62 94.0149 121.902 92.645 120.673 90.1731C119.08 86.968 116.9 83.2225 114.872 81.4849C113.162 80.0202 111.332 79.3962 108.59 79.1411C104.262 78.7383 100.157 81.1277 97.5612 83.057C94.965 84.9852 91.5901 91.3112 94.7595 95.8267Z" fill="#263238"/>
<path d="M120.417 94.674C119.881 93.7331 120.231 92.5275 121.214 92.0584C122.407 91.4901 124.055 91.3703 125.415 93.7086C127.827 97.8557 123.1 99.3493 123.023 99.2346C122.972 99.1566 121.41 96.4178 120.417 94.674Z" fill="#FFBF9D"/>
<path d="M123.029 97.1713C123.039 97.1479 123.132 97.1813 123.288 97.1679C123.441 97.1557 123.671 97.0777 123.843 96.8743C124.195 96.4665 124.165 95.5629 123.751 94.8041C123.542 94.4208 123.253 94.106 122.943 93.8837C122.638 93.6514 122.316 93.5506 122.069 93.6358C121.817 93.7088 121.735 93.9288 121.751 94.0743C121.762 94.2213 121.837 94.2893 121.819 94.3094C121.814 94.3266 121.688 94.2899 121.623 94.0999C121.592 94.008 121.585 93.8826 121.637 93.7478C121.691 93.6107 121.816 93.4871 121.981 93.4169C122.319 93.2586 122.782 93.3901 123.122 93.6341C123.48 93.8692 123.814 94.218 124.048 94.6486C124.507 95.4994 124.527 96.5228 124.019 97.0342C123.767 97.2749 123.469 97.3245 123.284 97.2977C123.094 97.2676 123.019 97.1869 123.029 97.1713Z" fill="#FF9A6C"/>
<path d="M115.403 86.8479C115.092 87.5293 114.758 88.2401 114.15 88.6897C113.543 89.1393 112.575 89.2156 112.072 88.6502C111.846 88.3961 111.711 88.0256 111.385 87.9198C110.996 87.7933 110.631 88.1243 110.307 88.3672C109.184 89.2106 106.964 88.7432 105.939 87.7755C105.915 88.41 105.33 88.9482 104.682 88.931C104.034 88.9137 103.76 88.8468 103.141 88.6546C102.523 88.4624 101.785 88.4011 101.287 88.8039C101.008 89.0296 100.834 89.3794 100.51 89.536C99.9378 89.8129 99.2815 89.3454 98.8682 88.8647C98.4548 88.3833 98.0041 87.8028 97.3639 87.7894C96.7712 87.7766 96.316 88.2613 95.8614 88.6323C95.4074 89.0034 94.6903 89.2736 94.2619 88.8691C94.0368 88.6569 93.9811 88.3259 93.9856 88.0206C94.0051 86.639 95.131 85.3571 96.5205 85.1348C96.0842 83.5487 96.7065 81.7392 98.0308 80.7458C99.3545 79.7519 101.301 79.6338 102.751 80.4589C103.136 79.1569 104.2 78.0706 105.511 77.6416C106.822 77.2126 108.344 77.4522 109.461 78.2628C110.303 77.4015 111.687 77.0995 112.83 77.5274C113.972 77.9558 114.806 79.089 114.858 80.2857C115.862 80.2595 116.952 80.606 117.494 81.4389C118.036 82.2718 117.727 83.6088 116.763 83.8807C117.506 84.337 117.792 85.3894 117.375 86.1409C116.959 86.893 115.907 87.2273 115.115 86.8596" fill="#263238"/>
<path d="M96.9604 86.5018C96.957 86.504 96.9732 86.5291 97.0077 86.5759C97.044 86.6216 97.093 86.694 97.1699 86.7776C97.3253 86.9425 97.576 87.1754 97.9599 87.3821C98.342 87.5837 98.8574 87.7726 99.4774 87.796C100.091 87.8283 100.821 87.6952 101.467 87.2595L101.34 87.211C101.43 87.6355 101.726 88.0322 102.125 88.2846C102.519 88.5487 102.984 88.7141 103.458 88.8623C103.695 88.9281 103.929 89.0317 104.212 89.0528C104.486 89.0718 104.764 89.0116 105.017 88.9008C105.519 88.6807 105.957 88.2244 106.053 87.6367L105.871 87.6857C106.482 88.4317 107.455 88.9615 108.506 89.0111C109.074 89.0556 109.667 88.9359 110.137 88.6378C110.612 88.3475 110.97 87.9431 111.293 87.5498L111.153 87.5681C111.691 87.9414 112.302 88.1687 112.916 88.2395C113.522 88.3141 114.18 88.1765 114.597 87.7648C115.445 86.9787 115.593 85.7932 115.253 84.9631L115.186 85.0622C115.832 85.0327 116.367 84.7469 116.734 84.4188C117.109 84.0901 117.327 83.7112 117.452 83.392C117.576 83.0689 117.599 82.7981 117.603 82.6187C117.596 82.4382 117.582 82.3446 117.576 82.3457C117.545 82.3413 117.633 82.7368 117.376 83.3619C117.244 83.6667 117.023 84.0254 116.656 84.3319C116.297 84.6388 115.784 84.8979 115.181 84.9163L115.077 84.9196L115.114 85.0154C115.422 85.7954 115.264 86.913 114.472 87.6316C114.091 87.9999 113.511 88.118 112.937 88.0478C112.362 87.9787 111.776 87.7576 111.273 87.4055L111.194 87.3497L111.133 87.4238C110.814 87.8105 110.466 88.1966 110.026 88.4634C109.59 88.7375 109.059 88.8456 108.518 88.8049C107.526 88.757 106.614 88.2623 106.031 87.5587L105.885 87.3815L105.849 87.6071C105.771 88.108 105.385 88.5247 104.934 88.723C104.708 88.8239 104.463 88.8779 104.224 88.8629C103.993 88.8501 103.754 88.752 103.515 88.6857C103.044 88.5431 102.595 88.3854 102.225 88.1414C101.848 87.9069 101.587 87.5592 101.499 87.1787L101.472 87.0617L101.373 87.1308C100.769 87.5492 100.074 87.6901 99.4819 87.6695C98.8836 87.6584 98.3805 87.4879 98.0022 87.3035C97.2412 86.913 96.9838 86.4751 96.9604 86.5018Z" fill="#455A64"/>
<path d="M113.355 105.266C113.409 105.424 112.761 105.764 112.177 106.399C111.579 107.022 111.28 107.689 111.119 107.645C110.966 107.623 111.046 106.75 111.754 106.002C112.457 105.249 113.323 105.114 113.355 105.266Z" fill="#263238"/>
<path d="M108.506 116.949C108.505 116.959 108.434 116.956 108.299 116.94C108.162 116.93 107.966 116.887 107.715 116.821C107.218 116.677 106.519 116.358 105.797 115.771C105.435 115.48 105.069 115.127 104.701 114.728C104.52 114.526 104.334 114.317 104.143 114.102C103.953 113.886 103.777 113.62 103.618 113.367C102.969 112.336 102.316 111.176 101.63 109.956C100.265 107.513 99.0734 105.279 98.2238 103.655C97.7993 102.843 97.4617 102.183 97.2344 101.723C97.0071 101.264 96.8907 101.005 96.9079 100.996C96.9258 100.986 97.0762 101.227 97.3336 101.67C97.6132 102.163 97.9726 102.797 98.4038 103.558C99.3208 105.207 100.538 107.395 101.883 109.815C102.567 111.032 103.215 112.198 103.844 113.224C104.139 113.744 104.523 114.158 104.879 114.566C105.233 114.966 105.583 115.32 105.927 115.614C106.614 116.205 107.275 116.54 107.749 116.714C108.228 116.882 108.511 116.921 108.506 116.949Z" fill="#FF9A6C"/>
<path d="M132.505 164.266C132.505 164.266 127.143 165.402 125.535 166.781C123.926 168.16 118.543 174.412 116.879 176.33L112.743 184.487C112.743 184.487 112.845 188.959 113.129 190.055C113.403 191.111 115.041 191.381 115.041 190.117C115.041 188.853 115.155 185.866 115.155 185.866L117.109 182.994L116.075 185.751C116.075 185.751 115.783 191.655 116.879 192.07C117.949 192.475 118.451 191.975 118.451 190.71C118.451 189.446 118.567 185.967 118.567 185.967L120.495 182.728L120.097 186.441C120.097 186.441 119.637 191.036 120.211 191.726C120.786 192.415 121.82 191.266 121.82 191.266C121.82 191.266 123.199 193.909 123.773 191.381C124.347 188.854 124.692 186.211 124.692 186.211L127.794 178.371L131.344 174.05L137.173 172.984C137.173 172.984 136.871 165.3 132.505 164.266Z" fill="#FFBF9D"/>
<path d="M123.596 182.316C123.635 182.334 123.441 182.818 123.17 183.612C122.898 184.404 122.564 185.514 122.313 186.767C122.065 188.02 121.947 189.173 121.895 190.01C121.841 190.846 121.834 191.368 121.791 191.369C121.757 191.371 121.694 190.85 121.696 190.003C121.699 189.156 121.786 187.983 122.038 186.713C122.292 185.443 122.661 184.326 122.984 183.543C123.306 182.758 123.565 182.301 123.596 182.316Z" fill="#FF9A6C"/>
<path d="M142.721 123.915C142.731 124.305 147.036 158.365 147.036 158.365L127.283 165.758L131.345 174.05C131.345 174.05 154.242 170.341 156.405 168.7C158.567 167.059 161.183 166.253 161.789 161.216C162.395 156.179 162.541 134.261 159.899 127.573C157.257 120.885 155.099 114.179 149.86 115.665C144.621 117.151 142.721 123.915 142.721 123.915Z" fill="#FFBF9D"/>
<path d="M141.849 137.95L161.863 135.709C161.863 135.709 158.724 114.222 149.593 113.532C140.461 112.841 141.849 137.95 141.849 137.95Z" fill="#E8505B"/>
<path d="M161.433 135.742C161.434 135.751 161.303 135.775 161.052 135.811C160.775 135.849 160.408 135.898 159.946 135.961C158.955 136.083 157.56 136.254 155.831 136.467C152.305 136.877 147.421 137.444 141.865 138.09L141.734 138.105L141.709 137.975C141.443 136.596 141.214 135.153 141.027 133.673C140.61 130.37 140.422 127.203 140.33 124.324C140.279 122.877 140.433 121.479 140.847 120.248C141.053 119.633 141.311 119.063 141.584 118.531C141.861 118.004 142.126 117.494 142.463 117.048C143.134 116.164 143.944 115.553 144.685 115.1C145.429 114.647 146.125 114.354 146.707 114.163C147.29 113.974 147.759 113.889 148.077 113.84C148.236 113.819 148.359 113.812 148.441 113.805C148.523 113.799 148.565 113.799 148.566 113.804C148.567 113.815 148.401 113.843 148.086 113.898C147.774 113.965 147.314 114.067 146.744 114.27C146.175 114.474 145.495 114.779 144.77 115.238C144.051 115.696 143.266 116.309 142.629 117.17C142.312 117.597 142.053 118.106 141.784 118.632C141.52 119.16 141.273 119.722 141.077 120.323C140.682 121.526 140.541 122.888 140.598 124.315C140.705 127.188 140.901 130.346 141.316 133.637C141.502 135.112 141.729 136.549 141.99 137.921L141.834 137.806C147.394 137.2 152.282 136.667 155.811 136.282C157.544 136.104 158.942 135.962 159.936 135.86C160.4 135.818 160.77 135.785 161.047 135.76C161.299 135.74 161.432 135.733 161.433 135.742Z" fill="#263238"/>
<path d="M156.21 160.412C156.166 160.497 154.381 159.365 151.886 158.789C149.394 158.187 147.292 158.401 147.291 158.305C147.287 158.271 147.805 158.174 148.655 158.152C149.504 158.129 150.686 158.209 151.952 158.507C153.218 158.807 154.311 159.264 155.059 159.664C155.809 160.064 156.229 160.383 156.21 160.412Z" fill="#FF9A6C"/>
</svg>
