<svg width="16" height="16" viewBox="0 0 16 16" fill="none" xmlns="http://www.w3.org/2000/svg">
<path d="M12.75 13.8H3.25C3.00156 13.7993 2.76349 13.7003 2.58782 13.5246C2.41214 13.349 2.31316 13.1109 2.3125 12.8625V3.77747C2.3125 3.52883 2.41127 3.29037 2.58709 3.11455C2.7629 2.93874 3.00136 2.83997 3.25 2.83997H12.75C12.9986 2.83997 13.2371 2.93874 13.4129 3.11455C13.5887 3.29037 13.6875 3.52883 13.6875 3.77747V12.8625C13.6868 13.1109 13.5879 13.349 13.4122 13.5246C13.2365 13.7003 12.9984 13.7993 12.75 13.8ZM3.25 3.21497C3.10082 3.21497 2.95774 3.27423 2.85225 3.37972C2.74676 3.48521 2.6875 3.62828 2.6875 3.77747V12.8625C2.6875 13.0117 2.74676 13.1547 2.85225 13.2602C2.95774 13.3657 3.10082 13.425 3.25 13.425H12.75C12.8992 13.425 13.0423 13.3657 13.1477 13.2602C13.2532 13.1547 13.3125 13.0117 13.3125 12.8625V3.77747C13.3125 3.62828 13.2532 3.48521 13.1477 3.37972C13.0423 3.27423 12.8992 3.21497 12.75 3.21497H3.25Z" fill="#7D7D7D"/>
<path d="M5.75 3.85495C5.70047 3.8543 5.65316 3.83434 5.61813 3.79932C5.58311 3.76429 5.56315 3.71698 5.5625 3.66745V2.38745C5.5625 2.33772 5.58225 2.29003 5.61742 2.25487C5.65258 2.21971 5.70027 2.19995 5.75 2.19995C5.79973 2.19995 5.84742 2.21971 5.88258 2.25487C5.91775 2.29003 5.9375 2.33772 5.9375 2.38745V3.66745C5.93685 3.71698 5.91689 3.76429 5.88187 3.79932C5.84684 3.83434 5.79953 3.8543 5.75 3.85495Z" fill="#7D7D7D"/>
<path d="M10.25 3.85495C10.2005 3.8543 10.1532 3.83434 10.1181 3.79932C10.0831 3.76429 10.0631 3.71698 10.0625 3.66745V2.38745C10.0625 2.33772 10.0823 2.29003 10.1174 2.25487C10.1526 2.21971 10.2003 2.19995 10.25 2.19995C10.2997 2.19995 10.3474 2.21971 10.3826 2.25487C10.4177 2.29003 10.4375 2.33772 10.4375 2.38745V3.66745C10.4369 3.71698 10.4169 3.76429 10.3819 3.79932C10.3468 3.83434 10.2995 3.8543 10.25 3.85495Z" fill="#7D7D7D"/>
<path d="M4.75 3.85495C4.70047 3.8543 4.65316 3.83434 4.61813 3.79932C4.58311 3.76429 4.56315 3.71698 4.5625 3.66745V2.38745C4.5625 2.33772 4.58225 2.29003 4.61742 2.25487C4.65258 2.21971 4.70027 2.19995 4.75 2.19995C4.79973 2.19995 4.84742 2.21971 4.88258 2.25487C4.91775 2.29003 4.9375 2.33772 4.9375 2.38745V3.66745C4.93685 3.71698 4.91689 3.76429 4.88187 3.79932C4.84684 3.83434 4.79953 3.8543 4.75 3.85495Z" fill="#7D7D7D"/>
<path d="M11.25 3.85495C11.2005 3.8543 11.1532 3.83434 11.1181 3.79932C11.0831 3.76429 11.0631 3.71698 11.0625 3.66745V2.38745C11.0625 2.33772 11.0823 2.29003 11.1174 2.25487C11.1526 2.21971 11.2003 2.19995 11.25 2.19995C11.2997 2.19995 11.3474 2.21971 11.3826 2.25487C11.4177 2.29003 11.4375 2.33772 11.4375 2.38745V3.66745C11.4369 3.71698 11.4169 3.76429 11.3819 3.79932C11.3468 3.83434 11.2995 3.8543 11.25 3.85495Z" fill="#7D7D7D"/>
<path d="M5 6.25H3.9375C3.88777 6.25 3.84008 6.23025 3.80492 6.19508C3.76975 6.15992 3.75 6.11223 3.75 6.0625V5C3.75 4.95027 3.76975 4.90258 3.80492 4.86742C3.84008 4.83225 3.88777 4.8125 3.9375 4.8125H5C5.04973 4.8125 5.09742 4.83225 5.13258 4.86742C5.16775 4.90258 5.1875 4.95027 5.1875 5V6.06C5.18783 6.08483 5.18323 6.10948 5.17395 6.13252C5.16468 6.15556 5.15092 6.17652 5.13347 6.1942C5.11603 6.21188 5.09525 6.22591 5.07234 6.23549C5.04942 6.24507 5.02483 6.25 5 6.25ZM4.125 5.875H4.8125V5.1875H4.125V5.875Z" fill="#7D7D7D"/>
<path d="M5 9.36743H3.9375C3.88797 9.36678 3.84066 9.34682 3.80563 9.3118C3.77061 9.27677 3.75065 9.22946 3.75 9.17993V8.11743C3.75065 8.06791 3.77061 8.02059 3.80563 7.98557C3.84066 7.95054 3.88797 7.93058 3.9375 7.92993H5C5.04953 7.93058 5.09684 7.95054 5.13187 7.98557C5.16689 8.02059 5.18685 8.06791 5.1875 8.11743V9.17993C5.18685 9.22946 5.16689 9.27677 5.13187 9.3118C5.09684 9.34682 5.04953 9.36678 5 9.36743ZM4.125 8.99993H4.8125V8.30493H4.125V8.99993Z" fill="#7D7D7D"/>
<path d="M5 12.3899H3.9375C3.88797 12.3892 3.84066 12.3693 3.80563 12.3343C3.77061 12.2992 3.75065 12.2519 3.75 12.2024V11.1399C3.75065 11.0904 3.77061 11.043 3.80563 11.008C3.84066 10.973 3.88797 10.953 3.9375 10.9524H5C5.04953 10.953 5.09684 10.973 5.13187 11.008C5.16689 11.043 5.18685 11.0904 5.1875 11.1399V12.2024C5.18685 12.2519 5.16689 12.2992 5.13187 12.3343C5.09684 12.3693 5.04953 12.3892 5 12.3899ZM4.125 12.0149H4.8125V11.3274H4.125V12.0149Z" fill="#7D7D7D"/>
<path d="M8.52974 6.2499H7.46974C7.44503 6.25023 7.4205 6.24561 7.39759 6.23631C7.37469 6.227 7.35389 6.21321 7.33641 6.19573C7.31893 6.17825 7.30513 6.15744 7.29583 6.13454C7.28653 6.11164 7.28191 6.08711 7.28224 6.0624V4.9999C7.28191 4.97518 7.28653 4.95065 7.29583 4.92775C7.30513 4.90485 7.31893 4.88404 7.33641 4.86656C7.35389 4.84908 7.37469 4.83529 7.39759 4.82598C7.4205 4.81668 7.44503 4.81206 7.46974 4.8124H8.52974C8.55446 4.81206 8.57899 4.81668 8.60189 4.82598C8.62479 4.83529 8.6456 4.84908 8.66308 4.86656C8.68055 4.88404 8.69435 4.90485 8.70366 4.92775C8.71296 4.95065 8.71758 4.97518 8.71724 4.9999V6.0599C8.71792 6.08482 8.71355 6.10962 8.7044 6.13282C8.69525 6.15601 8.6815 6.17711 8.66399 6.19486C8.64648 6.21261 8.62556 6.22663 8.60249 6.23609C8.57942 6.24554 8.55467 6.25024 8.52974 6.2499ZM7.65724 5.8749H8.34224V5.1874H7.65724V5.8749Z" fill="#7D7D7D"/>
<path d="M12.0297 9.36743H10.9697C10.92 9.36743 10.8723 9.34768 10.8371 9.31251C10.802 9.27735 10.7822 9.22966 10.7822 9.17993V8.11743C10.7822 8.0677 10.802 8.02001 10.8371 7.98485C10.8723 7.94969 10.92 7.92993 10.9697 7.92993H12.0297C12.0795 7.92993 12.1271 7.94969 12.1623 7.98485C12.1975 8.02001 12.2172 8.0677 12.2172 8.11743V9.17993C12.2172 9.22966 12.1975 9.27735 12.1623 9.31251C12.1271 9.34768 12.0795 9.36743 12.0297 9.36743ZM11.1572 8.99993H11.8422V8.30493H11.1572V8.99993Z" fill="#7D7D7D"/>
<path d="M8.52973 12.3899H7.46973C7.42 12.3899 7.37231 12.3701 7.33714 12.335C7.30198 12.2998 7.28223 12.2521 7.28223 12.2024V11.1399C7.28223 11.0902 7.30198 11.0425 7.33714 11.0073C7.37231 10.9721 7.42 10.9524 7.46973 10.9524H8.52973C8.57945 10.9524 8.62715 10.9721 8.66231 11.0073C8.69747 11.0425 8.71723 11.0902 8.71723 11.1399V12.2024C8.71723 12.2521 8.69747 12.2998 8.66231 12.335C8.62715 12.3701 8.57945 12.3899 8.52973 12.3899ZM7.65723 12.0149H8.34223V11.3274H7.65723V12.0149Z" fill="#7D7D7D"/>
<path d="M12.0625 6.25H11C10.9503 6.25 10.9026 6.23025 10.8674 6.19508C10.8323 6.15992 10.8125 6.11223 10.8125 6.0625V5C10.8125 4.95027 10.8323 4.90258 10.8674 4.86742C10.9026 4.83225 10.9503 4.8125 11 4.8125H12.0625C12.1122 4.8125 12.1599 4.83225 12.1951 4.86742C12.2302 4.90258 12.25 4.95027 12.25 5V6.06C12.2503 6.08483 12.2457 6.10948 12.2365 6.13252C12.2272 6.15556 12.2134 6.17652 12.196 6.1942C12.1785 6.21188 12.1577 6.22591 12.1348 6.23549C12.1119 6.24507 12.0873 6.25 12.0625 6.25ZM11.1875 5.875H11.875V5.1875H11.1875V5.875Z" fill="#7D7D7D"/>
<path d="M12.0625 12.3899H11C10.9505 12.3892 10.9032 12.3693 10.8681 12.3343C10.8331 12.2992 10.8131 12.2519 10.8125 12.2024V11.1399C10.8131 11.0904 10.8331 11.043 10.8681 11.008C10.9032 10.973 10.9505 10.953 11 10.9524H12.0625C12.112 10.953 12.1593 10.973 12.1944 11.008C12.2294 11.043 12.2494 11.0904 12.25 11.1399V12.2024C12.2494 12.2519 12.2294 12.2992 12.1944 12.3343C12.1593 12.3693 12.112 12.3892 12.0625 12.3899ZM11.1875 12.0149H11.875V11.3274H11.1875V12.0149Z" fill="#7D7D7D"/>
<path d="M8.5998 9.72992C8.56921 9.72987 8.53912 9.72213 8.5123 9.70742L8.0123 9.43742L7.4998 9.70742C7.46787 9.72896 7.43008 9.74015 7.39157 9.73946C7.35306 9.73877 7.3157 9.72624 7.28456 9.70357C7.25342 9.6809 7.23002 9.64919 7.21754 9.61275C7.20506 9.57632 7.2041 9.53692 7.2148 9.49992L7.3123 8.92742L6.8973 8.52242C6.8724 8.49836 6.85474 8.46781 6.84634 8.43422C6.83795 8.40063 6.83914 8.36536 6.8498 8.33242C6.86058 8.29869 6.88057 8.26865 6.90752 8.24568C6.93446 8.22271 6.96729 8.20772 7.0023 8.20242L7.5748 8.11992L7.8248 7.59992C7.84209 7.57091 7.86662 7.54689 7.89598 7.53021C7.92534 7.51353 7.95853 7.50476 7.9923 7.50476C8.02607 7.50476 8.05926 7.51353 8.08862 7.53021C8.11798 7.54689 8.14251 7.57091 8.1598 7.59992L8.4098 8.11992L8.9823 8.20242C9.01731 8.20772 9.05013 8.22271 9.07708 8.24568C9.10403 8.26865 9.12402 8.29869 9.1348 8.33242C9.14545 8.36536 9.14665 8.40063 9.13825 8.43422C9.12986 8.46781 9.1122 8.49836 9.0873 8.52242L8.6723 8.92742L8.7848 9.49992C8.79049 9.5343 8.78649 9.56959 8.77325 9.60183C8.76 9.63407 8.73803 9.66197 8.7098 9.68242C8.67975 9.71052 8.64086 9.72731 8.5998 9.72992ZM7.9998 9.03742C8.03039 9.03747 8.06048 9.0452 8.0873 9.05992L8.3523 9.19742L8.2998 8.90492C8.29475 8.87463 8.29712 8.84357 8.30669 8.8144C8.31627 8.78523 8.33278 8.75882 8.3548 8.73742L8.5673 8.52992L8.2723 8.49992C8.2425 8.49518 8.21426 8.48341 8.18991 8.46558C8.16557 8.44776 8.14582 8.42439 8.1323 8.39742L7.9998 8.11742L7.8673 8.38492C7.85378 8.41189 7.83403 8.43526 7.80968 8.45308C7.78534 8.47091 7.7571 8.48268 7.7273 8.48742L7.4323 8.52992L7.6448 8.73742C7.66682 8.75882 7.68332 8.78523 7.6929 8.8144C7.70248 8.84357 7.70485 8.87463 7.6998 8.90492L7.6473 9.19742L7.9123 9.05992C7.93912 9.0452 7.96921 9.03747 7.9998 9.03742Z" fill="#7D7D7D"/>
</svg>
