<svg width="24" height="24" viewBox="0 0 24 24" fill="none" xmlns="http://www.w3.org/2000/svg">
<path d="M22.0004 22.6H4.00039C3.70039 22.6 3.40039 22.3 3.40039 22V2.00002C3.40039 1.70002 3.70039 1.40002 4.00039 1.40002H14.0004C14.3004 1.40002 14.6004 1.70002 14.6004 2.00002C14.6004 2.30002 14.3004 2.60002 14.0004 2.60002H4.60039V21.4H21.4004V10C21.4004 9.70002 21.7004 9.40002 22.0004 9.40002C22.3004 9.40002 22.6004 9.70002 22.6004 10V22C22.6004 22.3 22.3004 22.6 22.0004 22.6Z" fill="white"/>
<path d="M18.0004 18.6H8.00039C7.70039 18.6 7.40039 18.3 7.40039 18V17C7.40039 13.9 9.90039 11.4 13.0004 11.4C16.1004 11.4 18.6004 13.9 18.6004 17V18C18.6004 18.3 18.3004 18.6 18.0004 18.6ZM8.60039 17.4H17.4004V17C17.4004 14.6 15.4004 12.6 13.0004 12.6C10.6004 12.6 8.60039 14.6 8.60039 17V17.4Z" fill="white"/>
<path d="M13.0004 12.6C11.0004 12.6 9.40039 11 9.40039 9.00002C9.40039 7.00002 11.0004 5.40002 13.0004 5.40002C15.0004 5.40002 16.6004 7.00002 16.6004 9.00002C16.6004 11 15.0004 12.6 13.0004 12.6ZM13.0004 6.60002C11.7004 6.60002 10.6004 7.70002 10.6004 9.00002C10.6004 10.3 11.7004 11.4 13.0004 11.4C14.3004 11.4 15.4004 10.3 15.4004 9.00002C15.4004 7.70002 14.3004 6.60002 13.0004 6.60002Z" fill="white"/>
<path d="M5.00039 13.1H2.00039C1.70039 13.1 1.40039 12.8 1.40039 12.5V11.5C1.40039 11.2 1.70039 10.9 2.00039 10.9H5.00039C5.30039 10.9 5.60039 11.2 5.60039 11.5V12.5C5.60039 12.8 5.30039 13.1 5.00039 13.1Z" fill="white"/>
<path d="M5.00039 19.6H2.00039C1.70039 19.6 1.40039 19.3 1.40039 19V18C1.40039 17.7 1.70039 17.4 2.00039 17.4H5.00039C5.30039 17.4 5.60039 17.7 5.60039 18V19C5.60039 19.3 5.30039 19.6 5.00039 19.6Z" fill="white"/>
<path d="M5.00039 6.60002H2.00039C1.70039 6.60002 1.40039 6.30002 1.40039 6.00002V5.00002C1.40039 4.70002 1.70039 4.40002 2.00039 4.40002H5.00039C5.30039 4.40002 5.60039 4.70002 5.60039 5.00002V6.00002C5.60039 6.30002 5.30039 6.60002 5.00039 6.60002Z" fill="white"/>
<path d="M23.0004 4.60002H17.0004C16.7004 4.60002 16.4004 4.30002 16.4004 4.00002C16.4004 3.70002 16.7004 3.40002 17.0004 3.40002H23.0004C23.3004 3.40002 23.6004 3.70002 23.6004 4.00002C23.6004 4.30002 23.3004 4.60002 23.0004 4.60002Z" fill="white"/>
<path d="M20.0004 7.60002C19.7004 7.60002 19.4004 7.30002 19.4004 7.00002V1.00002C19.4004 0.700024 19.7004 0.400024 20.0004 0.400024C20.3004 0.400024 20.6004 0.700024 20.6004 1.00002V7.00002C20.6004 7.30002 20.3004 7.60002 20.0004 7.60002Z" fill="white"/>
</svg>
