<svg width="20" height="20" viewBox="0 0 20 20" fill="none" xmlns="http://www.w3.org/2000/svg">
<path d="M10.0163 16.6666C9.09184 16.6666 8.22545 16.4927 7.41711 16.1449C6.60878 15.7971 5.90267 15.321 5.29878 14.7166C4.69489 14.1121 4.21878 13.406 3.87045 12.5983C3.52211 11.7905 3.3485 10.9244 3.34961 9.99992C3.35073 9.07547 3.52461 8.20936 3.87128 7.40159C4.21795 6.59381 4.69406 5.8877 5.29961 5.28325C5.90517 4.67881 6.61073 4.2027 7.41628 3.85492C8.22184 3.50714 9.08822 3.33325 10.0154 3.33325C10.9727 3.33325 11.8843 3.53103 12.7504 3.92659C13.6166 4.32159 14.3716 4.8727 15.0154 5.57992V3.58992H15.8488V7.05158H12.3879V6.21825H14.4546C13.8746 5.57936 13.2052 5.0777 12.4463 4.71325C11.6885 4.34881 10.8785 4.16659 10.0163 4.16659C8.39073 4.16659 7.01211 4.7327 5.88045 5.86492C4.74878 6.99714 4.18267 8.37547 4.18211 9.99992C4.18156 11.6244 4.74767 13.003 5.88045 14.1358C7.01323 15.2685 8.39156 15.8344 10.0154 15.8333C11.4738 15.8333 12.7429 15.3583 13.8229 14.4083C14.9029 13.4583 15.5557 12.2666 15.7813 10.8333H16.6246C16.4268 12.5116 15.6991 13.9033 14.4413 15.0083C13.1835 16.1138 11.7085 16.6666 10.0163 16.6666ZM12.6379 13.2116L9.59878 10.1733V5.83325H10.4321V9.82658L13.2271 12.6216L12.6379 13.2116Z" fill="#060B27"/>
</svg>
