<svg width="24" height="24" viewBox="0 0 24 24" fill="none" xmlns="http://www.w3.org/2000/svg">
<path d="M11.0029 19.4458L10.9952 19.4381L10.9871 19.4308L9.26255 17.8562C9.26246 17.8561 9.26237 17.856 9.26229 17.8559C7.5065 16.2492 5.92244 14.657 4.50945 13.0794C3.15618 11.5686 2.49938 9.93001 2.5 8.1502V8.15002C2.5 6.70785 2.97791 5.52922 3.92855 4.57858C4.8792 3.62793 6.05783 3.15002 7.5 3.15002C8.31 3.15002 9.06948 3.32121 9.78426 3.66308C10.505 4.00783 11.1147 4.47722 11.6181 5.0728L11.9998 5.52432L12.3817 5.073C12.8851 4.47803 13.4949 4.00888 14.2157 3.66409C14.9306 3.32218 15.6901 3.15066 16.5002 3.15002C17.9423 3.15006 19.1208 3.62797 20.0714 4.57858C21.0221 5.52922 21.5 6.70785 21.5 8.15002C21.5 9.93028 20.8464 11.5737 19.5007 13.0936C18.0981 14.6776 16.5035 16.2725 14.7159 17.878L14.7159 17.878L14.7131 17.8805L13.0131 19.4305L13.0046 19.4383L12.9964 19.4465C12.8659 19.5771 12.7183 19.6692 12.5498 19.7274C12.3562 19.7943 12.1736 19.825 12 19.825C11.8272 19.825 11.645 19.7943 11.4512 19.7274C11.2825 19.6692 11.1344 19.5768 11.0029 19.4458Z" stroke="white"/>
</svg>
