<svg width="20" height="20" viewBox="0 0 20 20" fill="none" xmlns="http://www.w3.org/2000/svg">
<path d="M6.34602 16.6666C5.97547 16.6666 5.65852 16.5346 5.39519 16.2707C5.13185 16.0068 4.99991 15.6905 4.99935 15.3216V4.9999H4.58269C4.46435 4.9999 4.36547 4.9599 4.28602 4.8799C4.20658 4.7999 4.16658 4.70074 4.16602 4.5824C4.16547 4.46407 4.20547 4.36518 4.28602 4.28574C4.36658 4.20629 4.46547 4.16657 4.58269 4.16657H7.49935C7.49935 3.99435 7.56324 3.84435 7.69102 3.71657C7.8188 3.58879 7.9688 3.5249 8.14102 3.5249H11.8577C12.0299 3.5249 12.1799 3.58879 12.3077 3.71657C12.4355 3.84435 12.4994 3.99435 12.4994 4.16657H15.416C15.5344 4.16657 15.6332 4.20657 15.7127 4.28657C15.7921 4.36657 15.8321 4.46574 15.8327 4.58407C15.8332 4.7024 15.7932 4.80129 15.7127 4.88074C15.6321 4.96018 15.5332 4.9999 15.416 4.9999H14.9994V15.3207C14.9994 15.6907 14.8674 16.0074 14.6035 16.2707C14.3396 16.5341 14.023 16.666 13.6535 16.6666H6.34602ZM14.166 4.9999H5.83269V15.3207C5.83269 15.4702 5.88074 15.593 5.97685 15.6891C6.07297 15.7852 6.19602 15.8332 6.34602 15.8332H13.6535C13.803 15.8332 13.9257 15.7852 14.0219 15.6891C14.118 15.593 14.166 15.4702 14.166 15.3207V4.9999ZM8.58935 14.1666C8.70769 14.1666 8.80685 14.1266 8.88685 14.0466C8.96685 13.9666 9.00658 13.8677 9.00602 13.7499V7.08324C9.00602 6.9649 8.96602 6.86601 8.88602 6.78657C8.80602 6.70712 8.70685 6.66712 8.58852 6.66657C8.47019 6.66601 8.3713 6.70601 8.29185 6.78657C8.21241 6.86712 8.17269 6.96601 8.17269 7.08324V13.7499C8.17269 13.8682 8.21269 13.9671 8.29269 14.0466C8.37269 14.1266 8.47158 14.1666 8.58935 14.1666ZM11.4102 14.1666C11.5285 14.1666 11.6274 14.1266 11.7069 14.0466C11.7863 13.9666 11.826 13.8677 11.826 13.7499V7.08324C11.826 6.9649 11.786 6.86601 11.706 6.78657C11.626 6.70657 11.5271 6.66657 11.4094 6.66657C11.291 6.66657 11.1919 6.70657 11.1119 6.78657C11.0319 6.86657 10.9921 6.96546 10.9927 7.08324V13.7499C10.9927 13.8682 11.0327 13.9671 11.1127 14.0466C11.1927 14.126 11.2919 14.166 11.4102 14.1666Z" fill="#060B27"/>
</svg>
