<svg width="23" height="23" viewBox="0 0 23 23" fill="none" xmlns="http://www.w3.org/2000/svg">
<rect width="23" height="23" rx="11.5" fill="white"/>
<path d="M6.35178 6.35178H8.37945L9.73123 5H13.7866L15.1383 6.35178H17.166C17.5245 6.35178 17.8684 6.4942 18.1219 6.74771C18.3754 7.00121 18.5178 7.34504 18.5178 7.70356V15.8142C18.5178 16.1727 18.3754 16.5166 18.1219 16.7701C17.8684 17.0236 17.5245 17.166 17.166 17.166H6.35178C5.99327 17.166 5.64943 17.0236 5.39593 16.7701C5.14242 16.5166 5 16.1727 5 15.8142V7.70356C5 7.34504 5.14242 7.00121 5.39593 6.74771C5.64943 6.4942 5.99327 6.35178 6.35178 6.35178ZM11.7589 8.37945C10.8626 8.37945 10.003 8.7355 9.36927 9.36927C8.7355 10.003 8.37945 10.8626 8.37945 11.7589C8.37945 12.6552 8.7355 13.5148 9.36927 14.1485C10.003 14.7823 10.8626 15.1383 11.7589 15.1383C12.6552 15.1383 13.5148 14.7823 14.1485 14.1485C14.7823 13.5148 15.1383 12.6552 15.1383 11.7589C15.1383 10.8626 14.7823 10.003 14.1485 9.36927C13.5148 8.7355 12.6552 8.37945 11.7589 8.37945ZM11.7589 9.73123C12.2967 9.73123 12.8124 9.94486 13.1927 10.3251C13.5729 10.7054 13.7866 11.2211 13.7866 11.7589C13.7866 12.2967 13.5729 12.8124 13.1927 13.1927C12.8124 13.5729 12.2967 13.7866 11.7589 13.7866C11.2211 13.7866 10.7054 13.5729 10.3251 13.1927C9.94486 12.8124 9.73123 12.2967 9.73123 11.7589C9.73123 11.2211 9.94486 10.7054 10.3251 10.3251C10.7054 9.94486 11.2211 9.73123 11.7589 9.73123Z" fill="#B6B4B4"/>
</svg>
