<svg width="18" height="18" viewBox="0 0 18 18" fill="none" xmlns="http://www.w3.org/2000/svg">
<g clip-path="url(#clip0_156_192)">
<path d="M10.7385 6.82322C10.6346 6.53106 10.4429 6.27813 10.1897 6.09907C9.93658 5.92001 9.63426 5.82357 9.32417 5.82294H8.16317C7.83195 5.8212 7.51184 5.94235 7.26476 6.16295C7.01768 6.38355 6.86118 6.68793 6.82551 7.01723C6.78985 7.34654 6.87756 7.67737 7.07168 7.94575C7.2658 8.21413 7.55254 8.401 7.87646 8.47022L9.64431 8.85594C10.0058 8.93508 10.3253 9.145 10.5414 9.44538C10.7575 9.74577 10.855 10.1154 10.8151 10.4833C10.7753 10.8512 10.6008 11.1914 10.3254 11.4385C10.05 11.6856 9.69293 11.8222 9.32288 11.8221H8.32388C7.67074 11.8221 7.11531 11.4055 6.9096 10.8231M8.82403 5.82294V4.32251M8.82403 13.3225V11.8234M2.57031 17.3545V14.1402H5.7846" stroke="#060B27" stroke-linecap="round" stroke-linejoin="round"/>
<path d="M17.2141 7.46219C17.5554 9.28174 17.2829 11.1631 16.4393 12.8111C15.5958 14.459 14.2289 15.7802 12.5532 16.5673C10.8776 17.3543 8.98801 17.5627 7.18111 17.1598C5.3742 16.7568 3.75224 15.7652 2.56981 14.3408M0.787811 10.5376C0.446485 8.71806 0.718995 6.83666 1.56257 5.18873C2.40614 3.5408 3.77302 2.21961 5.44868 1.43254C7.12433 0.645471 9.0139 0.437068 10.8208 0.840044C12.6277 1.24302 14.2497 2.23456 15.4321 3.65904" stroke="#060B27" stroke-linecap="round" stroke-linejoin="round"/>
<path d="M15.433 0.645264V3.85955H12.2188" stroke="#060B27" stroke-linecap="round" stroke-linejoin="round"/>
</g>
<defs>
<clipPath id="clip0_156_192">
<rect width="18" height="18" fill="white"/>
</clipPath>
</defs>
</svg>
