<svg width="15" height="13" viewBox="0 0 15 13" fill="none" xmlns="http://www.w3.org/2000/svg">
<path d="M2.18 6.18751C1.88346 5.89294 1.6485 5.54228 1.48884 5.15599C1.32917 4.7697 1.24798 4.3555 1.25 3.93751C1.25 3.09214 1.58582 2.28138 2.1836 1.68361C2.78137 1.08584 3.59212 0.750014 4.4375 0.750013C5.6225 0.750013 6.6575 1.39501 7.205 2.35501H8.045C8.32334 1.86681 8.72608 1.46108 9.21222 1.17915C9.69835 0.897212 10.2505 0.749142 10.8125 0.750013C11.6579 0.750013 12.4686 1.08584 13.0664 1.68361C13.6642 2.28138 14 3.09214 14 3.93751C14 4.81501 13.625 5.62501 13.07 6.18751L7.625 11.625L2.18 6.18751ZM13.595 6.72001C14.3075 6.00001 14.75 5.02501 14.75 3.93751C14.75 2.89322 14.3352 1.8917 13.5967 1.15328C12.8583 0.414856 11.8568 1.3539e-05 10.8125 1.3539e-05C9.5 1.3539e-05 8.3375 0.637514 7.625 1.62751C7.26133 1.12239 6.78245 0.711252 6.22811 0.42821C5.67376 0.145167 5.05992 -0.00162323 4.4375 1.3539e-05C3.39321 1.3539e-05 2.39169 0.414856 1.65327 1.15328C0.914843 1.8917 0.5 2.89322 0.5 3.93751C0.5 5.02501 0.9425 6.00001 1.655 6.72001L7.625 12.69L13.595 6.72001Z" fill="#060B27"/>
</svg>
